<svg width="91" height="68" viewBox="0 0 91 68" fill="none" xmlns="http://www.w3.org/2000/svg">
<path d="M45.5001 39.62H42.4709C42.1444 39.62 42.1326 39.6074 42.1318 39.2728C42.1318 38.7139 42.1378 38.1542 42.1318 37.5953C42.1318 37.3977 42.1955 37.3266 42.3969 37.3311C42.8832 37.3422 43.3703 37.331 43.8567 37.3377C44.0343 37.3377 44.1039 37.2829 44.0995 37.1001C44.0906 36.7011 44.1032 36.3013 44.0943 35.9016C44.0899 35.7113 44.1461 35.6299 44.3534 35.6321C45.1307 35.642 45.908 35.642 46.6853 35.6321C46.8785 35.6321 46.9399 35.7062 46.9355 35.889C46.9266 36.274 46.9414 36.6589 46.9295 37.0438C46.9229 37.2482 47.0036 37.3088 47.1983 37.3051C47.6772 37.2955 48.1569 37.3052 48.6359 37.3C48.835 37.3 48.9083 37.3799 48.9076 37.5724C48.9031 38.1535 48.9076 38.7346 48.9076 39.3157C48.9076 39.5704 48.8565 39.62 48.5974 39.6207C47.5664 39.6207 46.535 39.6207 45.503 39.6207L45.5001 39.62Z" fill="#FF8578"/>
<path d="M53.2312 39.5302C52.2076 39.5302 51.1838 39.5302 50.1598 39.5302C49.8533 39.5302 49.8503 39.5302 49.8496 39.2341C49.8496 38.7256 49.8541 38.2177 49.8496 37.7092C49.8496 37.5322 49.9096 37.4656 50.0902 37.4656C52.163 37.47 54.2431 37.4656 56.3196 37.4708C56.4571 37.4681 56.5938 37.4931 56.7216 37.5441C56.8493 37.5952 56.9656 37.6713 57.0634 37.7679C57.1613 37.8646 57.2388 37.9799 57.2914 38.107C57.344 38.2342 57.3707 38.3705 57.3697 38.5081C57.3688 38.6456 57.3403 38.7816 57.286 38.908C57.2316 39.0344 57.1526 39.1486 57.0534 39.244C56.9542 39.3393 56.8369 39.4138 56.7085 39.4631C56.58 39.5124 56.443 39.5355 56.3055 39.531C55.2788 39.5332 54.255 39.5302 53.2312 39.5302Z" fill="#FF8578"/>
<path d="M37.7712 39.5294C36.74 39.5294 35.7088 39.5294 34.6776 39.5294C34.4654 39.5345 34.257 39.4729 34.0816 39.3534C33.9062 39.2339 33.7726 39.0625 33.6997 38.8632C33.6207 38.6619 33.6089 38.4404 33.666 38.2317C33.7231 38.0231 33.846 37.8385 34.0165 37.7054C34.2019 37.5473 34.4392 37.4635 34.6828 37.47C36.7555 37.47 38.8224 37.47 40.8922 37.4656C41.0802 37.4656 41.1483 37.5263 41.1453 37.7172C41.1355 38.2399 41.1355 38.7628 41.1453 39.2859C41.149 39.4799 41.0758 39.5361 40.8899 39.5346C39.8484 39.5265 38.8098 39.5294 37.7712 39.5294Z" fill="#FF8578"/>
<path d="M36.8457 16.1221C39.4229 16.1221 41.9998 16.1221 44.5764 16.1221H46.5855C48.5391 16.1221 50.4927 16.1258 52.4463 16.1184C52.8758 16.1315 53.2935 15.9763 53.6103 15.6859C53.9271 15.3955 54.118 14.9929 54.1423 14.5639C54.2079 13.6357 54.2151 12.7043 54.1637 11.7753C54.1749 11.536 54.1352 11.2971 54.0474 11.0743C53.9596 10.8514 53.8255 10.6497 53.6541 10.4825C53.4827 10.3152 53.2778 10.1861 53.0529 10.1037C52.828 10.0213 52.5882 9.98753 52.3493 10.0045C47.1585 10.0045 41.9675 10.0045 36.7762 10.0045C36.5427 9.99816 36.3103 10.0396 36.0934 10.1262C35.8764 10.2128 35.6795 10.3428 35.5146 10.5083C35.3497 10.6737 35.2203 10.8711 35.1344 11.0884C35.0485 11.3056 35.0079 11.5381 35.015 11.7715C35.015 12.6105 35.015 13.4478 35.015 14.2833C34.9957 14.529 35.0297 14.776 35.1147 15.0073C35.1998 15.2386 35.3338 15.4488 35.5077 15.6235C35.6816 15.7982 35.8912 15.9332 36.1222 16.0192C36.3531 16.1053 36.6 16.1404 36.8457 16.1221Z" fill="#FF8578"/>
<path d="M52.8134 18.6713H52.8216L52.7905 18.6662C52.752 18.658 52.7128 18.6514 52.672 18.6462C52.5651 18.6283 52.457 18.6189 52.3486 18.618C47.1578 18.618 41.9667 18.618 36.7754 18.618C36.5419 18.6118 36.3095 18.6533 36.0926 18.74C35.8756 18.8267 35.6787 18.9568 35.5138 19.1223C35.3489 19.2878 35.2196 19.4853 35.1337 19.7025C35.0478 19.9198 35.0071 20.1523 35.0143 20.3858C35.0143 21.2248 35.0143 22.0621 35.0143 22.8976C34.9959 23.1427 35.0307 23.389 35.1162 23.6195C35.2017 23.85 35.3359 24.0594 35.5097 24.2333C35.6834 24.4072 35.8927 24.5416 36.1231 24.6273C36.3536 24.7129 36.5998 24.7479 36.845 24.7298C39.4221 24.7298 41.999 24.7298 44.5757 24.7298H46.5848C48.5384 24.7298 50.4919 24.7342 52.4455 24.7261C52.8751 24.7391 53.2927 24.5839 53.6095 24.2935C53.9263 24.0031 54.1172 23.6005 54.1415 23.1715C54.2071 22.2433 54.2143 21.3119 54.163 20.3829C54.1803 19.9833 54.0535 19.5907 53.8059 19.2766C53.5582 18.9625 53.2061 18.7477 52.8134 18.6713Z" fill="#FF8578"/>
<path d="M52.3493 27.2289H50.0745V27.2238C45.6427 27.2238 41.2107 27.2238 36.7784 27.2238C36.5448 27.2175 36.3125 27.259 36.0956 27.3457C35.8786 27.4324 35.6817 27.5625 35.5168 27.728C35.3519 27.8935 35.2225 28.091 35.1366 28.3082C35.0508 28.5255 35.0101 28.758 35.0173 28.9915V28.9967C35.0173 29.8357 35.0173 30.6729 35.0173 31.5085C34.9988 31.7537 35.0335 32 35.1189 32.2306C35.2044 32.4612 35.3386 32.6707 35.5124 32.8447C35.6862 33.0187 35.8954 33.1531 36.1259 33.2389C36.3564 33.3246 36.6027 33.3595 36.848 33.3414C39.4251 33.3414 42.002 33.3414 44.5787 33.3414H46.5878C48.5414 33.3414 50.4949 33.3451 52.4485 33.3414C52.8781 33.3544 53.2957 33.1992 53.6125 32.9088C53.9293 32.6185 54.1202 32.2159 54.1445 31.7868C54.2101 30.8586 54.2173 29.9272 54.166 28.9982C54.1769 28.7588 54.1371 28.5199 54.049 28.2971C53.961 28.0743 53.8267 27.8727 53.6551 27.7055C53.4834 27.5383 53.2783 27.4094 53.0533 27.3273C52.8282 27.2452 52.5883 27.2116 52.3493 27.2289Z" fill="#FF8578"/>
<path d="M38.3918 14.1795C39.0108 14.1795 39.5125 13.6778 39.5125 13.0588C39.5125 12.4398 39.0108 11.938 38.3918 11.938C37.7728 11.938 37.271 12.4398 37.271 13.0588C37.271 13.6778 37.7728 14.1795 38.3918 14.1795Z" fill="#FFF8FC"/>
<path d="M38.3918 22.7967C39.0108 22.7967 39.5125 22.2949 39.5125 21.676C39.5125 21.057 39.0108 20.5552 38.3918 20.5552C37.7728 20.5552 37.271 21.057 37.271 21.676C37.271 22.2949 37.7728 22.7967 38.3918 22.7967Z" fill="#FFF8FC"/>
<path d="M38.3918 31.4139C39.0108 31.4139 39.5125 30.9121 39.5125 30.2931C39.5125 29.6742 39.0108 29.1724 38.3918 29.1724C37.7728 29.1724 37.271 29.6742 37.271 30.2931C37.271 30.9121 37.7728 31.4139 38.3918 31.4139Z" fill="#FFF8FC"/>
<path d="M9.98535 55.6204L12.7344 48.4622H13.7549L16.6846 55.6204H15.6055L14.7705 53.4524H11.7773L10.9912 55.6204H9.98535ZM12.0508 52.6809H14.4775L13.7305 50.6985C13.5026 50.0963 13.3333 49.6015 13.2227 49.2141C13.1315 49.6731 13.0029 50.1288 12.8369 50.5813L12.0508 52.6809ZM20.7129 53.7209L21.5771 53.8333C21.4827 54.429 21.2402 54.8961 20.8496 55.2346C20.4622 55.5699 19.9854 55.7375 19.4189 55.7375C18.7093 55.7375 18.138 55.5064 17.7051 55.0442C17.2754 54.5787 17.0605 53.913 17.0605 53.0471C17.0605 52.4872 17.1533 51.9973 17.3389 51.5774C17.5244 51.1575 17.806 50.8433 18.1836 50.635C18.5645 50.4234 18.9779 50.3176 19.4238 50.3176C19.987 50.3176 20.4476 50.4609 20.8057 50.7473C21.1637 51.0305 21.3932 51.4342 21.4941 51.9583L20.6396 52.0901C20.5583 51.7418 20.4134 51.4797 20.2051 51.304C20 51.1282 19.751 51.0403 19.458 51.0403C19.0153 51.0403 18.6556 51.1998 18.3789 51.5188C18.1022 51.8346 17.9639 52.3359 17.9639 53.0227C17.9639 53.7193 18.0973 54.2255 18.3643 54.5413C18.6312 54.857 18.9795 55.0149 19.4092 55.0149C19.7542 55.0149 20.0423 54.9091 20.2734 54.6975C20.5046 54.4859 20.651 54.1604 20.7129 53.7209ZM24.248 54.8342L24.375 55.6106C24.1276 55.6627 23.9062 55.6887 23.7109 55.6887C23.3919 55.6887 23.1445 55.6383 22.9688 55.5374C22.793 55.4364 22.6693 55.3046 22.5977 55.1418C22.526 54.9758 22.4902 54.6292 22.4902 54.1018V51.1184H21.8457V50.4348H22.4902V49.1506L23.3643 48.6233V50.4348H24.248V51.1184H23.3643V54.1506C23.3643 54.4013 23.3789 54.5624 23.4082 54.634C23.4408 54.7056 23.4912 54.7626 23.5596 54.8049C23.6312 54.8472 23.7321 54.8684 23.8623 54.8684C23.96 54.8684 24.0885 54.857 24.248 54.8342ZM25.1172 49.4729V48.4622H25.9961V49.4729H25.1172ZM25.1172 55.6204V50.4348H25.9961V55.6204H25.1172ZM28.7793 55.6204L26.8066 50.4348H27.7344L28.8477 53.5403C28.9681 53.8756 29.0788 54.2239 29.1797 54.5852C29.2578 54.3118 29.3669 53.983 29.5068 53.5989L30.6592 50.4348H31.5625L29.5996 55.6204H28.7793ZM35.8887 53.9504L36.7969 54.0627C36.6536 54.5933 36.3883 55.0051 36.001 55.2981C35.6136 55.5911 35.1188 55.7375 34.5166 55.7375C33.7581 55.7375 33.1559 55.5048 32.71 55.0393C32.2673 54.5706 32.0459 53.9146 32.0459 53.0715C32.0459 52.1991 32.2705 51.5221 32.7197 51.0403C33.1689 50.5585 33.7516 50.3176 34.4678 50.3176C35.1611 50.3176 35.7275 50.5536 36.167 51.0256C36.6064 51.4976 36.8262 52.1617 36.8262 53.0178C36.8262 53.0699 36.8245 53.148 36.8213 53.2522H32.9541C32.9867 53.8219 33.1478 54.2581 33.4375 54.5608C33.7272 54.8635 34.0885 55.0149 34.5215 55.0149C34.8438 55.0149 35.1188 54.9303 35.3467 54.761C35.5745 54.5917 35.7552 54.3215 35.8887 53.9504ZM33.0029 52.5295H35.8984C35.8594 52.0933 35.7487 51.7662 35.5664 51.5481C35.2865 51.2096 34.9235 51.0403 34.4775 51.0403C34.0739 51.0403 33.7337 51.1754 33.457 51.4456C33.1836 51.7157 33.0322 52.0771 33.0029 52.5295ZM40.8008 55.6204V48.4622H43.2666C43.8232 48.4622 44.248 48.4963 44.541 48.5647C44.9512 48.6591 45.3011 48.83 45.5908 49.0774C45.9684 49.3964 46.25 49.8049 46.4355 50.303C46.6243 50.7978 46.7188 51.3642 46.7188 52.0022C46.7188 52.5458 46.6553 53.0276 46.5283 53.4475C46.4014 53.8674 46.2386 54.2157 46.04 54.4924C45.8415 54.7659 45.6234 54.9823 45.3857 55.1418C45.1514 55.2981 44.8665 55.4169 44.5312 55.4983C44.1992 55.5797 43.8167 55.6204 43.3838 55.6204H40.8008ZM41.748 54.7756H43.2764C43.7484 54.7756 44.1178 54.7317 44.3848 54.6438C44.6549 54.5559 44.8698 54.4322 45.0293 54.2727C45.2539 54.0481 45.4281 53.747 45.5518 53.3694C45.6787 52.9885 45.7422 52.5279 45.7422 51.9875C45.7422 51.2389 45.6185 50.6643 45.3711 50.2639C45.127 49.8603 44.8291 49.5901 44.4775 49.4534C44.2236 49.3557 43.8151 49.3069 43.252 49.3069H41.748V54.7756ZM47.9199 49.4729V48.4622H48.7988V49.4729H47.9199ZM47.9199 55.6204V50.4348H48.7988V55.6204H47.9199ZM50.1318 55.6204V50.4348H50.9229V51.2209C51.1247 50.8531 51.3102 50.6106 51.4795 50.4934C51.652 50.3762 51.8408 50.3176 52.0459 50.3176C52.3421 50.3176 52.6432 50.412 52.9492 50.6008L52.6465 51.4163C52.4316 51.2893 52.2168 51.2258 52.002 51.2258C51.8099 51.2258 51.6374 51.2844 51.4844 51.4016C51.3314 51.5155 51.2223 51.675 51.1572 51.8801C51.0596 52.1926 51.0107 52.5344 51.0107 52.9055V55.6204H50.1318ZM57.0215 53.9504L57.9297 54.0627C57.7865 54.5933 57.5212 55.0051 57.1338 55.2981C56.7464 55.5911 56.2516 55.7375 55.6494 55.7375C54.891 55.7375 54.2887 55.5048 53.8428 55.0393C53.4001 54.5706 53.1787 53.9146 53.1787 53.0715C53.1787 52.1991 53.4033 51.5221 53.8525 51.0403C54.3018 50.5585 54.8844 50.3176 55.6006 50.3176C56.2939 50.3176 56.8604 50.5536 57.2998 51.0256C57.7393 51.4976 57.959 52.1617 57.959 53.0178C57.959 53.0699 57.9574 53.148 57.9541 53.2522H54.0869C54.1195 53.8219 54.2806 54.2581 54.5703 54.5608C54.86 54.8635 55.2214 55.0149 55.6543 55.0149C55.9766 55.0149 56.2516 54.9303 56.4795 54.761C56.7074 54.5917 56.888 54.3215 57.0215 53.9504ZM54.1357 52.5295H57.0312C56.9922 52.0933 56.8815 51.7662 56.6992 51.5481C56.4193 51.2096 56.0563 51.0403 55.6104 51.0403C55.2067 51.0403 54.8665 51.1754 54.5898 51.4456C54.3164 51.7157 54.165 52.0771 54.1357 52.5295ZM62.4219 53.7209L63.2861 53.8333C63.1917 54.429 62.9492 54.8961 62.5586 55.2346C62.1712 55.5699 61.6943 55.7375 61.1279 55.7375C60.4183 55.7375 59.847 55.5064 59.4141 55.0442C58.9844 54.5787 58.7695 53.913 58.7695 53.0471C58.7695 52.4872 58.8623 51.9973 59.0479 51.5774C59.2334 51.1575 59.515 50.8433 59.8926 50.635C60.2734 50.4234 60.6868 50.3176 61.1328 50.3176C61.696 50.3176 62.1566 50.4609 62.5146 50.7473C62.8727 51.0305 63.1022 51.4342 63.2031 51.9583L62.3486 52.0901C62.2673 51.7418 62.1224 51.4797 61.9141 51.304C61.709 51.1282 61.46 51.0403 61.167 51.0403C60.7243 51.0403 60.3646 51.1998 60.0879 51.5188C59.8112 51.8346 59.6729 52.3359 59.6729 53.0227C59.6729 53.7193 59.8063 54.2255 60.0732 54.5413C60.3402 54.857 60.6885 55.0149 61.1182 55.0149C61.4632 55.0149 61.7513 54.9091 61.9824 54.6975C62.2135 54.4859 62.36 54.1604 62.4219 53.7209ZM65.957 54.8342L66.084 55.6106C65.8366 55.6627 65.6152 55.6887 65.4199 55.6887C65.1009 55.6887 64.8535 55.6383 64.6777 55.5374C64.502 55.4364 64.3783 55.3046 64.3066 55.1418C64.235 54.9758 64.1992 54.6292 64.1992 54.1018V51.1184H63.5547V50.4348H64.1992V49.1506L65.0732 48.6233V50.4348H65.957V51.1184H65.0732V54.1506C65.0732 54.4013 65.0879 54.5624 65.1172 54.634C65.1497 54.7056 65.2002 54.7626 65.2686 54.8049C65.3402 54.8472 65.4411 54.8684 65.5713 54.8684C65.6689 54.8684 65.7975 54.857 65.957 54.8342ZM66.4941 53.0276C66.4941 52.0673 66.7611 51.356 67.2949 50.8938C67.7409 50.5097 68.2845 50.3176 68.9258 50.3176C69.6387 50.3176 70.2214 50.552 70.6738 51.0208C71.1263 51.4862 71.3525 52.1308 71.3525 52.9543C71.3525 53.6217 71.2516 54.1474 71.0498 54.5315C70.8512 54.9124 70.5599 55.2086 70.1758 55.4202C69.7949 55.6318 69.3783 55.7375 68.9258 55.7375C68.1999 55.7375 67.6123 55.5048 67.1631 55.0393C66.7171 54.5738 66.4941 53.9032 66.4941 53.0276ZM67.3975 53.0276C67.3975 53.6917 67.5423 54.1897 67.832 54.5217C68.1217 54.8505 68.4863 55.0149 68.9258 55.0149C69.362 55.0149 69.7249 54.8489 70.0146 54.5168C70.3044 54.1848 70.4492 53.6786 70.4492 52.9983C70.4492 52.357 70.3027 51.872 70.0098 51.5432C69.7201 51.2112 69.3587 51.0452 68.9258 51.0452C68.4863 51.0452 68.1217 51.2096 67.832 51.5383C67.5423 51.8671 67.3975 52.3635 67.3975 53.0276ZM72.3779 55.6204V50.4348H73.1689V51.2209C73.3708 50.8531 73.5563 50.6106 73.7256 50.4934C73.8981 50.3762 74.0869 50.3176 74.292 50.3176C74.5882 50.3176 74.8893 50.412 75.1953 50.6008L74.8926 51.4163C74.6777 51.2893 74.4629 51.2258 74.248 51.2258C74.056 51.2258 73.8835 51.2844 73.7305 51.4016C73.5775 51.5155 73.4684 51.675 73.4033 51.8801C73.3057 52.1926 73.2568 52.5344 73.2568 52.9055V55.6204H72.3779ZM75.6787 57.6174L75.5811 56.7922C75.7731 56.8443 75.9408 56.8704 76.084 56.8704C76.2793 56.8704 76.4355 56.8378 76.5527 56.7727C76.6699 56.7076 76.766 56.6165 76.8408 56.4993C76.8962 56.4114 76.9857 56.1933 77.1094 55.845C77.1257 55.7961 77.1517 55.7245 77.1875 55.6301L75.2197 50.4348H76.167L77.2461 53.4377C77.3861 53.8186 77.5114 54.219 77.6221 54.6389C77.723 54.2353 77.8434 53.8414 77.9834 53.4573L79.0918 50.4348H79.9707L77.998 55.7083C77.7865 56.2779 77.6221 56.6702 77.5049 56.885C77.3486 57.1747 77.1696 57.3863 76.9678 57.5198C76.766 57.6565 76.5251 57.7249 76.2451 57.7249C76.0758 57.7249 75.887 57.689 75.6787 57.6174Z" fill="black"/>
</svg>
