<svg width="103" height="71" viewBox="0 0 103 71" fill="none" xmlns="http://www.w3.org/2000/svg">
<path d="M59.1081 38.2594C63.0837 38.2594 66.3065 35.0366 66.3065 31.061C66.3065 27.0854 63.0837 23.8625 59.1081 23.8625C55.1325 23.8625 51.9097 27.0854 51.9097 31.061C51.9097 35.0366 55.1325 38.2594 59.1081 38.2594Z" fill="white"/>
<path d="M51.017 19.1584C47.1577 19.1584 43.2986 19.1584 39.4398 19.1584C39.0728 19.1853 38.7042 19.1328 38.3594 19.0043C38.0145 18.8758 37.7014 18.6745 37.4414 18.414C37.1815 18.1535 36.9807 17.84 36.8529 17.4949C36.7251 17.1498 36.6732 16.7812 36.7008 16.4142C36.7008 15.1602 36.7008 13.9064 36.7008 12.6529C36.69 12.3032 36.7508 11.9549 36.8794 11.6295C37.008 11.3041 37.2017 11.0085 37.4487 10.7607C37.6957 10.5128 37.9907 10.3181 38.3156 10.1884C38.6406 10.0587 38.9886 9.99677 39.3384 10.0064C47.1113 10.0025 54.8842 10.0025 62.657 10.0064C63.0148 9.98094 63.374 10.0315 63.7108 10.1549C64.0476 10.2782 64.3546 10.4715 64.6113 10.722C64.868 10.9725 65.0687 11.2746 65.2003 11.6083C65.3319 11.942 65.3913 12.2998 65.3746 12.6581C65.4509 14.0493 65.4403 15.444 65.3428 16.834C65.3051 17.4759 65.0186 18.0778 64.5442 18.5118C64.0698 18.9459 63.4449 19.1778 62.8022 19.1584C59.8766 19.1703 56.954 19.1629 54.0262 19.1636H51.017V19.1584ZM47.9492 14.5932C47.9492 14.8856 47.9433 15.178 47.9492 15.4696C47.9744 16.4698 47.759 16.3765 48.9012 16.3883C49.2033 16.3883 49.3232 16.2817 49.3166 15.9716C49.3018 15.2202 49.3225 14.4688 49.3099 13.7174C49.2914 12.6514 49.4994 12.8172 48.3379 12.7832C48.0536 12.775 47.9352 12.8809 47.9448 13.1733C47.9611 13.6456 47.9492 14.1194 47.9492 14.5932ZM40.0772 14.5376C40.0772 14.8715 40.0735 15.2039 40.0772 15.5385C40.0891 16.472 39.9536 16.3528 40.9344 16.3876C41.2875 16.4002 41.3949 16.2573 41.3875 15.9205C41.3712 15.1706 41.383 14.4192 41.383 13.6686C41.383 12.724 41.3831 12.7321 40.4392 12.7802C40.172 12.7943 40.0691 12.8957 40.0742 13.16C40.0861 13.6197 40.078 14.075 40.0772 14.5369V14.5376ZM44.014 14.5754C44.014 14.9085 44.014 15.2416 44.014 15.5748C44.014 16.4172 44.0102 16.4061 44.8608 16.3891C45.1969 16.3831 45.3361 16.2617 45.3295 15.9212C45.3161 15.1721 45.3198 14.4221 45.3257 13.6723C45.3339 12.724 45.3302 12.7255 44.3849 12.7839C44.0888 12.8017 44.0036 12.932 44.011 13.2014C44.0258 13.6582 44.0147 14.1172 44.014 14.5754ZM56.1759 15.2631C56.3009 15.2546 56.4263 15.2546 56.5512 15.2631C56.9517 15.3172 57.0517 15.1254 57.0458 14.7568C57.0303 13.733 57.0672 13.9143 56.15 13.8981C56.0804 13.8981 56.0101 13.8981 55.9405 13.8981C55.3853 13.8981 55.3846 13.898 55.3883 14.4458C55.395 15.3653 55.2721 15.2498 56.1759 15.2594V15.2631ZM60.474 15.2594H61.0166C61.0476 15.2629 61.0788 15.2603 61.1087 15.2517C61.1386 15.2431 61.1665 15.2287 61.1909 15.2093C61.2152 15.1899 61.2354 15.1659 61.2505 15.1387C61.2656 15.1115 61.2752 15.0816 61.2787 15.0506C61.4882 14.183 61.2786 13.901 60.4096 13.901C60.3263 13.9069 60.2426 13.9069 60.1593 13.901C59.7611 13.8433 59.6205 14.0069 59.6323 14.4103C59.6597 15.3853 59.5464 15.2594 60.474 15.2594Z" fill="#F492B1"/>
<path d="M49.7561 36.1678C48.9899 36.1885 48.2238 36.1767 47.4568 36.173C46.4945 36.1693 46.6011 36.2707 46.5937 35.2898C46.5937 35.0678 46.5826 34.8457 46.5937 34.6236C46.6114 34.2934 46.4515 34.1743 46.1399 34.1839C45.7912 34.195 45.4425 34.1765 45.0946 34.192C44.7704 34.2068 44.6505 34.0728 44.6505 33.7478C44.6608 32.536 44.663 31.3235 44.6505 30.1116C44.646 29.7415 44.76 29.603 45.1538 29.6068C45.7213 29.6122 46.2889 29.6151 46.8565 29.6156C46.8416 29.5683 46.8246 29.5216 46.8135 29.472C46.757 29.2914 46.7292 29.1031 46.7313 28.9139H46.6854C46.5358 28.8867 46.3827 28.8867 46.2331 28.9139C45.8215 28.9257 45.4099 28.8998 44.9984 28.8835C44.8036 28.8757 44.6112 28.8385 44.4276 28.7732C44.2144 28.7646 44.0044 28.7175 43.808 28.634C43.1195 29.1535 42.3116 29.4915 41.4584 29.6171C41.8826 29.6171 42.3067 29.6171 42.7302 29.6171C42.97 29.6171 43.1299 29.6497 43.1277 29.951C43.1181 31.2472 43.1203 32.5419 43.1277 33.8389C43.1277 34.0876 43.0285 34.195 42.782 34.1913C42.3637 34.1846 41.9455 34.1965 41.528 34.1839C41.2008 34.1743 41.0838 34.3319 41.0912 34.6399C41.1023 35.0152 41.0749 35.3927 41.1075 35.7658C41.1349 36.0827 41.0335 36.1885 40.7174 36.1826C39.9653 36.1678 39.2123 36.1722 38.4602 36.1826C37.2862 36.1944 37.4623 36.0286 37.4312 37.1983C37.4209 37.5965 37.549 37.7409 37.9495 37.732C38.883 37.7113 39.8164 37.732 40.7499 37.7216C40.9972 37.7216 41.1045 37.7905 41.0957 38.0511C41.0808 38.4686 41.0957 38.8861 41.0912 39.3036C41.0875 39.5494 41.1607 39.7056 41.4413 39.7056C43.0299 39.7026 44.6183 39.7026 46.2065 39.7056C46.4959 39.7056 46.5981 39.5575 46.5914 39.2873C46.5833 38.9253 46.6092 38.5619 46.5863 38.2006C46.5633 37.8393 46.6847 37.7024 47.0585 37.715C47.7825 37.7387 48.5073 37.7253 49.232 37.7209C50.3772 37.7135 50.2573 37.9 50.2728 36.6712C50.281 36.2707 50.1277 36.1582 49.7561 36.1678Z" fill="#F492B1"/>
<path d="M59.108 23.8637C60.3663 23.8632 61.6027 24.1928 62.6938 24.8195C63.785 25.4463 64.6927 26.3483 65.3263 27.4355C65.3315 27.3948 65.3389 27.3555 65.3426 27.3141C65.4401 25.9241 65.4507 24.5295 65.3744 23.1382C65.3909 22.7799 65.3315 22.4221 65.1999 22.0884C65.0683 21.7547 64.8675 21.4527 64.6108 21.2022C64.3541 20.9516 64.0472 20.7583 63.7105 20.6348C63.3737 20.5113 63.0146 20.4605 62.6568 20.4858C54.8834 20.4858 47.1105 20.487 39.3382 20.4895C38.9884 20.4799 38.6404 20.5418 38.3154 20.6715C37.9904 20.8012 37.6954 20.9959 37.4484 21.2437C37.2014 21.4915 37.0077 21.7872 36.8791 22.1126C36.7505 22.438 36.6897 22.7863 36.7006 23.136C36.6966 24.39 36.6966 25.6438 36.7006 26.8973C36.673 27.2643 36.7248 27.6329 36.8527 27.978C36.9805 28.3231 37.1812 28.6366 37.4412 28.8971C37.7012 29.1576 38.0143 29.3589 38.3591 29.4874C38.704 29.6158 39.0726 29.6684 39.4396 29.6415C43.2989 29.6415 47.1579 29.6415 51.0167 29.6415H52.0531C52.3814 28.0121 53.2633 26.5465 54.5492 25.4934C55.8351 24.4402 57.4458 23.8644 59.108 23.8637ZM40.9342 26.8707C39.9533 26.8344 40.0888 26.9543 40.077 26.0216C40.0725 25.6884 40.077 25.3553 40.077 25.0207C40.077 24.5618 40.0859 24.1028 40.077 23.6445C40.0711 23.3803 40.1747 23.2789 40.442 23.2648C41.3851 23.2144 41.385 23.207 41.3857 24.1531C41.3857 24.9037 41.3739 25.6551 41.3902 26.405C41.3946 26.7404 41.2858 26.884 40.9342 26.8707ZM44.8577 26.8707C44.0071 26.8869 44.0078 26.898 44.0108 26.0564C44.0108 25.7232 44.0108 25.3901 44.0108 25.057C44.0108 24.5988 44.0204 24.1405 44.0108 23.6823C44.0034 23.4099 44.0907 23.2826 44.3846 23.2648C45.3299 23.2078 45.3336 23.2063 45.3255 24.1531C45.3196 24.9023 45.3159 25.6522 45.3292 26.4021C45.3351 26.7456 45.1959 26.867 44.8599 26.8729L44.8577 26.8707ZM48.8988 26.8707C47.7566 26.8588 47.972 26.9521 47.9468 25.952C47.9402 25.6603 47.9468 25.3679 47.9468 25.0755C47.9468 24.6017 47.9587 24.1287 47.9431 23.6556C47.9335 23.3632 48.0519 23.2574 48.3362 23.2655C49.4977 23.2996 49.2897 23.1338 49.3082 24.1998C49.3208 24.9511 49.3001 25.7025 49.3149 26.4539C49.323 26.7648 49.2068 26.8744 48.9011 26.8714L48.8988 26.8707Z" fill="#F492B1"/>
<path d="M52.9681 31.0815C52.9629 29.8602 53.3222 28.665 53.9998 27.6489C54.6774 26.6327 55.6426 25.8417 56.7721 25.377C57.9016 24.9122 59.144 24.7949 60.3405 25.0399C61.5371 25.2849 62.6333 25.8812 63.4892 26.7525C64.3451 27.6238 64.9217 28.7305 65.1454 29.9312C65.369 31.1319 65.2295 32.3721 64.7447 33.4931C64.2599 34.6141 63.4518 35.5651 62.4237 36.2244C61.3957 36.8838 60.1943 37.2216 58.9732 37.1947C57.3728 37.16 55.8492 36.5014 54.7274 35.3594C53.6056 34.2174 52.9743 32.6823 52.9681 31.0815Z" fill="#268CC9"/>
<path d="M56.3174 29.7402C56.1618 29.7296 56.0057 29.7521 55.8595 29.8063C55.7132 29.8605 55.5801 29.9451 55.4689 30.0545C55.3577 30.1639 55.271 30.2957 55.2145 30.4411C55.158 30.5865 55.133 30.7422 55.1411 30.8979C55.1461 31.1062 55.209 31.309 55.3228 31.4835C55.4365 31.658 55.5967 31.7974 55.7853 31.886C55.9738 31.9746 56.1833 32.009 56.3903 31.9852C56.5972 31.9615 56.7935 31.8805 56.957 31.7515C56.9922 31.7204 57.0367 31.7018 57.0835 31.6986C57.1304 31.6954 57.177 31.7077 57.2161 31.7337C57.8824 32.1142 58.5501 32.4915 59.2193 32.8656C59.2756 32.89 59.3223 32.9321 59.3523 32.9856C59.3822 33.0391 59.3938 33.101 59.3852 33.1617C59.3789 33.3374 59.4138 33.5121 59.487 33.6718C59.5602 33.8316 59.6698 33.9721 59.8069 34.0821C59.944 34.1921 60.1048 34.2686 60.2767 34.3054C60.4486 34.3423 60.6267 34.3384 60.7968 34.2943C61.0189 34.2437 61.2194 34.1247 61.3701 33.954C61.5209 33.7833 61.6142 33.5696 61.6371 33.3431C61.6716 33.1407 61.6463 32.9327 61.5641 32.7446C61.4818 32.5565 61.3464 32.3965 61.1744 32.2845C60.9957 32.1498 60.7796 32.0741 60.556 32.0677C60.3324 32.0614 60.1123 32.1247 59.9263 32.2489C59.8721 32.29 59.8061 32.3125 59.7381 32.3132C59.6701 32.3138 59.6037 32.2926 59.5487 32.2526C58.8995 31.8744 58.2429 31.5072 57.5885 31.1363C57.4915 31.0815 57.3938 31.0371 57.3982 30.895C57.4026 30.7529 57.5108 30.7158 57.6085 30.6729C58.2162 30.3879 58.827 30.1103 59.4311 29.8186C59.501 29.7748 59.5831 29.7543 59.6655 29.7601C59.7478 29.766 59.8262 29.7979 59.8892 29.8512C60.0666 29.9722 60.275 30.0399 60.4897 30.0461C60.7044 30.0524 60.9163 29.9969 61.1004 29.8863C61.2845 29.7758 61.4331 29.6148 61.5284 29.4223C61.6238 29.2299 61.662 29.0142 61.6385 28.8007C61.6059 28.5191 61.4686 28.2601 61.2538 28.075C61.0391 27.8899 60.7626 27.7923 60.4792 27.8016C60.1959 27.811 59.9263 27.9265 59.7242 28.1253C59.5221 28.3241 59.4021 28.5916 59.388 28.8748C59.3914 28.9356 59.375 28.9959 59.3411 29.0465C59.3071 29.0971 59.2576 29.1353 59.2001 29.1553C58.5699 29.444 57.9421 29.7372 57.3168 30.0348C57.2645 30.0685 57.202 30.0827 57.1402 30.0749C57.0785 30.067 57.0215 30.0376 56.9793 29.9918C56.8915 29.9077 56.7876 29.842 56.6739 29.7987C56.5602 29.7555 56.439 29.7356 56.3174 29.7402Z" fill="white"/>
<path d="M11.1143 56.7053V49.5471H13.5801C14.1367 49.5471 14.5615 49.5813 14.8545 49.6497C15.2646 49.7441 15.6146 49.915 15.9043 50.1624C16.2819 50.4814 16.5635 50.8899 16.749 51.3879C16.9378 51.8827 17.0322 52.4491 17.0322 53.0872C17.0322 53.6308 16.9688 54.1125 16.8418 54.5325C16.7148 54.9524 16.5521 55.3007 16.3535 55.5774C16.1549 55.8508 15.9368 56.0673 15.6992 56.2268C15.4648 56.3831 15.18 56.5019 14.8447 56.5833C14.5127 56.6646 14.1302 56.7053 13.6973 56.7053H11.1143ZM12.0615 55.8606H13.5898C14.0618 55.8606 14.4313 55.8167 14.6982 55.7288C14.9684 55.6409 15.1833 55.5172 15.3428 55.3577C15.5674 55.1331 15.7415 54.8319 15.8652 54.4543C15.9922 54.0735 16.0557 53.6129 16.0557 53.0725C16.0557 52.3238 15.932 51.7493 15.6846 51.3489C15.4404 50.9452 15.1426 50.675 14.791 50.5383C14.5371 50.4407 14.1286 50.3918 13.5654 50.3918H12.0615V55.8606ZM18.2334 50.5579V49.5471H19.1123V50.5579H18.2334ZM18.2334 56.7053V51.5198H19.1123V56.7053H18.2334ZM20.1035 55.1575L20.9727 55.0208C21.0215 55.3691 21.1566 55.636 21.3779 55.8215C21.6025 56.0071 21.915 56.0999 22.3154 56.0999C22.7191 56.0999 23.0186 56.0185 23.2139 55.8557C23.4092 55.6897 23.5068 55.496 23.5068 55.2747C23.5068 55.0761 23.4206 54.9198 23.248 54.8059C23.1276 54.7278 22.8281 54.6285 22.3496 54.5081C21.7051 54.3453 21.2575 54.2053 21.0068 54.0881C20.7594 53.9677 20.5706 53.8033 20.4404 53.595C20.3135 53.3834 20.25 53.1506 20.25 52.8967C20.25 52.6656 20.3021 52.4524 20.4062 52.2571C20.5137 52.0585 20.6585 51.8941 20.8408 51.7639C20.9775 51.663 21.1631 51.5784 21.3975 51.51C21.6351 51.4384 21.889 51.4026 22.1592 51.4026C22.5661 51.4026 22.9225 51.4612 23.2285 51.5784C23.5378 51.6956 23.7656 51.8551 23.9121 52.0569C24.0586 52.2555 24.1595 52.5224 24.2148 52.8577L23.3555 52.9749C23.3164 52.7079 23.2025 52.4996 23.0137 52.3499C22.8281 52.2001 22.5645 52.1252 22.2227 52.1252C21.819 52.1252 21.5309 52.192 21.3584 52.3254C21.1859 52.4589 21.0996 52.6152 21.0996 52.7942C21.0996 52.9081 21.1354 53.0107 21.207 53.1018C21.2786 53.1962 21.391 53.2743 21.5439 53.3362C21.6318 53.3687 21.8906 53.4436 22.3203 53.5608C22.9421 53.7268 23.375 53.8635 23.6191 53.9709C23.8665 54.0751 24.0602 54.2281 24.2002 54.4299C24.3402 54.6318 24.4102 54.8824 24.4102 55.1819C24.4102 55.4749 24.3239 55.7515 24.1514 56.012C23.9821 56.2691 23.7363 56.4693 23.4141 56.6125C23.0918 56.7525 22.7272 56.8225 22.3203 56.8225C21.6465 56.8225 21.1322 56.6825 20.7773 56.4026C20.4258 56.1226 20.2012 55.7076 20.1035 55.1575ZM27.374 55.9192L27.501 56.6956C27.2536 56.7476 27.0322 56.7737 26.8369 56.7737C26.5179 56.7737 26.2705 56.7232 26.0947 56.6223C25.9189 56.5214 25.7952 56.3896 25.7236 56.2268C25.652 56.0608 25.6162 55.7141 25.6162 55.1868V52.2034H24.9717V51.5198H25.6162V50.2356L26.4902 49.7083V51.5198H27.374V52.2034H26.4902V55.2356C26.4902 55.4862 26.5049 55.6474 26.5342 55.719C26.5667 55.7906 26.6172 55.8476 26.6855 55.8899C26.7572 55.9322 26.8581 55.9534 26.9883 55.9534C27.0859 55.9534 27.2145 55.942 27.374 55.9192ZM28.2285 56.7053V51.5198H29.0195V52.3059C29.2214 51.9381 29.4069 51.6956 29.5762 51.5784C29.7487 51.4612 29.9375 51.4026 30.1426 51.4026C30.4388 51.4026 30.7399 51.497 31.0459 51.6858L30.7432 52.5012C30.5283 52.3743 30.3135 52.3108 30.0986 52.3108C29.9066 52.3108 29.734 52.3694 29.5811 52.4866C29.4281 52.6005 29.319 52.76 29.2539 52.9651C29.1562 53.2776 29.1074 53.6194 29.1074 53.9905V56.7053H28.2285ZM31.5732 50.5579V49.5471H32.4521V50.5579H31.5732ZM31.5732 56.7053V51.5198H32.4521V56.7053H31.5732ZM34.6055 56.7053H33.79V49.5471H34.6689V52.1008C35.04 51.6353 35.5137 51.4026 36.0898 51.4026C36.4089 51.4026 36.71 51.4677 36.9932 51.5979C37.2796 51.7249 37.514 51.9055 37.6963 52.1399C37.8818 52.371 38.0267 52.651 38.1309 52.9797C38.235 53.3085 38.2871 53.6601 38.2871 54.0344C38.2871 54.9231 38.0674 55.6099 37.6279 56.095C37.1885 56.58 36.6611 56.8225 36.0459 56.8225C35.4339 56.8225 34.9538 56.567 34.6055 56.0559V56.7053ZM34.5957 54.0735C34.5957 54.6952 34.6803 55.1444 34.8496 55.4211C35.1263 55.8736 35.5007 56.0999 35.9727 56.0999C36.3568 56.0999 36.6888 55.9338 36.9688 55.6018C37.2487 55.2665 37.3887 54.7685 37.3887 54.1077C37.3887 53.4306 37.2536 52.9309 36.9834 52.6086C36.7165 52.2864 36.3926 52.1252 36.0117 52.1252C35.6276 52.1252 35.2956 52.2929 35.0156 52.6282C34.7357 52.9602 34.5957 53.442 34.5957 54.0735ZM42.7598 56.7053V55.9436C42.3561 56.5295 41.8076 56.8225 41.1143 56.8225C40.8083 56.8225 40.5218 56.7639 40.2549 56.6467C39.9912 56.5295 39.7943 56.3831 39.6641 56.2073C39.5371 56.0282 39.4476 55.8101 39.3955 55.553C39.3597 55.3805 39.3418 55.107 39.3418 54.7327V51.5198H40.2207V54.3958C40.2207 54.8547 40.2386 55.164 40.2744 55.3235C40.3298 55.5546 40.4469 55.7369 40.626 55.8704C40.805 56.0006 41.0264 56.0657 41.29 56.0657C41.5537 56.0657 41.8011 55.9989 42.0322 55.8655C42.2633 55.7288 42.4261 55.5448 42.5205 55.3137C42.6182 55.0793 42.667 54.7408 42.667 54.2981V51.5198H43.5459V56.7053H42.7598ZM46.8467 55.9192L46.9736 56.6956C46.7262 56.7476 46.5049 56.7737 46.3096 56.7737C45.9906 56.7737 45.7432 56.7232 45.5674 56.6223C45.3916 56.5214 45.2679 56.3896 45.1963 56.2268C45.1247 56.0608 45.0889 55.7141 45.0889 55.1868V52.2034H44.4443V51.5198H45.0889V50.2356L45.9629 49.7083V51.5198H46.8467V52.2034H45.9629V55.2356C45.9629 55.4862 45.9775 55.6474 46.0068 55.719C46.0394 55.7906 46.0898 55.8476 46.1582 55.8899C46.2298 55.9322 46.3307 55.9534 46.4609 55.9534C46.5586 55.9534 46.6872 55.942 46.8467 55.9192ZM47.7158 50.5579V49.5471H48.5947V50.5579H47.7158ZM47.7158 56.7053V51.5198H48.5947V56.7053H47.7158ZM49.6104 54.1125C49.6104 53.1523 49.8773 52.441 50.4111 51.9788C50.8571 51.5946 51.4007 51.4026 52.042 51.4026C52.7549 51.4026 53.3376 51.637 53.79 52.1057C54.2425 52.5712 54.4688 53.2157 54.4688 54.0393C54.4688 54.7066 54.3678 55.2323 54.166 55.6165C53.9674 55.9973 53.6761 56.2935 53.292 56.5051C52.9111 56.7167 52.4945 56.8225 52.042 56.8225C51.3161 56.8225 50.7285 56.5898 50.2793 56.1243C49.8333 55.6588 49.6104 54.9882 49.6104 54.1125ZM50.5137 54.1125C50.5137 54.7766 50.6585 55.2747 50.9482 55.6067C51.238 55.9355 51.6025 56.0999 52.042 56.0999C52.4782 56.0999 52.8411 55.9338 53.1309 55.6018C53.4206 55.2698 53.5654 54.7636 53.5654 54.0833C53.5654 53.442 53.4189 52.9569 53.126 52.6282C52.8363 52.2961 52.4749 52.1301 52.042 52.1301C51.6025 52.1301 51.238 52.2945 50.9482 52.6233C50.6585 52.9521 50.5137 53.4485 50.5137 54.1125ZM55.5039 56.7053V51.5198H56.2949V52.2571C56.6758 51.6874 57.2259 51.4026 57.9453 51.4026C58.2578 51.4026 58.5443 51.4596 58.8047 51.5735C59.0684 51.6842 59.2653 51.8306 59.3955 52.0129C59.5257 52.1952 59.6169 52.4117 59.6689 52.6624C59.7015 52.8251 59.7178 53.1099 59.7178 53.5168V56.7053H58.8389V53.551C58.8389 53.193 58.8047 52.926 58.7363 52.7502C58.668 52.5712 58.5459 52.4296 58.3701 52.3254C58.1976 52.218 57.9941 52.1643 57.7598 52.1643C57.3854 52.1643 57.0615 52.2831 56.7881 52.5208C56.5179 52.7584 56.3828 53.2092 56.3828 53.8733V56.7053H55.5039ZM63.6436 54.4055L64.5371 54.3274C64.5794 54.6855 64.6771 54.9801 64.8301 55.2112C64.9863 55.439 65.2272 55.6246 65.5527 55.7678C65.8783 55.9078 66.2445 55.9778 66.6514 55.9778C67.0127 55.9778 67.3317 55.9241 67.6084 55.8167C67.8851 55.7092 68.0902 55.5627 68.2236 55.3772C68.3604 55.1884 68.4287 54.9833 68.4287 54.762C68.4287 54.5374 68.3636 54.342 68.2334 54.176C68.1032 54.0068 67.8883 53.8652 67.5889 53.7512C67.3968 53.6764 66.972 53.5608 66.3145 53.4045C65.6569 53.245 65.1963 53.0953 64.9326 52.9553C64.5908 52.7763 64.3353 52.5549 64.166 52.2913C64 52.0243 63.917 51.7265 63.917 51.3977C63.917 51.0364 64.0195 50.6995 64.2246 50.387C64.4297 50.0712 64.7292 49.8319 65.123 49.6692C65.5169 49.5064 65.9548 49.425 66.4365 49.425C66.9671 49.425 67.4342 49.5113 67.8379 49.6838C68.2448 49.8531 68.5573 50.1038 68.7754 50.4358C68.9935 50.7678 69.1107 51.1438 69.127 51.5637L68.2188 51.6321C68.1699 51.1796 68.0039 50.8378 67.7207 50.6067C67.4408 50.3756 67.0257 50.26 66.4756 50.26C65.9027 50.26 65.4844 50.3658 65.2207 50.5774C64.9603 50.7857 64.8301 51.038 64.8301 51.3342C64.8301 51.5914 64.9229 51.803 65.1084 51.969C65.2907 52.135 65.766 52.3059 66.5342 52.4817C67.3057 52.6542 67.8346 52.8056 68.1211 52.9358C68.5378 53.1278 68.8454 53.372 69.0439 53.6682C69.2425 53.9612 69.3418 54.2997 69.3418 54.6838C69.3418 55.0647 69.2327 55.4244 69.0146 55.7629C68.7965 56.0982 68.4824 56.3603 68.0723 56.5491C67.6654 56.7346 67.2064 56.8274 66.6953 56.8274C66.0475 56.8274 65.5039 56.733 65.0645 56.5442C64.6283 56.3554 64.2848 56.0722 64.0342 55.6946C63.7868 55.3137 63.6566 54.884 63.6436 54.4055ZM74.0732 55.0354L74.9814 55.1477C74.8382 55.6783 74.5729 56.0901 74.1855 56.3831C73.7982 56.676 73.3034 56.8225 72.7012 56.8225C71.9427 56.8225 71.3405 56.5898 70.8945 56.1243C70.4518 55.6555 70.2305 54.9996 70.2305 54.1565C70.2305 53.2841 70.4551 52.607 70.9043 52.1252C71.3535 51.6435 71.9362 51.4026 72.6523 51.4026C73.3457 51.4026 73.9121 51.6386 74.3516 52.1106C74.791 52.5826 75.0107 53.2467 75.0107 54.1028C75.0107 54.1549 75.0091 54.233 75.0059 54.3372H71.1387C71.1712 54.9068 71.3324 55.343 71.6221 55.6458C71.9118 55.9485 72.2731 56.0999 72.7061 56.0999C73.0283 56.0999 73.3034 56.0152 73.5312 55.8459C73.7591 55.6767 73.9398 55.4065 74.0732 55.0354ZM71.1875 53.6145H74.083C74.0439 53.1783 73.9333 52.8512 73.751 52.6331C73.471 52.2945 73.1081 52.1252 72.6621 52.1252C72.2585 52.1252 71.9183 52.2603 71.6416 52.5305C71.3682 52.8007 71.2168 53.162 71.1875 53.6145ZM76.0801 56.7053V51.5198H76.8711V52.3059C77.0729 51.9381 77.2585 51.6956 77.4277 51.5784C77.6003 51.4612 77.7891 51.4026 77.9941 51.4026C78.2904 51.4026 78.5915 51.497 78.8975 51.6858L78.5947 52.5012C78.3799 52.3743 78.165 52.3108 77.9502 52.3108C77.7581 52.3108 77.5856 52.3694 77.4326 52.4866C77.2796 52.6005 77.1706 52.76 77.1055 52.9651C77.0078 53.2776 76.959 53.6194 76.959 53.9905V56.7053H76.0801ZM80.8604 56.7053L78.8877 51.5198H79.8154L80.9287 54.6252C81.0492 54.9605 81.1598 55.3088 81.2607 55.6702C81.3389 55.3967 81.4479 55.068 81.5879 54.6838L82.7402 51.5198H83.6436L81.6807 56.7053H80.8604ZM87.9697 55.0354L88.8779 55.1477C88.7347 55.6783 88.4694 56.0901 88.082 56.3831C87.6947 56.676 87.1999 56.8225 86.5977 56.8225C85.8392 56.8225 85.237 56.5898 84.791 56.1243C84.3483 55.6555 84.127 54.9996 84.127 54.1565C84.127 53.2841 84.3516 52.607 84.8008 52.1252C85.25 51.6435 85.8327 51.4026 86.5488 51.4026C87.2422 51.4026 87.8086 51.6386 88.248 52.1106C88.6875 52.5826 88.9072 53.2467 88.9072 54.1028C88.9072 54.1549 88.9056 54.233 88.9023 54.3372H85.0352C85.0677 54.9068 85.2288 55.343 85.5186 55.6458C85.8083 55.9485 86.1696 56.0999 86.6025 56.0999C86.9248 56.0999 87.1999 56.0152 87.4277 55.8459C87.6556 55.6767 87.8363 55.4065 87.9697 55.0354ZM85.084 53.6145H87.9795C87.9404 53.1783 87.8298 52.8512 87.6475 52.6331C87.3675 52.2945 87.0046 52.1252 86.5586 52.1252C86.1549 52.1252 85.8148 52.2603 85.5381 52.5305C85.2646 52.8007 85.1133 53.162 85.084 53.6145ZM89.9766 56.7053V51.5198H90.7676V52.3059C90.9694 51.9381 91.1549 51.6956 91.3242 51.5784C91.4967 51.4612 91.6855 51.4026 91.8906 51.4026C92.1868 51.4026 92.488 51.497 92.7939 51.6858L92.4912 52.5012C92.2764 52.3743 92.0615 52.3108 91.8467 52.3108C91.6546 52.3108 91.4821 52.3694 91.3291 52.4866C91.1761 52.6005 91.0671 52.76 91.002 52.9651C90.9043 53.2776 90.8555 53.6194 90.8555 53.9905V56.7053H89.9766Z" fill="black"/>
</svg>
