<svg width="170" height="140" viewBox="0 0 170 140" fill="none" xmlns="http://www.w3.org/2000/svg">
<rect x="0.5" y="0.5" width="169" height="139" rx="9.5" fill="#F5FBFF"/>
<rect x="0.5" y="0.5" width="169" height="139" rx="9.5" stroke="#093F62" stroke-dasharray="4 4"/>
<path d="M34.8555 33.3027C34.8555 33.127 34.8281 32.9707 34.7734 32.834C34.7227 32.6973 34.6309 32.5723 34.498 32.459C34.3652 32.3457 34.1777 32.2363 33.9355 32.1309C33.6973 32.0215 33.3926 31.9102 33.0215 31.7969C32.6152 31.6719 32.2402 31.5332 31.8965 31.3809C31.5566 31.2246 31.2598 31.0449 31.0059 30.8418C30.752 30.6348 30.5547 30.3984 30.4141 30.1328C30.2734 29.8633 30.2031 29.5527 30.2031 29.2012C30.2031 28.8535 30.2754 28.5371 30.4199 28.252C30.5684 27.9668 30.7773 27.7207 31.0469 27.5137C31.3203 27.3027 31.6426 27.1406 32.0137 27.0273C32.3848 26.9102 32.7949 26.8516 33.2441 26.8516C33.877 26.8516 34.4219 26.9688 34.8789 27.2031C35.3398 27.4375 35.6934 27.752 35.9395 28.1465C36.1895 28.541 36.3145 28.9766 36.3145 29.4531H34.8555C34.8555 29.1719 34.7949 28.9238 34.6738 28.709C34.5566 28.4902 34.377 28.3184 34.1348 28.1934C33.8965 28.0684 33.5938 28.0059 33.2266 28.0059C32.8789 28.0059 32.5898 28.0586 32.3594 28.1641C32.1289 28.2695 31.957 28.4121 31.8438 28.5918C31.7305 28.7715 31.6738 28.9746 31.6738 29.2012C31.6738 29.3613 31.7109 29.5078 31.7852 29.6406C31.8594 29.7695 31.9727 29.8906 32.125 30.0039C32.2773 30.1133 32.4688 30.2168 32.6992 30.3145C32.9297 30.4121 33.2012 30.5059 33.5137 30.5957C33.9863 30.7363 34.3984 30.8926 34.75 31.0645C35.1016 31.2324 35.3945 31.4238 35.6289 31.6387C35.8633 31.8535 36.0391 32.0977 36.1562 32.3711C36.2734 32.6406 36.332 32.9473 36.332 33.291C36.332 33.6504 36.2598 33.9746 36.1152 34.2637C35.9707 34.5488 35.7637 34.793 35.4941 34.9961C35.2285 35.1953 34.9082 35.3496 34.5332 35.459C34.1621 35.5645 33.748 35.6172 33.291 35.6172C32.8809 35.6172 32.4766 35.5625 32.0781 35.4531C31.6836 35.3438 31.3242 35.1777 31 34.9551C30.6758 34.7285 30.418 34.4473 30.2266 34.1113C30.0352 33.7715 29.9395 33.375 29.9395 32.9219H31.4102C31.4102 33.1992 31.457 33.4355 31.5508 33.6309C31.6484 33.8262 31.7832 33.9863 31.9551 34.1113C32.127 34.2324 32.3262 34.3223 32.5527 34.3809C32.7832 34.4395 33.0293 34.4688 33.291 34.4688C33.6348 34.4688 33.9219 34.4199 34.1523 34.3223C34.3867 34.2246 34.5625 34.0879 34.6797 33.9121C34.7969 33.7363 34.8555 33.5332 34.8555 33.3027ZM40.2871 35.6172C39.8184 35.6172 39.3945 35.541 39.0156 35.3887C38.6406 35.2324 38.3203 35.0156 38.0547 34.7383C37.793 34.4609 37.5918 34.1348 37.4512 33.7598C37.3105 33.3848 37.2402 32.9805 37.2402 32.5469V32.3125C37.2402 31.8164 37.3125 31.3672 37.457 30.9648C37.6016 30.5625 37.8027 30.2188 38.0605 29.9336C38.3184 29.6445 38.623 29.4238 38.9746 29.2715C39.3262 29.1191 39.707 29.043 40.1172 29.043C40.5703 29.043 40.9668 29.1191 41.3066 29.2715C41.6465 29.4238 41.9277 29.6387 42.1504 29.916C42.377 30.1895 42.5449 30.5156 42.6543 30.8945C42.7676 31.2734 42.8242 31.6914 42.8242 32.1484V32.752H37.9258V31.7383H41.4297V31.627C41.4219 31.373 41.3711 31.1348 41.2773 30.9121C41.1875 30.6895 41.0488 30.5098 40.8613 30.373C40.6738 30.2363 40.4238 30.168 40.1113 30.168C39.877 30.168 39.668 30.2188 39.4844 30.3203C39.3047 30.418 39.1543 30.5605 39.0332 30.748C38.9121 30.9355 38.8184 31.1621 38.752 31.4277C38.6895 31.6895 38.6582 31.9844 38.6582 32.3125V32.5469C38.6582 32.8242 38.6953 33.082 38.7695 33.3203C38.8477 33.5547 38.9609 33.7598 39.1094 33.9355C39.2578 34.1113 39.4375 34.25 39.6484 34.3516C39.8594 34.4492 40.0996 34.498 40.3691 34.498C40.709 34.498 41.0117 34.4297 41.2773 34.293C41.543 34.1562 41.7734 33.9629 41.9688 33.7129L42.7129 34.4336C42.5762 34.6328 42.3984 34.8242 42.1797 35.0078C41.9609 35.1875 41.6934 35.334 41.377 35.4473C41.0645 35.5605 40.7012 35.6172 40.2871 35.6172ZM45.3438 30.3672V35.5H43.9316V29.1602H45.2793L45.3438 30.3672ZM47.2832 29.1191L47.2715 30.4316C47.1855 30.416 47.0918 30.4043 46.9902 30.3965C46.8926 30.3887 46.7949 30.3848 46.6973 30.3848C46.4551 30.3848 46.2422 30.4199 46.0586 30.4902C45.875 30.5566 45.7207 30.6543 45.5957 30.7832C45.4746 30.9082 45.3809 31.0605 45.3145 31.2402C45.248 31.4199 45.209 31.6211 45.1973 31.8438L44.875 31.8672C44.875 31.4688 44.9141 31.0996 44.9922 30.7598C45.0703 30.4199 45.1875 30.1211 45.3438 29.8633C45.5039 29.6055 45.7031 29.4043 45.9414 29.2598C46.1836 29.1152 46.4629 29.043 46.7793 29.043C46.8652 29.043 46.957 29.0508 47.0547 29.0664C47.1562 29.082 47.2324 29.0996 47.2832 29.1191ZM50.3359 34.3809L51.8887 29.1602H53.3535L51.1504 35.5H50.2363L50.3359 34.3809ZM49.1465 29.1602L50.7285 34.4043L50.8047 35.5H49.8906L47.6758 29.1602H49.1465ZM56.9395 35.6172C56.4707 35.6172 56.0469 35.541 55.668 35.3887C55.293 35.2324 54.9727 35.0156 54.707 34.7383C54.4453 34.4609 54.2441 34.1348 54.1035 33.7598C53.9629 33.3848 53.8926 32.9805 53.8926 32.5469V32.3125C53.8926 31.8164 53.9648 31.3672 54.1094 30.9648C54.2539 30.5625 54.4551 30.2188 54.7129 29.9336C54.9707 29.6445 55.2754 29.4238 55.627 29.2715C55.9785 29.1191 56.3594 29.043 56.7695 29.043C57.2227 29.043 57.6191 29.1191 57.959 29.2715C58.2988 29.4238 58.5801 29.6387 58.8027 29.916C59.0293 30.1895 59.1973 30.5156 59.3066 30.8945C59.4199 31.2734 59.4766 31.6914 59.4766 32.1484V32.752H54.5781V31.7383H58.082V31.627C58.0742 31.373 58.0234 31.1348 57.9297 30.9121C57.8398 30.6895 57.7012 30.5098 57.5137 30.373C57.3262 30.2363 57.0762 30.168 56.7637 30.168C56.5293 30.168 56.3203 30.2188 56.1367 30.3203C55.957 30.418 55.8066 30.5605 55.6855 30.748C55.5645 30.9355 55.4707 31.1621 55.4043 31.4277C55.3418 31.6895 55.3105 31.9844 55.3105 32.3125V32.5469C55.3105 32.8242 55.3477 33.082 55.4219 33.3203C55.5 33.5547 55.6133 33.7598 55.7617 33.9355C55.9102 34.1113 56.0898 34.25 56.3008 34.3516C56.5117 34.4492 56.752 34.498 57.0215 34.498C57.3613 34.498 57.6641 34.4297 57.9297 34.293C58.1953 34.1562 58.4258 33.9629 58.6211 33.7129L59.3652 34.4336C59.2285 34.6328 59.0508 34.8242 58.832 35.0078C58.6133 35.1875 58.3457 35.334 58.0293 35.4473C57.7168 35.5605 57.3535 35.6172 56.9395 35.6172ZM61.9961 30.3672V35.5H60.584V29.1602H61.9316L61.9961 30.3672ZM63.9355 29.1191L63.9238 30.4316C63.8379 30.416 63.7441 30.4043 63.6426 30.3965C63.5449 30.3887 63.4473 30.3848 63.3496 30.3848C63.1074 30.3848 62.8945 30.4199 62.7109 30.4902C62.5273 30.5566 62.373 30.6543 62.248 30.7832C62.127 30.9082 62.0332 31.0605 61.9668 31.2402C61.9004 31.4199 61.8613 31.6211 61.8496 31.8438L61.5273 31.8672C61.5273 31.4688 61.5664 31.0996 61.6445 30.7598C61.7227 30.4199 61.8398 30.1211 61.9961 29.8633C62.1562 29.6055 62.3555 29.4043 62.5938 29.2598C62.8359 29.1152 63.1152 29.043 63.4316 29.043C63.5176 29.043 63.6094 29.0508 63.707 29.0664C63.8086 29.082 63.8848 29.0996 63.9355 29.1191ZM69.5195 26.9688V35.5H68.0488V26.9688H69.5195ZM72.6074 30.5137V35.5H71.1953V29.1602H72.5254L72.6074 30.5137ZM72.3555 32.0957L71.8984 32.0898C71.9023 31.6406 71.9648 31.2285 72.0859 30.8535C72.2109 30.4785 72.3828 30.1562 72.6016 29.8867C72.8242 29.6172 73.0898 29.4102 73.3984 29.2656C73.707 29.1172 74.0508 29.043 74.4297 29.043C74.7344 29.043 75.0098 29.0859 75.2559 29.1719C75.5059 29.2539 75.7188 29.3887 75.8945 29.5762C76.0742 29.7637 76.2109 30.0078 76.3047 30.3086C76.3984 30.6055 76.4453 30.9707 76.4453 31.4043V35.5H75.0273V31.3984C75.0273 31.0938 74.9824 30.8535 74.8926 30.6777C74.8066 30.498 74.6797 30.3711 74.5117 30.2969C74.3477 30.2188 74.1426 30.1797 73.8965 30.1797C73.6543 30.1797 73.4375 30.2305 73.2461 30.332C73.0547 30.4336 72.8926 30.5723 72.7598 30.748C72.6309 30.9238 72.5312 31.127 72.4609 31.3574C72.3906 31.5879 72.3555 31.834 72.3555 32.0957ZM79.7969 35.5H78.3848V28.5508C78.3848 28.0781 78.4727 27.6816 78.6484 27.3613C78.8281 27.0371 79.084 26.793 79.416 26.6289C79.748 26.4609 80.1406 26.377 80.5938 26.377C80.7344 26.377 80.873 26.3867 81.0098 26.4062C81.1465 26.4219 81.2793 26.4473 81.4082 26.4824L81.373 27.5723C81.2949 27.5527 81.209 27.5391 81.1152 27.5312C81.0254 27.5234 80.9277 27.5195 80.8223 27.5195C80.6074 27.5195 80.4219 27.5605 80.2656 27.6426C80.1133 27.7207 79.9961 27.8359 79.9141 27.9883C79.8359 28.1406 79.7969 28.3281 79.7969 28.5508V35.5ZM81.1035 29.1602V30.1914H77.4121V29.1602H81.1035ZM83.5469 30.3672V35.5H82.1348V29.1602H83.4824L83.5469 30.3672ZM85.4863 29.1191L85.4746 30.4316C85.3887 30.416 85.2949 30.4043 85.1934 30.3965C85.0957 30.3887 84.998 30.3848 84.9004 30.3848C84.6582 30.3848 84.4453 30.4199 84.2617 30.4902C84.0781 30.5566 83.9238 30.6543 83.7988 30.7832C83.6777 30.9082 83.584 31.0605 83.5176 31.2402C83.4512 31.4199 83.4121 31.6211 83.4004 31.8438L83.0781 31.8672C83.0781 31.4688 83.1172 31.0996 83.1953 30.7598C83.2734 30.4199 83.3906 30.1211 83.5469 29.8633C83.707 29.6055 83.9062 29.4043 84.1445 29.2598C84.3867 29.1152 84.666 29.043 84.9824 29.043C85.0684 29.043 85.1602 29.0508 85.2578 29.0664C85.3594 29.082 85.4355 29.0996 85.4863 29.1191ZM89.7344 34.2285V31.2051C89.7344 30.9785 89.6934 30.7832 89.6113 30.6191C89.5293 30.4551 89.4043 30.3281 89.2363 30.2383C89.0723 30.1484 88.8652 30.1035 88.6152 30.1035C88.3848 30.1035 88.1855 30.1426 88.0176 30.2207C87.8496 30.2988 87.7188 30.4043 87.625 30.5371C87.5312 30.6699 87.4844 30.8203 87.4844 30.9883H86.0781C86.0781 30.7383 86.1387 30.4961 86.2598 30.2617C86.3809 30.0273 86.5566 29.8184 86.7871 29.6348C87.0176 29.4512 87.293 29.3066 87.6133 29.2012C87.9336 29.0957 88.293 29.043 88.6914 29.043C89.168 29.043 89.5898 29.123 89.957 29.2832C90.3281 29.4434 90.6191 29.6855 90.8301 30.0098C91.0449 30.3301 91.1523 30.7324 91.1523 31.2168V34.0352C91.1523 34.3242 91.1719 34.584 91.2109 34.8145C91.2539 35.041 91.3145 35.2383 91.3926 35.4062V35.5H89.9453C89.8789 35.3477 89.8262 35.1543 89.7871 34.9199C89.752 34.6816 89.7344 34.4512 89.7344 34.2285ZM89.9395 31.6445L89.9512 32.5176H88.9375C88.6758 32.5176 88.4453 32.543 88.2461 32.5938C88.0469 32.6406 87.8809 32.7109 87.748 32.8047C87.6152 32.8984 87.5156 33.0117 87.4492 33.1445C87.3828 33.2773 87.3496 33.4277 87.3496 33.5957C87.3496 33.7637 87.3887 33.918 87.4668 34.0586C87.5449 34.1953 87.6582 34.3027 87.8066 34.3809C87.959 34.459 88.1426 34.498 88.3574 34.498C88.6465 34.498 88.8984 34.4395 89.1133 34.3223C89.332 34.2012 89.5039 34.0547 89.6289 33.8828C89.7539 33.707 89.8203 33.541 89.8281 33.3848L90.2852 34.0117C90.2383 34.1719 90.1582 34.3438 90.0449 34.5273C89.9316 34.7109 89.7832 34.8867 89.5996 35.0547C89.4199 35.2188 89.2031 35.3535 88.9492 35.459C88.6992 35.5645 88.4102 35.6172 88.082 35.6172C87.668 35.6172 87.2988 35.5352 86.9746 35.3711C86.6504 35.2031 86.3965 34.9785 86.2129 34.6973C86.0293 34.4121 85.9375 34.0898 85.9375 33.7305C85.9375 33.3945 86 33.0977 86.125 32.8398C86.2539 32.5781 86.4414 32.3594 86.6875 32.1836C86.9375 32.0078 87.2422 31.875 87.6016 31.7852C87.9609 31.6914 88.3711 31.6445 88.832 31.6445H89.9395ZM96.1855 33.7832C96.1855 33.6426 96.1504 33.5156 96.0801 33.4023C96.0098 33.2852 95.875 33.1797 95.6758 33.0859C95.4805 32.9922 95.1914 32.9062 94.8086 32.8281C94.4727 32.7539 94.1641 32.666 93.8828 32.5645C93.6055 32.459 93.3672 32.332 93.168 32.1836C92.9688 32.0352 92.8145 31.8594 92.7051 31.6562C92.5957 31.4531 92.541 31.2188 92.541 30.9531C92.541 30.6953 92.5977 30.4512 92.7109 30.2207C92.8242 29.9902 92.9863 29.7871 93.1973 29.6113C93.4082 29.4355 93.6641 29.2969 93.9648 29.1953C94.2695 29.0938 94.6094 29.043 94.9844 29.043C95.5156 29.043 95.9707 29.1328 96.3496 29.3125C96.7324 29.4883 97.0254 29.7285 97.2285 30.0332C97.4316 30.334 97.5332 30.6738 97.5332 31.0527H96.1211C96.1211 30.8848 96.0781 30.7285 95.9922 30.584C95.9102 30.4355 95.7852 30.3164 95.6172 30.2266C95.4492 30.1328 95.2383 30.0859 94.9844 30.0859C94.7422 30.0859 94.541 30.125 94.3809 30.2031C94.2246 30.2773 94.1074 30.375 94.0293 30.4961C93.9551 30.6172 93.918 30.75 93.918 30.8945C93.918 31 93.9375 31.0957 93.9766 31.1816C94.0195 31.2637 94.0898 31.3398 94.1875 31.4102C94.2852 31.4766 94.418 31.5391 94.5859 31.5977C94.7578 31.6562 94.9727 31.7129 95.2305 31.7676C95.7148 31.8691 96.1309 32 96.4785 32.1602C96.8301 32.3164 97.0996 32.5195 97.2871 32.7695C97.4746 33.0156 97.5684 33.3281 97.5684 33.707C97.5684 33.9883 97.5078 34.2461 97.3867 34.4805C97.2695 34.7109 97.0977 34.9121 96.8711 35.084C96.6445 35.252 96.373 35.3828 96.0566 35.4766C95.7441 35.5703 95.3926 35.6172 95.002 35.6172C94.4277 35.6172 93.9414 35.5156 93.543 35.3125C93.1445 35.1055 92.8418 34.8418 92.6348 34.5215C92.4316 34.1973 92.3301 33.8613 92.3301 33.5137H93.6953C93.7109 33.7754 93.7832 33.9844 93.9121 34.1406C94.0449 34.293 94.209 34.4043 94.4043 34.4746C94.6035 34.541 94.8086 34.5742 95.0195 34.5742C95.2734 34.5742 95.4863 34.541 95.6582 34.4746C95.8301 34.4043 95.9609 34.3105 96.0508 34.1934C96.1406 34.0723 96.1855 33.9355 96.1855 33.7832ZM101.711 29.1602V30.1914H98.1367V29.1602H101.711ZM99.168 27.6074H100.58V33.748C100.58 33.9434 100.607 34.0938 100.662 34.1992C100.721 34.3008 100.801 34.3691 100.902 34.4043C101.004 34.4395 101.123 34.457 101.26 34.457C101.357 34.457 101.451 34.4512 101.541 34.4395C101.631 34.4277 101.703 34.416 101.758 34.4043L101.764 35.4824C101.646 35.5176 101.51 35.5488 101.354 35.5762C101.201 35.6035 101.025 35.6172 100.826 35.6172C100.502 35.6172 100.215 35.5605 99.9648 35.4473C99.7148 35.3301 99.5195 35.1406 99.3789 34.8789C99.2383 34.6172 99.168 34.2695 99.168 33.8359V27.6074ZM104.219 30.3672V35.5H102.807V29.1602H104.154L104.219 30.3672ZM106.158 29.1191L106.146 30.4316C106.061 30.416 105.967 30.4043 105.865 30.3965C105.768 30.3887 105.67 30.3848 105.572 30.3848C105.33 30.3848 105.117 30.4199 104.934 30.4902C104.75 30.5566 104.596 30.6543 104.471 30.7832C104.35 30.9082 104.256 31.0605 104.189 31.2402C104.123 31.4199 104.084 31.6211 104.072 31.8438L103.75 31.8672C103.75 31.4688 103.789 31.0996 103.867 30.7598C103.945 30.4199 104.062 30.1211 104.219 29.8633C104.379 29.6055 104.578 29.4043 104.816 29.2598C105.059 29.1152 105.338 29.043 105.654 29.043C105.74 29.043 105.832 29.0508 105.93 29.0664C106.031 29.082 106.107 29.0996 106.158 29.1191ZM110.857 34.0059V29.1602H112.275V35.5H110.939L110.857 34.0059ZM111.057 32.6875L111.531 32.6758C111.531 33.1016 111.484 33.4941 111.391 33.8535C111.297 34.209 111.152 34.5195 110.957 34.7852C110.762 35.0469 110.512 35.252 110.207 35.4004C109.902 35.5449 109.537 35.6172 109.111 35.6172C108.803 35.6172 108.52 35.5723 108.262 35.4824C108.004 35.3926 107.781 35.2539 107.594 35.0664C107.41 34.8789 107.268 34.6348 107.166 34.334C107.064 34.0332 107.014 33.6738 107.014 33.2559V29.1602H108.426V33.2676C108.426 33.498 108.453 33.6914 108.508 33.8477C108.562 34 108.637 34.123 108.73 34.2168C108.824 34.3105 108.934 34.377 109.059 34.416C109.184 34.4551 109.316 34.4746 109.457 34.4746C109.859 34.4746 110.176 34.3965 110.406 34.2402C110.641 34.0801 110.807 33.8652 110.904 33.5957C111.006 33.3262 111.057 33.0234 111.057 32.6875ZM116.312 34.4922C116.543 34.4922 116.75 34.4473 116.934 34.3574C117.121 34.2637 117.271 34.1348 117.385 33.9707C117.502 33.8066 117.566 33.6172 117.578 33.4023H118.908C118.9 33.8125 118.779 34.1855 118.545 34.5215C118.311 34.8574 118 35.125 117.613 35.3242C117.227 35.5195 116.799 35.6172 116.33 35.6172C115.846 35.6172 115.424 35.5352 115.064 35.3711C114.705 35.2031 114.406 34.9727 114.168 34.6797C113.93 34.3867 113.75 34.0488 113.629 33.666C113.512 33.2832 113.453 32.873 113.453 32.4355V32.2305C113.453 31.793 113.512 31.3828 113.629 31C113.75 30.6133 113.93 30.2734 114.168 29.9805C114.406 29.6875 114.705 29.459 115.064 29.2949C115.424 29.127 115.844 29.043 116.324 29.043C116.832 29.043 117.277 29.1445 117.66 29.3477C118.043 29.5469 118.344 29.8262 118.562 30.1855C118.785 30.541 118.9 30.9551 118.908 31.4277H117.578C117.566 31.1934 117.508 30.9824 117.402 30.7949C117.301 30.6035 117.156 30.4512 116.969 30.3379C116.785 30.2246 116.564 30.168 116.307 30.168C116.021 30.168 115.785 30.2266 115.598 30.3438C115.41 30.457 115.264 30.6133 115.158 30.8125C115.053 31.0078 114.977 31.2285 114.93 31.4746C114.887 31.7168 114.865 31.9688 114.865 32.2305V32.4355C114.865 32.6973 114.887 32.9512 114.93 33.1973C114.973 33.4434 115.047 33.6641 115.152 33.8594C115.262 34.0508 115.41 34.2051 115.598 34.3223C115.785 34.4355 116.023 34.4922 116.312 34.4922ZM122.898 29.1602V30.1914H119.324V29.1602H122.898ZM120.355 27.6074H121.768V33.748C121.768 33.9434 121.795 34.0938 121.85 34.1992C121.908 34.3008 121.988 34.3691 122.09 34.4043C122.191 34.4395 122.311 34.457 122.447 34.457C122.545 34.457 122.639 34.4512 122.729 34.4395C122.818 34.4277 122.891 34.416 122.945 34.4043L122.951 35.4824C122.834 35.5176 122.697 35.5488 122.541 35.5762C122.389 35.6035 122.213 35.6172 122.014 35.6172C121.689 35.6172 121.402 35.5605 121.152 35.4473C120.902 35.3301 120.707 35.1406 120.566 34.8789C120.426 34.6172 120.355 34.2695 120.355 33.8359V27.6074ZM127.803 34.0059V29.1602H129.221V35.5H127.885L127.803 34.0059ZM128.002 32.6875L128.477 32.6758C128.477 33.1016 128.43 33.4941 128.336 33.8535C128.242 34.209 128.098 34.5195 127.902 34.7852C127.707 35.0469 127.457 35.252 127.152 35.4004C126.848 35.5449 126.482 35.6172 126.057 35.6172C125.748 35.6172 125.465 35.5723 125.207 35.4824C124.949 35.3926 124.727 35.2539 124.539 35.0664C124.355 34.8789 124.213 34.6348 124.111 34.334C124.01 34.0332 123.959 33.6738 123.959 33.2559V29.1602H125.371V33.2676C125.371 33.498 125.398 33.6914 125.453 33.8477C125.508 34 125.582 34.123 125.676 34.2168C125.77 34.3105 125.879 34.377 126.004 34.416C126.129 34.4551 126.262 34.4746 126.402 34.4746C126.805 34.4746 127.121 34.3965 127.352 34.2402C127.586 34.0801 127.752 33.8652 127.85 33.5957C127.951 33.3262 128.002 33.0234 128.002 32.6875ZM132.086 30.3672V35.5H130.674V29.1602H132.021L132.086 30.3672ZM134.025 29.1191L134.014 30.4316C133.928 30.416 133.834 30.4043 133.732 30.3965C133.635 30.3887 133.537 30.3848 133.439 30.3848C133.197 30.3848 132.984 30.4199 132.801 30.4902C132.617 30.5566 132.463 30.6543 132.338 30.7832C132.217 30.9082 132.123 31.0605 132.057 31.2402C131.99 31.4199 131.951 31.6211 131.939 31.8438L131.617 31.8672C131.617 31.4688 131.656 31.0996 131.734 30.7598C131.812 30.4199 131.93 30.1211 132.086 29.8633C132.246 29.6055 132.445 29.4043 132.684 29.2598C132.926 29.1152 133.205 29.043 133.521 29.043C133.607 29.043 133.699 29.0508 133.797 29.0664C133.898 29.082 133.975 29.0996 134.025 29.1191ZM137.588 35.6172C137.119 35.6172 136.695 35.541 136.316 35.3887C135.941 35.2324 135.621 35.0156 135.355 34.7383C135.094 34.4609 134.893 34.1348 134.752 33.7598C134.611 33.3848 134.541 32.9805 134.541 32.5469V32.3125C134.541 31.8164 134.613 31.3672 134.758 30.9648C134.902 30.5625 135.104 30.2188 135.361 29.9336C135.619 29.6445 135.924 29.4238 136.275 29.2715C136.627 29.1191 137.008 29.043 137.418 29.043C137.871 29.043 138.268 29.1191 138.607 29.2715C138.947 29.4238 139.229 29.6387 139.451 29.916C139.678 30.1895 139.846 30.5156 139.955 30.8945C140.068 31.2734 140.125 31.6914 140.125 32.1484V32.752H135.227V31.7383H138.73V31.627C138.723 31.373 138.672 31.1348 138.578 30.9121C138.488 30.6895 138.35 30.5098 138.162 30.373C137.975 30.2363 137.725 30.168 137.412 30.168C137.178 30.168 136.969 30.2188 136.785 30.3203C136.605 30.418 136.455 30.5605 136.334 30.748C136.213 30.9355 136.119 31.1621 136.053 31.4277C135.99 31.6895 135.959 31.9844 135.959 32.3125V32.5469C135.959 32.8242 135.996 33.082 136.07 33.3203C136.148 33.5547 136.262 33.7598 136.41 33.9355C136.559 34.1113 136.738 34.25 136.949 34.3516C137.16 34.4492 137.4 34.498 137.67 34.498C138.01 34.498 138.312 34.4297 138.578 34.293C138.844 34.1562 139.074 33.9629 139.27 33.7129L140.014 34.4336C139.877 34.6328 139.699 34.8242 139.48 35.0078C139.262 35.1875 138.994 35.334 138.678 35.4473C138.365 35.5605 138.002 35.6172 137.588 35.6172Z" fill="#1B1464"/>
<mask id="path-3-inside-1_2058_447" fill="white">
<path d="M90.2209 95.9543H65.9332C65.7963 95.9543 65.6934 95.9543 65.6157 95.9467C65.5561 95.946 65.4986 95.928 65.4528 95.8955C65.4148 95.8563 65.3937 95.8072 65.3928 95.7564C65.384 95.6932 65.384 95.6028 65.384 95.4852L65.3706 60.5684C65.3643 60.2552 65.4168 59.9431 65.5261 59.6441C65.6177 59.3958 65.7765 59.1695 65.9895 58.9834C66.2068 58.8013 66.4713 58.6654 66.7616 58.587C67.1114 58.4932 67.4766 58.4482 67.8431 58.4536H87.8143C88.0999 58.4513 88.3848 58.4802 88.6619 58.5395C88.9032 58.5918 89.133 58.6772 89.3422 58.7924C89.5366 58.9003 89.706 59.0379 89.8419 59.1983C89.9808 59.3646 90.0846 59.5503 90.1484 59.7471C90.1711 59.7969 90.1887 59.8483 90.2009 59.9008C90.2135 59.9551 90.2224 60.01 90.2276 60.0652C90.2335 60.1214 90.2357 60.179 90.2372 60.2371C90.2387 60.2953 90.2372 60.3541 90.2372 60.4123L90.2187 95.9543"/>
</mask>
<path d="M90.2209 95.9543H65.9332C65.7963 95.9543 65.6934 95.9543 65.6157 95.9467C65.5561 95.946 65.4986 95.928 65.4528 95.8955C65.4148 95.8563 65.3937 95.8072 65.3928 95.7564C65.384 95.6932 65.384 95.6028 65.384 95.4852L65.3706 60.5684C65.3643 60.2552 65.4168 59.9431 65.5261 59.6441C65.6177 59.3958 65.7765 59.1695 65.9895 58.9834C66.2068 58.8013 66.4713 58.6654 66.7616 58.587C67.1114 58.4932 67.4766 58.4482 67.8431 58.4536H87.8143C88.0999 58.4513 88.3848 58.4802 88.6619 58.5395C88.9032 58.5918 89.133 58.6772 89.3422 58.7924C89.5366 58.9003 89.706 59.0379 89.8419 59.1983C89.9808 59.3646 90.0846 59.5503 90.1484 59.7471C90.1711 59.7969 90.1887 59.8483 90.2009 59.9008C90.2135 59.9551 90.2224 60.01 90.2276 60.0652C90.2335 60.1214 90.2357 60.179 90.2372 60.2371C90.2387 60.2953 90.2372 60.3541 90.2372 60.4123L90.2187 95.9543" fill="#868585"/>
<path d="M65.6157 95.9467L65.7128 94.9514L65.67 94.9473L65.627 94.9468L65.6157 95.9467ZM65.4528 95.8955L64.7346 96.5913L64.7992 96.658L64.8749 96.7116L65.4528 95.8955ZM65.3928 95.7564L66.3927 95.7397L66.3917 95.6782L66.3831 95.6173L65.3928 95.7564ZM65.384 95.4852H66.384L66.384 95.4848L65.384 95.4852ZM65.3706 60.5684L66.3706 60.5681L66.3706 60.5581L66.3704 60.5482L65.3706 60.5684ZM65.5261 59.6441L64.5879 59.2978L64.5869 59.3008L65.5261 59.6441ZM65.9895 58.9834L65.3472 58.2169L65.3393 58.2235L65.3316 58.2303L65.9895 58.9834ZM66.7616 58.587L66.5028 57.621L66.5006 57.6216L66.7616 58.587ZM67.8431 58.4536L67.8285 59.4534L67.8358 59.4536H67.8431V58.4536ZM87.8143 58.4536V59.4536L87.8222 59.4535L87.8143 58.4536ZM88.6619 58.5395L88.8734 57.5622L88.8713 57.5617L88.6619 58.5395ZM89.3422 58.7924L89.8272 57.9179L89.8247 57.9166L89.3422 58.7924ZM89.8419 59.1983L90.6091 58.557L90.6051 58.5522L89.8419 59.1983ZM90.1484 59.7471L89.1971 60.0555L89.2149 60.1104L89.2389 60.1628L90.1484 59.7471ZM90.2009 59.9008L91.175 59.6746L91.1748 59.6739L90.2009 59.9008ZM90.2276 60.0652L89.2318 60.1579L89.2331 60.1698L90.2276 60.0652ZM90.2372 60.4123L91.2372 60.4128V60.4123H90.2372ZM90.2209 95.9543V94.9543H65.9332V95.9543V96.9543H90.2209V95.9543ZM65.9332 95.9543V94.9543C65.8621 94.9543 65.812 94.9543 65.7703 94.9535C65.7505 94.9531 65.7361 94.9527 65.7257 94.9522C65.7152 94.9517 65.7115 94.9513 65.7128 94.9514L65.6157 95.9467L65.5185 96.942C65.6564 96.9554 65.8175 96.9543 65.9332 96.9543V95.9543ZM65.6157 95.9467L65.627 94.9468C65.7577 94.9483 65.9005 94.9872 66.0307 95.0794L65.4528 95.8955L64.8749 96.7116C65.0968 96.8687 65.3545 96.9438 65.6043 96.9466L65.6157 95.9467ZM65.4528 95.8955L66.171 95.1997C66.2957 95.3284 66.389 95.5171 66.3927 95.7397L65.3928 95.7564L64.393 95.7731C64.3984 96.0974 64.534 96.3843 64.7346 96.5913L65.4528 95.8955ZM65.3928 95.7564L66.3831 95.6173C66.3853 95.6328 66.3857 95.6411 66.3856 95.639C66.3855 95.6372 66.3851 95.6305 66.3848 95.6166C66.384 95.5862 66.384 95.5476 66.384 95.4852H65.384H64.384C64.384 95.5693 64.3815 95.7457 64.4026 95.8955L65.3928 95.7564ZM65.384 95.4852L66.384 95.4848L66.3706 60.5681L65.3706 60.5684L64.3706 60.5688L64.384 95.4855L65.384 95.4852ZM65.3706 60.5684L66.3704 60.5482C66.3666 60.3609 66.3978 60.172 66.4653 59.9874L65.5261 59.6441L64.5869 59.3008C64.4357 59.7143 64.3619 60.1495 64.3708 60.5887L65.3706 60.5684ZM65.5261 59.6441L66.4642 59.9903C66.494 59.9098 66.5514 59.8204 66.6474 59.7365L65.9895 58.9834L65.3316 58.2303C65.0015 58.5186 64.7415 58.8819 64.5879 59.2978L65.5261 59.6441ZM65.9895 58.9834L66.6318 59.7498C66.7313 59.6664 66.8637 59.5953 67.0226 59.5523L66.7616 58.587L66.5006 57.6216C66.0789 57.7356 65.6823 57.9361 65.3472 58.2169L65.9895 58.9834ZM66.7616 58.587L67.0204 59.5529C67.28 59.4833 67.5531 59.4494 67.8285 59.4534L67.8431 58.4536L67.8578 57.4537C67.4001 57.447 66.9428 57.5031 66.5028 57.621L66.7616 58.587ZM67.8431 58.4536V59.4536H87.8143V58.4536V57.4536H67.8431V58.4536ZM87.8143 58.4536L87.8222 59.4535C88.0354 59.4518 88.2474 59.4734 88.4525 59.5174L88.6619 58.5395L88.8713 57.5617C88.5222 57.4869 88.1645 57.4508 87.8064 57.4536L87.8143 58.4536ZM88.6619 58.5395L88.4504 59.5169C88.6001 59.5493 88.7382 59.6014 88.8597 59.6683L89.3422 58.7924L89.8247 57.9166C89.5278 57.7529 89.2063 57.6342 88.8734 57.5622L88.6619 58.5395ZM89.3422 58.7924L88.8572 59.6669C88.952 59.7195 89.0254 59.7816 89.0787 59.8445L89.8419 59.1983L90.6051 58.5522C90.3867 58.2942 90.1213 58.081 89.8272 57.9179L89.3422 58.7924ZM89.8419 59.1983L89.0746 59.8397C89.1354 59.9124 89.1746 59.9861 89.1971 60.0555L90.1484 59.7471L91.0996 59.4388C90.9945 59.1145 90.8262 58.8167 90.6091 58.557L89.8419 59.1983ZM90.1484 59.7471L89.2389 60.1628C89.2344 60.153 89.2302 60.1412 89.227 60.1276L90.2009 59.9008L91.1748 59.6739C91.1473 59.5555 91.1079 59.4409 91.0579 59.3315L90.1484 59.7471ZM90.2009 59.9008L89.2268 60.1269C89.2293 60.1376 89.2309 60.1479 89.2319 60.1579L90.2276 60.0652L91.2233 59.9724C91.2139 59.872 91.1978 59.7726 91.175 59.6746L90.2009 59.9008ZM90.2276 60.0652L89.2331 60.1698C89.2346 60.1848 89.2362 60.2097 89.2375 60.2626L90.2372 60.2371L91.2369 60.2117C91.2353 60.1483 91.2323 60.058 91.2221 59.9605L90.2276 60.0652ZM90.2372 60.2371L89.2375 60.2626C89.2386 60.3059 89.2372 60.3182 89.2372 60.4123H90.2372H91.2372C91.2372 60.39 91.2387 60.2847 91.2369 60.2117L90.2372 60.2371ZM90.2372 60.4123L89.2372 60.4117L89.2187 95.9538L90.2187 95.9543L91.2187 95.9548L91.2372 60.4128L90.2372 60.4123Z" fill="#919191" mask="url(#path-3-inside-1_2058_447)"/>
<path d="M68.3574 63.2109H87.3084V65.8759H68.3574V63.2109Z" fill="white"/>
<path d="M68.363 79.6672H87.3052V82.3322H68.363V79.6672Z" fill="white"/>
<path d="M68.366 85.2307H87.3051V87.8957H68.366V85.2307Z" fill="white"/>
<mask id="path-8-inside-2_2058_447" fill="white">
<path d="M104.92 95.9543H80.6325C80.4955 95.9543 80.3926 95.9543 80.3149 95.9454C80.2553 95.9446 80.1979 95.9235 80.152 95.8854C80.1141 95.8396 80.0929 95.7821 80.0921 95.7226C80.0832 95.6486 80.0832 95.5427 80.0832 95.405L80.0698 54.5226C80.0635 54.1559 80.116 53.7905 80.2253 53.4403C80.3169 53.1497 80.4757 52.8847 80.6887 52.6667C80.906 52.4535 81.1706 52.2945 81.4608 52.2026C81.8106 52.0929 82.1758 52.0401 82.5424 52.0464H102.513C102.799 52.0438 103.084 52.0776 103.361 52.1471C103.602 52.2082 103.832 52.3082 104.041 52.4432C104.236 52.5694 104.405 52.7306 104.541 52.9184C104.68 53.1131 104.784 53.3305 104.848 53.561C104.87 53.6193 104.888 53.6795 104.9 53.7409C104.913 53.8045 104.922 53.8687 104.927 53.9334C104.933 53.9992 104.935 54.0666 104.936 54.1347C104.938 54.2028 104.936 54.2717 104.936 54.3398L104.918 95.9543"/>
</mask>
<path d="M104.92 95.9543H80.6325C80.4955 95.9543 80.3926 95.9543 80.3149 95.9454C80.2553 95.9446 80.1979 95.9235 80.152 95.8854C80.1141 95.8396 80.0929 95.7821 80.0921 95.7226C80.0832 95.6486 80.0832 95.5427 80.0832 95.405L80.0698 54.5226C80.0635 54.1559 80.116 53.7905 80.2253 53.4403C80.3169 53.1497 80.4757 52.8847 80.6887 52.6667C80.906 52.4535 81.1706 52.2945 81.4608 52.2026C81.8106 52.0929 82.1758 52.0401 82.5424 52.0464H102.513C102.799 52.0438 103.084 52.0776 103.361 52.1471C103.602 52.2082 103.832 52.3082 104.041 52.4432C104.236 52.5694 104.405 52.7306 104.541 52.9184C104.68 53.1131 104.784 53.3305 104.848 53.561C104.87 53.6193 104.888 53.6795 104.9 53.7409C104.913 53.8045 104.922 53.8687 104.927 53.9334C104.933 53.9992 104.935 54.0666 104.936 54.1347C104.938 54.2028 104.936 54.2717 104.936 54.3398L104.918 95.9543" fill="#1DC39F"/>
<path d="M80.3149 95.9454L80.4284 94.9519L80.3785 94.9462L80.3282 94.9455L80.3149 95.9454ZM80.152 95.8854L79.3816 96.523L79.4414 96.5953L79.5137 96.6552L80.152 95.8854ZM80.0921 95.7226L81.092 95.7083L81.0912 95.6557L81.0849 95.6034L80.0921 95.7226ZM80.0832 95.405H81.0832L81.0832 95.4047L80.0832 95.405ZM80.0698 54.5226L81.0698 54.5223L81.0698 54.5138L81.0697 54.5053L80.0698 54.5226ZM80.2253 53.4403L79.2716 53.1397L79.2707 53.1423L80.2253 53.4403ZM80.6887 52.6667L79.9883 51.953L79.9809 51.9603L79.9736 51.9677L80.6887 52.6667ZM81.4608 52.2026L81.1615 51.2484L81.159 51.2492L81.4608 52.2026ZM82.5424 52.0464L82.5252 53.0463L82.5338 53.0464H82.5424V52.0464ZM102.513 52.0464V53.0464L102.523 53.0464L102.513 52.0464ZM103.361 52.1471L103.607 51.1777L103.604 51.1771L103.361 52.1471ZM104.041 52.4432L104.586 51.6045L104.583 51.6029L104.041 52.4432ZM104.541 52.9184L105.355 52.3374L105.351 52.3325L104.541 52.9184ZM104.848 53.561L103.884 53.8278L103.897 53.877L103.916 53.9246L104.848 53.561ZM104.9 53.7409L105.881 53.5464L105.881 53.5458L104.9 53.7409ZM104.927 53.9334L103.93 54.0127L103.931 54.0229L104.927 53.9334ZM104.936 54.3398L105.936 54.3402V54.3398H104.936ZM104.92 95.9543V94.9543H80.6325V95.9543V96.9543H104.92V95.9543ZM80.6325 95.9543V94.9543C80.5608 94.9543 80.5124 94.9542 80.4726 94.9534C80.4319 94.9525 80.4222 94.9512 80.4284 94.9519L80.3149 95.9454L80.2013 96.9389C80.3493 96.9559 80.5203 96.9543 80.6325 96.9543V95.9543ZM80.3149 95.9454L80.3282 94.9455C80.4971 94.9477 80.6602 95.0078 80.7903 95.1157L80.152 95.8854L79.5137 96.6552C79.7355 96.8391 80.0136 96.9415 80.3016 96.9453L80.3149 95.9454ZM80.152 95.8854L80.9225 95.2479C81.0298 95.3776 81.0896 95.54 81.092 95.7083L80.0921 95.7226L79.0922 95.7369C79.0963 96.0242 79.1984 96.3016 79.3816 96.523L80.152 95.8854ZM80.0921 95.7226L81.0849 95.6034C81.0864 95.6156 81.085 95.6094 81.0841 95.5667C81.0832 95.5264 81.0832 95.477 81.0832 95.405H80.0832H79.0832C79.0832 95.514 79.0814 95.6934 79.0992 95.8417L80.0921 95.7226ZM80.0832 95.405L81.0832 95.4047L81.0698 54.5223L80.0698 54.5226L79.0698 54.5229L79.0832 95.4053L80.0832 95.405ZM80.0698 54.5226L81.0697 54.5053C81.0652 54.2454 81.1024 53.9865 81.1799 53.7383L80.2253 53.4403L79.2707 53.1423C79.1296 53.5945 79.0618 54.0663 79.07 54.5399L80.0698 54.5226ZM80.2253 53.4403L81.179 53.741C81.2235 53.6 81.3005 53.4715 81.4038 53.3658L80.6887 52.6667L79.9736 51.9677C79.6509 52.2979 79.4104 52.6993 79.2716 53.1397L80.2253 53.4403ZM80.6887 52.6667L81.3891 53.3805C81.4942 53.2774 81.6222 53.2004 81.7627 53.156L81.4608 52.2026L81.159 51.2492C80.7189 51.3886 80.3178 51.6297 79.9883 51.953L80.6887 52.6667ZM81.4608 52.2026L81.7601 53.1567C82.0076 53.0791 82.2659 53.0418 82.5252 53.0463L82.5424 52.0464L82.5595 51.0465C82.0857 51.0384 81.6137 51.1066 81.1615 51.2484L81.4608 52.2026ZM82.5424 52.0464V53.0464H102.513V52.0464V51.0464H82.5424V52.0464ZM102.513 52.0464L102.523 53.0464C102.723 53.0445 102.923 53.0683 103.118 53.117L103.361 52.1471L103.604 51.1771C103.245 51.0869 102.875 51.043 102.504 51.0464L102.513 52.0464ZM103.361 52.1471L103.115 53.1164C103.252 53.1509 103.381 53.2074 103.499 53.2835L104.041 52.4432L104.583 51.6029C104.283 51.4091 103.953 51.2655 103.607 51.1777L103.361 52.1471ZM104.041 52.4432L103.497 53.2819C103.588 53.341 103.667 53.4164 103.731 53.5044L104.541 52.9184L105.351 52.3325C105.143 52.0447 104.884 51.7979 104.586 51.6045L104.041 52.4432ZM104.541 52.9184L103.727 53.4995C103.798 53.5989 103.851 53.7101 103.884 53.8278L104.848 53.561L105.811 53.2942C105.716 52.951 105.562 52.6272 105.355 52.3374L104.541 52.9184ZM104.848 53.561L103.916 53.9246C103.917 53.9283 103.919 53.9321 103.919 53.936L104.9 53.7409L105.881 53.5458C105.857 53.4269 105.823 53.3103 105.779 53.1974L104.848 53.561ZM104.9 53.7409L103.919 53.9354C103.924 53.9609 103.928 53.9867 103.93 54.0127L104.927 53.9334L105.924 53.854C105.915 53.7507 105.901 53.648 105.881 53.5464L104.9 53.7409ZM104.927 53.9334L103.931 54.0229C103.934 54.0534 103.935 54.0928 103.937 54.1564L104.936 54.1347L105.936 54.113C105.935 54.0404 105.932 53.9451 105.923 53.8438L104.927 53.9334ZM104.936 54.1347L103.937 54.1564C103.938 54.2119 103.936 54.241 103.936 54.3398H104.936H105.936C105.936 54.3024 105.938 54.1938 105.936 54.113L104.936 54.1347ZM104.936 54.3398L103.936 54.3393L103.918 95.9538L104.918 95.9543L105.918 95.9547L105.936 54.3402L104.936 54.3398Z" fill="#13856C" mask="url(#path-8-inside-2_2058_447)"/>
<path d="M83.0566 58.2109H102.008V60.8759H83.0566V58.2109Z" fill="white"/>
<path d="M83.0623 79.6672H102.004V82.3322H83.0623V79.6672Z" fill="white"/>
<path d="M83.0652 85.2307H102.004V87.8957H83.0652V85.2307Z" fill="white"/>
<path d="M66.435 106.32V113.5H65.505V108.39C65.505 108.313 65.5067 108.232 65.51 108.145C65.5167 108.058 65.5233 107.97 65.53 107.88L63.14 112.265C63.0567 112.428 62.9283 112.51 62.755 112.51H62.605C62.4317 112.51 62.305 112.428 62.225 112.265L59.79 107.865C59.81 108.052 59.82 108.227 59.82 108.39V113.5H58.885V106.32H59.675C59.7683 106.32 59.84 106.33 59.89 106.35C59.9433 106.367 59.9933 106.417 60.04 106.5L62.44 110.8C62.4867 110.887 62.53 110.978 62.57 111.075C62.61 111.172 62.6483 111.268 62.685 111.365C62.755 111.168 62.8367 110.978 62.93 110.795L65.285 106.5C65.3283 106.417 65.375 106.367 65.425 106.35C65.4783 106.33 65.5517 106.32 65.645 106.32H66.435ZM70.5947 111.245C70.198 111.258 69.8614 111.29 69.5847 111.34C69.308 111.387 69.083 111.45 68.9097 111.53C68.7364 111.61 68.6114 111.705 68.5347 111.815C68.458 111.922 68.4197 112.042 68.4197 112.175C68.4197 112.302 68.4397 112.412 68.4797 112.505C68.523 112.595 68.5797 112.67 68.6497 112.73C68.723 112.787 68.808 112.828 68.9047 112.855C69.0014 112.882 69.1064 112.895 69.2197 112.895C69.3697 112.895 69.5064 112.88 69.6297 112.85C69.7564 112.82 69.8747 112.778 69.9847 112.725C70.0947 112.668 70.1997 112.6 70.2997 112.52C70.3997 112.44 70.498 112.348 70.5947 112.245V111.245ZM67.7347 109.13C68.018 108.86 68.3247 108.658 68.6547 108.525C68.988 108.392 69.353 108.325 69.7497 108.325C70.0397 108.325 70.2964 108.373 70.5197 108.47C70.743 108.563 70.9314 108.695 71.0847 108.865C71.238 109.035 71.353 109.238 71.4297 109.475C71.5097 109.712 71.5497 109.973 71.5497 110.26V113.5H71.1147C71.018 113.5 70.9447 113.485 70.8947 113.455C70.8447 113.422 70.8047 113.362 70.7747 113.275L70.6697 112.83C70.5397 112.95 70.4114 113.057 70.2847 113.15C70.158 113.24 70.0247 113.318 69.8847 113.385C69.748 113.448 69.6014 113.497 69.4447 113.53C69.288 113.563 69.1147 113.58 68.9247 113.58C68.7247 113.58 68.5364 113.553 68.3597 113.5C68.1864 113.443 68.0347 113.358 67.9047 113.245C67.7747 113.132 67.6714 112.99 67.5947 112.82C67.5214 112.65 67.4847 112.452 67.4847 112.225C67.4847 112.025 67.538 111.833 67.6447 111.65C67.7547 111.463 67.9314 111.297 68.1747 111.15C68.4214 111.003 68.7414 110.883 69.1347 110.79C69.5314 110.697 70.018 110.643 70.5947 110.63V110.26C70.5947 109.877 70.513 109.59 70.3497 109.4C70.1864 109.21 69.9464 109.115 69.6297 109.115C69.4164 109.115 69.2364 109.142 69.0897 109.195C68.9464 109.248 68.8214 109.308 68.7147 109.375C68.6114 109.438 68.5197 109.497 68.4397 109.55C68.363 109.603 68.283 109.63 68.1997 109.63C68.133 109.63 68.0747 109.612 68.0247 109.575C67.978 109.538 67.9397 109.495 67.9097 109.445L67.7347 109.13ZM73.8749 108.42V113.5H72.8999V108.42H73.8749ZM74.0599 106.85C74.0599 106.94 74.0416 107.027 74.0049 107.11C73.9683 107.19 73.9183 107.262 73.8549 107.325C73.7949 107.385 73.7233 107.433 73.6399 107.47C73.5566 107.503 73.4699 107.52 73.3799 107.52C73.2899 107.52 73.2049 107.503 73.1249 107.47C73.0449 107.433 72.9733 107.385 72.9099 107.325C72.8499 107.262 72.8016 107.19 72.7649 107.11C72.7316 107.027 72.7149 106.94 72.7149 106.85C72.7149 106.757 72.7316 106.67 72.7649 106.59C72.8016 106.507 72.8499 106.435 72.9099 106.375C72.9733 106.312 73.0449 106.263 73.1249 106.23C73.2049 106.193 73.2899 106.175 73.3799 106.175C73.4699 106.175 73.5566 106.193 73.6399 106.23C73.7233 106.263 73.7949 106.312 73.8549 106.375C73.9183 106.435 73.9683 106.507 74.0049 106.59C74.0416 106.67 74.0599 106.757 74.0599 106.85ZM76.2016 109.125C76.3116 109.008 76.4266 108.902 76.5466 108.805C76.6666 108.708 76.7932 108.627 76.9266 108.56C77.0632 108.49 77.2082 108.437 77.3616 108.4C77.5182 108.36 77.6849 108.34 77.8616 108.34C78.1416 108.34 78.3866 108.387 78.5966 108.48C78.8099 108.573 78.9882 108.705 79.1316 108.875C79.2749 109.042 79.3832 109.243 79.4566 109.48C79.5299 109.717 79.5666 109.978 79.5666 110.265V113.5H78.5866V110.265C78.5866 109.902 78.5032 109.62 78.3366 109.42C78.1699 109.217 77.9149 109.115 77.5716 109.115C77.3216 109.115 77.0866 109.175 76.8666 109.295C76.6499 109.412 76.4482 109.572 76.2616 109.775V113.5H75.2866V108.42H75.8716C76.0082 108.42 76.0932 108.485 76.1266 108.615L76.2016 109.125ZM87.3266 107.49C87.2932 107.547 87.2582 107.588 87.2216 107.615C87.1849 107.642 87.1382 107.655 87.0816 107.655C87.0216 107.655 86.9532 107.628 86.8766 107.575C86.7999 107.518 86.7032 107.457 86.5866 107.39C86.4732 107.32 86.3366 107.258 86.1766 107.205C86.0166 107.148 85.8249 107.12 85.6016 107.12C85.3916 107.12 85.2066 107.148 85.0466 107.205C84.8899 107.258 84.7582 107.333 84.6516 107.43C84.5449 107.523 84.4632 107.635 84.4066 107.765C84.3532 107.892 84.3266 108.03 84.3266 108.18C84.3266 108.373 84.3749 108.533 84.4716 108.66C84.5716 108.787 84.7016 108.895 84.8616 108.985C85.0216 109.075 85.2032 109.153 85.4066 109.22C85.6099 109.287 85.8182 109.357 86.0316 109.43C86.2449 109.5 86.4532 109.582 86.6566 109.675C86.8599 109.768 87.0416 109.887 87.2016 110.03C87.3616 110.17 87.4899 110.343 87.5866 110.55C87.6866 110.753 87.7366 111.003 87.7366 111.3C87.7366 111.617 87.6816 111.913 87.5716 112.19C87.4649 112.467 87.3082 112.708 87.1016 112.915C86.8949 113.122 86.6399 113.285 86.3366 113.405C86.0366 113.522 85.6949 113.58 85.3116 113.58C85.0816 113.58 84.8582 113.557 84.6416 113.51C84.4249 113.467 84.2199 113.405 84.0266 113.325C83.8332 113.242 83.6516 113.143 83.4816 113.03C83.3149 112.913 83.1649 112.783 83.0316 112.64L83.3366 112.13C83.3666 112.09 83.4016 112.057 83.4416 112.03C83.4849 112.003 83.5332 111.99 83.5866 111.99C83.6566 111.99 83.7366 112.027 83.8266 112.1C83.9199 112.173 84.0332 112.255 84.1666 112.345C84.3032 112.432 84.4649 112.512 84.6516 112.585C84.8416 112.658 85.0716 112.695 85.3416 112.695C85.5616 112.695 85.7582 112.667 85.9316 112.61C86.1049 112.55 86.2499 112.467 86.3666 112.36C86.4866 112.25 86.5782 112.118 86.6416 111.965C86.7049 111.812 86.7366 111.642 86.7366 111.455C86.7366 111.245 86.6882 111.073 86.5916 110.94C86.4949 110.807 86.3666 110.695 86.2066 110.605C86.0466 110.515 85.8649 110.438 85.6616 110.375C85.4582 110.312 85.2499 110.247 85.0366 110.18C84.8232 110.11 84.6149 110.03 84.4116 109.94C84.2082 109.85 84.0266 109.733 83.8666 109.59C83.7066 109.443 83.5782 109.262 83.4816 109.045C83.3849 108.825 83.3366 108.555 83.3366 108.235C83.3366 107.978 83.3866 107.73 83.4866 107.49C83.5866 107.25 83.7316 107.038 83.9216 106.855C84.1149 106.668 84.3516 106.52 84.6316 106.41C84.9116 106.297 85.2316 106.24 85.5916 106.24C85.9949 106.24 86.3649 106.305 86.7016 106.435C87.0416 106.562 87.3366 106.745 87.5866 106.985L87.3266 107.49ZM92.1867 110.395C92.1867 110.202 92.1584 110.023 92.1017 109.86C92.0484 109.697 91.9684 109.555 91.8617 109.435C91.7551 109.315 91.6251 109.222 91.4717 109.155C91.3184 109.088 91.1417 109.055 90.9417 109.055C90.5317 109.055 90.2084 109.173 89.9717 109.41C89.7384 109.647 89.5901 109.975 89.5267 110.395H92.1867ZM92.9917 112.775C92.8717 112.915 92.7334 113.037 92.5767 113.14C92.4201 113.24 92.2534 113.322 92.0767 113.385C91.9001 113.448 91.7167 113.495 91.5267 113.525C91.3401 113.555 91.1551 113.57 90.9717 113.57C90.6217 113.57 90.2967 113.512 89.9967 113.395C89.7001 113.275 89.4417 113.102 89.2217 112.875C89.0051 112.645 88.8351 112.362 88.7117 112.025C88.5917 111.685 88.5317 111.295 88.5317 110.855C88.5317 110.502 88.5867 110.173 88.6967 109.87C88.8067 109.563 88.9634 109.297 89.1667 109.07C89.3734 108.843 89.6251 108.665 89.9217 108.535C90.2184 108.405 90.5517 108.34 90.9217 108.34C91.2317 108.34 91.5167 108.392 91.7767 108.495C92.0401 108.595 92.2667 108.742 92.4567 108.935C92.6467 109.128 92.7951 109.367 92.9017 109.65C93.0117 109.933 93.0667 110.257 93.0667 110.62C93.0667 110.77 93.0501 110.872 93.0167 110.925C92.9834 110.975 92.9217 111 92.8317 111H89.5017C89.5117 111.303 89.5551 111.568 89.6317 111.795C89.7084 112.018 89.8134 112.205 89.9467 112.355C90.0834 112.505 90.2451 112.617 90.4317 112.69C90.6184 112.763 90.8267 112.8 91.0567 112.8C91.2734 112.8 91.4601 112.775 91.6167 112.725C91.7767 112.675 91.9134 112.622 92.0267 112.565C92.1434 112.505 92.2401 112.45 92.3167 112.4C92.3967 112.35 92.4667 112.325 92.5267 112.325C92.6067 112.325 92.6684 112.355 92.7117 112.415L92.9917 112.775ZM95.0347 109.395C95.198 109.062 95.3947 108.8 95.6247 108.61C95.8547 108.42 96.1314 108.325 96.4547 108.325C96.5647 108.325 96.668 108.338 96.7647 108.365C96.8647 108.388 96.9514 108.425 97.0247 108.475L96.9597 109.21C96.9364 109.3 96.8814 109.345 96.7947 109.345C96.748 109.345 96.678 109.337 96.5847 109.32C96.4914 109.3 96.3914 109.29 96.2847 109.29C96.128 109.29 95.9897 109.313 95.8697 109.36C95.7497 109.403 95.6414 109.47 95.5447 109.56C95.4514 109.647 95.368 109.755 95.2947 109.885C95.2214 110.012 95.153 110.157 95.0897 110.32V113.5H94.1147V108.42H94.6747C94.7814 108.42 94.853 108.44 94.8897 108.48C94.9297 108.517 94.958 108.583 94.9747 108.68L95.0347 109.395ZM102.187 108.42L100.127 113.5H99.2468L97.1868 108.42H97.9918C98.0685 108.42 98.1318 108.438 98.1818 108.475C98.2318 108.512 98.2651 108.558 98.2818 108.615L99.4968 111.735C99.5401 111.865 99.5768 111.995 99.6068 112.125C99.6401 112.252 99.6701 112.378 99.6968 112.505C99.7235 112.378 99.7535 112.252 99.7868 112.125C99.8201 111.998 99.8601 111.868 99.9068 111.735L101.137 108.615C101.157 108.558 101.192 108.512 101.242 108.475C101.292 108.438 101.352 108.42 101.422 108.42H102.187ZM106.181 110.395C106.181 110.202 106.153 110.023 106.096 109.86C106.043 109.697 105.963 109.555 105.856 109.435C105.749 109.315 105.619 109.222 105.466 109.155C105.313 109.088 105.136 109.055 104.936 109.055C104.526 109.055 104.203 109.173 103.966 109.41C103.733 109.647 103.584 109.975 103.521 110.395H106.181ZM106.986 112.775C106.866 112.915 106.728 113.037 106.571 113.14C106.414 113.24 106.248 113.322 106.071 113.385C105.894 113.448 105.711 113.495 105.521 113.525C105.334 113.555 105.149 113.57 104.966 113.57C104.616 113.57 104.291 113.512 103.991 113.395C103.694 113.275 103.436 113.102 103.216 112.875C102.999 112.645 102.829 112.362 102.706 112.025C102.586 111.685 102.526 111.295 102.526 110.855C102.526 110.502 102.581 110.173 102.691 109.87C102.801 109.563 102.958 109.297 103.161 109.07C103.368 108.843 103.619 108.665 103.916 108.535C104.213 108.405 104.546 108.34 104.916 108.34C105.226 108.34 105.511 108.392 105.771 108.495C106.034 108.595 106.261 108.742 106.451 108.935C106.641 109.128 106.789 109.367 106.896 109.65C107.006 109.933 107.061 110.257 107.061 110.62C107.061 110.77 107.044 110.872 107.011 110.925C106.978 110.975 106.916 111 106.826 111H103.496C103.506 111.303 103.549 111.568 103.626 111.795C103.703 112.018 103.808 112.205 103.941 112.355C104.078 112.505 104.239 112.617 104.426 112.69C104.613 112.763 104.821 112.8 105.051 112.8C105.268 112.8 105.454 112.775 105.611 112.725C105.771 112.675 105.908 112.622 106.021 112.565C106.138 112.505 106.234 112.45 106.311 112.4C106.391 112.35 106.461 112.325 106.521 112.325C106.601 112.325 106.663 112.355 106.706 112.415L106.986 112.775ZM109.029 109.395C109.192 109.062 109.389 108.8 109.619 108.61C109.849 108.42 110.125 108.325 110.449 108.325C110.559 108.325 110.662 108.338 110.759 108.365C110.859 108.388 110.945 108.425 111.019 108.475L110.954 109.21C110.93 109.3 110.875 109.345 110.789 109.345C110.742 109.345 110.672 109.337 110.579 109.32C110.485 109.3 110.385 109.29 110.279 109.29C110.122 109.29 109.984 109.313 109.864 109.36C109.744 109.403 109.635 109.47 109.539 109.56C109.445 109.647 109.362 109.755 109.289 109.885C109.215 110.012 109.147 110.157 109.084 110.32V113.5H108.109V108.42H108.669C108.775 108.42 108.847 108.44 108.884 108.48C108.924 108.517 108.952 108.583 108.969 108.68L109.029 109.395Z" fill="black"/>
</svg>
