<svg width="170" height="140" viewBox="0 0 170 140" fill="none" xmlns="http://www.w3.org/2000/svg">
<rect x="0.5" y="0.5" width="169" height="139" rx="9.5" fill="#F5FBFF"/>
<rect x="0.5" y="0.5" width="169" height="139" rx="9.5" stroke="#093F62" stroke-dasharray="4 4"/>
<path d="M34.8555 35.8027C34.8555 35.627 34.8281 35.4707 34.7734 35.334C34.7227 35.1973 34.6309 35.0723 34.498 34.959C34.3652 34.8457 34.1777 34.7363 33.9355 34.6309C33.6973 34.5215 33.3926 34.4102 33.0215 34.2969C32.6152 34.1719 32.2402 34.0332 31.8965 33.8809C31.5566 33.7246 31.2598 33.5449 31.0059 33.3418C30.752 33.1348 30.5547 32.8984 30.4141 32.6328C30.2734 32.3633 30.2031 32.0527 30.2031 31.7012C30.2031 31.3535 30.2754 31.0371 30.4199 30.752C30.5684 30.4668 30.7773 30.2207 31.0469 30.0137C31.3203 29.8027 31.6426 29.6406 32.0137 29.5273C32.3848 29.4102 32.7949 29.3516 33.2441 29.3516C33.877 29.3516 34.4219 29.4688 34.8789 29.7031C35.3398 29.9375 35.6934 30.252 35.9395 30.6465C36.1895 31.041 36.3145 31.4766 36.3145 31.9531H34.8555C34.8555 31.6719 34.7949 31.4238 34.6738 31.209C34.5566 30.9902 34.377 30.8184 34.1348 30.6934C33.8965 30.5684 33.5938 30.5059 33.2266 30.5059C32.8789 30.5059 32.5898 30.5586 32.3594 30.6641C32.1289 30.7695 31.957 30.9121 31.8438 31.0918C31.7305 31.2715 31.6738 31.4746 31.6738 31.7012C31.6738 31.8613 31.7109 32.0078 31.7852 32.1406C31.8594 32.2695 31.9727 32.3906 32.125 32.5039C32.2773 32.6133 32.4688 32.7168 32.6992 32.8145C32.9297 32.9121 33.2012 33.0059 33.5137 33.0957C33.9863 33.2363 34.3984 33.3926 34.75 33.5645C35.1016 33.7324 35.3945 33.9238 35.6289 34.1387C35.8633 34.3535 36.0391 34.5977 36.1562 34.8711C36.2734 35.1406 36.332 35.4473 36.332 35.791C36.332 36.1504 36.2598 36.4746 36.1152 36.7637C35.9707 37.0488 35.7637 37.293 35.4941 37.4961C35.2285 37.6953 34.9082 37.8496 34.5332 37.959C34.1621 38.0645 33.748 38.1172 33.291 38.1172C32.8809 38.1172 32.4766 38.0625 32.0781 37.9531C31.6836 37.8438 31.3242 37.6777 31 37.4551C30.6758 37.2285 30.418 36.9473 30.2266 36.6113C30.0352 36.2715 29.9395 35.875 29.9395 35.4219H31.4102C31.4102 35.6992 31.457 35.9355 31.5508 36.1309C31.6484 36.3262 31.7832 36.4863 31.9551 36.6113C32.127 36.7324 32.3262 36.8223 32.5527 36.8809C32.7832 36.9395 33.0293 36.9688 33.291 36.9688C33.6348 36.9688 33.9219 36.9199 34.1523 36.8223C34.3867 36.7246 34.5625 36.5879 34.6797 36.4121C34.7969 36.2363 34.8555 36.0332 34.8555 35.8027ZM40.2871 38.1172C39.8184 38.1172 39.3945 38.041 39.0156 37.8887C38.6406 37.7324 38.3203 37.5156 38.0547 37.2383C37.793 36.9609 37.5918 36.6348 37.4512 36.2598C37.3105 35.8848 37.2402 35.4805 37.2402 35.0469V34.8125C37.2402 34.3164 37.3125 33.8672 37.457 33.4648C37.6016 33.0625 37.8027 32.7188 38.0605 32.4336C38.3184 32.1445 38.623 31.9238 38.9746 31.7715C39.3262 31.6191 39.707 31.543 40.1172 31.543C40.5703 31.543 40.9668 31.6191 41.3066 31.7715C41.6465 31.9238 41.9277 32.1387 42.1504 32.416C42.377 32.6895 42.5449 33.0156 42.6543 33.3945C42.7676 33.7734 42.8242 34.1914 42.8242 34.6484V35.252H37.9258V34.2383H41.4297V34.127C41.4219 33.873 41.3711 33.6348 41.2773 33.4121C41.1875 33.1895 41.0488 33.0098 40.8613 32.873C40.6738 32.7363 40.4238 32.668 40.1113 32.668C39.877 32.668 39.668 32.7188 39.4844 32.8203C39.3047 32.918 39.1543 33.0605 39.0332 33.248C38.9121 33.4355 38.8184 33.6621 38.752 33.9277C38.6895 34.1895 38.6582 34.4844 38.6582 34.8125V35.0469C38.6582 35.3242 38.6953 35.582 38.7695 35.8203C38.8477 36.0547 38.9609 36.2598 39.1094 36.4355C39.2578 36.6113 39.4375 36.75 39.6484 36.8516C39.8594 36.9492 40.0996 36.998 40.3691 36.998C40.709 36.998 41.0117 36.9297 41.2773 36.793C41.543 36.6562 41.7734 36.4629 41.9688 36.2129L42.7129 36.9336C42.5762 37.1328 42.3984 37.3242 42.1797 37.5078C41.9609 37.6875 41.6934 37.834 41.377 37.9473C41.0645 38.0605 40.7012 38.1172 40.2871 38.1172ZM45.3438 32.8672V38H43.9316V31.6602H45.2793L45.3438 32.8672ZM47.2832 31.6191L47.2715 32.9316C47.1855 32.916 47.0918 32.9043 46.9902 32.8965C46.8926 32.8887 46.7949 32.8848 46.6973 32.8848C46.4551 32.8848 46.2422 32.9199 46.0586 32.9902C45.875 33.0566 45.7207 33.1543 45.5957 33.2832C45.4746 33.4082 45.3809 33.5605 45.3145 33.7402C45.248 33.9199 45.209 34.1211 45.1973 34.3438L44.875 34.3672C44.875 33.9688 44.9141 33.5996 44.9922 33.2598C45.0703 32.9199 45.1875 32.6211 45.3438 32.3633C45.5039 32.1055 45.7031 31.9043 45.9414 31.7598C46.1836 31.6152 46.4629 31.543 46.7793 31.543C46.8652 31.543 46.957 31.5508 47.0547 31.5664C47.1562 31.582 47.2324 31.5996 47.2832 31.6191ZM50.3359 36.8809L51.8887 31.6602H53.3535L51.1504 38H50.2363L50.3359 36.8809ZM49.1465 31.6602L50.7285 36.9043L50.8047 38H49.8906L47.6758 31.6602H49.1465ZM56.9395 38.1172C56.4707 38.1172 56.0469 38.041 55.668 37.8887C55.293 37.7324 54.9727 37.5156 54.707 37.2383C54.4453 36.9609 54.2441 36.6348 54.1035 36.2598C53.9629 35.8848 53.8926 35.4805 53.8926 35.0469V34.8125C53.8926 34.3164 53.9648 33.8672 54.1094 33.4648C54.2539 33.0625 54.4551 32.7188 54.7129 32.4336C54.9707 32.1445 55.2754 31.9238 55.627 31.7715C55.9785 31.6191 56.3594 31.543 56.7695 31.543C57.2227 31.543 57.6191 31.6191 57.959 31.7715C58.2988 31.9238 58.5801 32.1387 58.8027 32.416C59.0293 32.6895 59.1973 33.0156 59.3066 33.3945C59.4199 33.7734 59.4766 34.1914 59.4766 34.6484V35.252H54.5781V34.2383H58.082V34.127C58.0742 33.873 58.0234 33.6348 57.9297 33.4121C57.8398 33.1895 57.7012 33.0098 57.5137 32.873C57.3262 32.7363 57.0762 32.668 56.7637 32.668C56.5293 32.668 56.3203 32.7188 56.1367 32.8203C55.957 32.918 55.8066 33.0605 55.6855 33.248C55.5645 33.4355 55.4707 33.6621 55.4043 33.9277C55.3418 34.1895 55.3105 34.4844 55.3105 34.8125V35.0469C55.3105 35.3242 55.3477 35.582 55.4219 35.8203C55.5 36.0547 55.6133 36.2598 55.7617 36.4355C55.9102 36.6113 56.0898 36.75 56.3008 36.8516C56.5117 36.9492 56.752 36.998 57.0215 36.998C57.3613 36.998 57.6641 36.9297 57.9297 36.793C58.1953 36.6562 58.4258 36.4629 58.6211 36.2129L59.3652 36.9336C59.2285 37.1328 59.0508 37.3242 58.832 37.5078C58.6133 37.6875 58.3457 37.834 58.0293 37.9473C57.7168 38.0605 57.3535 38.1172 56.9395 38.1172ZM61.9961 32.8672V38H60.584V31.6602H61.9316L61.9961 32.8672ZM63.9355 31.6191L63.9238 32.9316C63.8379 32.916 63.7441 32.9043 63.6426 32.8965C63.5449 32.8887 63.4473 32.8848 63.3496 32.8848C63.1074 32.8848 62.8945 32.9199 62.7109 32.9902C62.5273 33.0566 62.373 33.1543 62.248 33.2832C62.127 33.4082 62.0332 33.5605 61.9668 33.7402C61.9004 33.9199 61.8613 34.1211 61.8496 34.3438L61.5273 34.3672C61.5273 33.9688 61.5664 33.5996 61.6445 33.2598C61.7227 32.9199 61.8398 32.6211 61.9961 32.3633C62.1562 32.1055 62.3555 31.9043 62.5938 31.7598C62.8359 31.6152 63.1152 31.543 63.4316 31.543C63.5176 31.543 63.6094 31.5508 63.707 31.5664C63.8086 31.582 63.8848 31.5996 63.9355 31.6191ZM69.5195 29.4688V38H68.0488V29.4688H69.5195ZM72.6074 33.0137V38H71.1953V31.6602H72.5254L72.6074 33.0137ZM72.3555 34.5957L71.8984 34.5898C71.9023 34.1406 71.9648 33.7285 72.0859 33.3535C72.2109 32.9785 72.3828 32.6562 72.6016 32.3867C72.8242 32.1172 73.0898 31.9102 73.3984 31.7656C73.707 31.6172 74.0508 31.543 74.4297 31.543C74.7344 31.543 75.0098 31.5859 75.2559 31.6719C75.5059 31.7539 75.7188 31.8887 75.8945 32.0762C76.0742 32.2637 76.2109 32.5078 76.3047 32.8086C76.3984 33.1055 76.4453 33.4707 76.4453 33.9043V38H75.0273V33.8984C75.0273 33.5938 74.9824 33.3535 74.8926 33.1777C74.8066 32.998 74.6797 32.8711 74.5117 32.7969C74.3477 32.7188 74.1426 32.6797 73.8965 32.6797C73.6543 32.6797 73.4375 32.7305 73.2461 32.832C73.0547 32.9336 72.8926 33.0723 72.7598 33.248C72.6309 33.4238 72.5312 33.627 72.4609 33.8574C72.3906 34.0879 72.3555 34.334 72.3555 34.5957ZM79.7969 38H78.3848V31.0508C78.3848 30.5781 78.4727 30.1816 78.6484 29.8613C78.8281 29.5371 79.084 29.293 79.416 29.1289C79.748 28.9609 80.1406 28.877 80.5938 28.877C80.7344 28.877 80.873 28.8867 81.0098 28.9062C81.1465 28.9219 81.2793 28.9473 81.4082 28.9824L81.373 30.0723C81.2949 30.0527 81.209 30.0391 81.1152 30.0312C81.0254 30.0234 80.9277 30.0195 80.8223 30.0195C80.6074 30.0195 80.4219 30.0605 80.2656 30.1426C80.1133 30.2207 79.9961 30.3359 79.9141 30.4883C79.8359 30.6406 79.7969 30.8281 79.7969 31.0508V38ZM81.1035 31.6602V32.6914H77.4121V31.6602H81.1035ZM83.5469 32.8672V38H82.1348V31.6602H83.4824L83.5469 32.8672ZM85.4863 31.6191L85.4746 32.9316C85.3887 32.916 85.2949 32.9043 85.1934 32.8965C85.0957 32.8887 84.998 32.8848 84.9004 32.8848C84.6582 32.8848 84.4453 32.9199 84.2617 32.9902C84.0781 33.0566 83.9238 33.1543 83.7988 33.2832C83.6777 33.4082 83.584 33.5605 83.5176 33.7402C83.4512 33.9199 83.4121 34.1211 83.4004 34.3438L83.0781 34.3672C83.0781 33.9688 83.1172 33.5996 83.1953 33.2598C83.2734 32.9199 83.3906 32.6211 83.5469 32.3633C83.707 32.1055 83.9062 31.9043 84.1445 31.7598C84.3867 31.6152 84.666 31.543 84.9824 31.543C85.0684 31.543 85.1602 31.5508 85.2578 31.5664C85.3594 31.582 85.4355 31.5996 85.4863 31.6191ZM89.7344 36.7285V33.7051C89.7344 33.4785 89.6934 33.2832 89.6113 33.1191C89.5293 32.9551 89.4043 32.8281 89.2363 32.7383C89.0723 32.6484 88.8652 32.6035 88.6152 32.6035C88.3848 32.6035 88.1855 32.6426 88.0176 32.7207C87.8496 32.7988 87.7188 32.9043 87.625 33.0371C87.5312 33.1699 87.4844 33.3203 87.4844 33.4883H86.0781C86.0781 33.2383 86.1387 32.9961 86.2598 32.7617C86.3809 32.5273 86.5566 32.3184 86.7871 32.1348C87.0176 31.9512 87.293 31.8066 87.6133 31.7012C87.9336 31.5957 88.293 31.543 88.6914 31.543C89.168 31.543 89.5898 31.623 89.957 31.7832C90.3281 31.9434 90.6191 32.1855 90.8301 32.5098C91.0449 32.8301 91.1523 33.2324 91.1523 33.7168V36.5352C91.1523 36.8242 91.1719 37.084 91.2109 37.3145C91.2539 37.541 91.3145 37.7383 91.3926 37.9062V38H89.9453C89.8789 37.8477 89.8262 37.6543 89.7871 37.4199C89.752 37.1816 89.7344 36.9512 89.7344 36.7285ZM89.9395 34.1445L89.9512 35.0176H88.9375C88.6758 35.0176 88.4453 35.043 88.2461 35.0938C88.0469 35.1406 87.8809 35.2109 87.748 35.3047C87.6152 35.3984 87.5156 35.5117 87.4492 35.6445C87.3828 35.7773 87.3496 35.9277 87.3496 36.0957C87.3496 36.2637 87.3887 36.418 87.4668 36.5586C87.5449 36.6953 87.6582 36.8027 87.8066 36.8809C87.959 36.959 88.1426 36.998 88.3574 36.998C88.6465 36.998 88.8984 36.9395 89.1133 36.8223C89.332 36.7012 89.5039 36.5547 89.6289 36.3828C89.7539 36.207 89.8203 36.041 89.8281 35.8848L90.2852 36.5117C90.2383 36.6719 90.1582 36.8438 90.0449 37.0273C89.9316 37.2109 89.7832 37.3867 89.5996 37.5547C89.4199 37.7188 89.2031 37.8535 88.9492 37.959C88.6992 38.0645 88.4102 38.1172 88.082 38.1172C87.668 38.1172 87.2988 38.0352 86.9746 37.8711C86.6504 37.7031 86.3965 37.4785 86.2129 37.1973C86.0293 36.9121 85.9375 36.5898 85.9375 36.2305C85.9375 35.8945 86 35.5977 86.125 35.3398C86.2539 35.0781 86.4414 34.8594 86.6875 34.6836C86.9375 34.5078 87.2422 34.375 87.6016 34.2852C87.9609 34.1914 88.3711 34.1445 88.832 34.1445H89.9395ZM96.1855 36.2832C96.1855 36.1426 96.1504 36.0156 96.0801 35.9023C96.0098 35.7852 95.875 35.6797 95.6758 35.5859C95.4805 35.4922 95.1914 35.4062 94.8086 35.3281C94.4727 35.2539 94.1641 35.166 93.8828 35.0645C93.6055 34.959 93.3672 34.832 93.168 34.6836C92.9688 34.5352 92.8145 34.3594 92.7051 34.1562C92.5957 33.9531 92.541 33.7188 92.541 33.4531C92.541 33.1953 92.5977 32.9512 92.7109 32.7207C92.8242 32.4902 92.9863 32.2871 93.1973 32.1113C93.4082 31.9355 93.6641 31.7969 93.9648 31.6953C94.2695 31.5938 94.6094 31.543 94.9844 31.543C95.5156 31.543 95.9707 31.6328 96.3496 31.8125C96.7324 31.9883 97.0254 32.2285 97.2285 32.5332C97.4316 32.834 97.5332 33.1738 97.5332 33.5527H96.1211C96.1211 33.3848 96.0781 33.2285 95.9922 33.084C95.9102 32.9355 95.7852 32.8164 95.6172 32.7266C95.4492 32.6328 95.2383 32.5859 94.9844 32.5859C94.7422 32.5859 94.541 32.625 94.3809 32.7031C94.2246 32.7773 94.1074 32.875 94.0293 32.9961C93.9551 33.1172 93.918 33.25 93.918 33.3945C93.918 33.5 93.9375 33.5957 93.9766 33.6816C94.0195 33.7637 94.0898 33.8398 94.1875 33.9102C94.2852 33.9766 94.418 34.0391 94.5859 34.0977C94.7578 34.1562 94.9727 34.2129 95.2305 34.2676C95.7148 34.3691 96.1309 34.5 96.4785 34.6602C96.8301 34.8164 97.0996 35.0195 97.2871 35.2695C97.4746 35.5156 97.5684 35.8281 97.5684 36.207C97.5684 36.4883 97.5078 36.7461 97.3867 36.9805C97.2695 37.2109 97.0977 37.4121 96.8711 37.584C96.6445 37.752 96.373 37.8828 96.0566 37.9766C95.7441 38.0703 95.3926 38.1172 95.002 38.1172C94.4277 38.1172 93.9414 38.0156 93.543 37.8125C93.1445 37.6055 92.8418 37.3418 92.6348 37.0215C92.4316 36.6973 92.3301 36.3613 92.3301 36.0137H93.6953C93.7109 36.2754 93.7832 36.4844 93.9121 36.6406C94.0449 36.793 94.209 36.9043 94.4043 36.9746C94.6035 37.041 94.8086 37.0742 95.0195 37.0742C95.2734 37.0742 95.4863 37.041 95.6582 36.9746C95.8301 36.9043 95.9609 36.8105 96.0508 36.6934C96.1406 36.5723 96.1855 36.4355 96.1855 36.2832ZM101.711 31.6602V32.6914H98.1367V31.6602H101.711ZM99.168 30.1074H100.58V36.248C100.58 36.4434 100.607 36.5938 100.662 36.6992C100.721 36.8008 100.801 36.8691 100.902 36.9043C101.004 36.9395 101.123 36.957 101.26 36.957C101.357 36.957 101.451 36.9512 101.541 36.9395C101.631 36.9277 101.703 36.916 101.758 36.9043L101.764 37.9824C101.646 38.0176 101.51 38.0488 101.354 38.0762C101.201 38.1035 101.025 38.1172 100.826 38.1172C100.502 38.1172 100.215 38.0605 99.9648 37.9473C99.7148 37.8301 99.5195 37.6406 99.3789 37.3789C99.2383 37.1172 99.168 36.7695 99.168 36.3359V30.1074ZM104.219 32.8672V38H102.807V31.6602H104.154L104.219 32.8672ZM106.158 31.6191L106.146 32.9316C106.061 32.916 105.967 32.9043 105.865 32.8965C105.768 32.8887 105.67 32.8848 105.572 32.8848C105.33 32.8848 105.117 32.9199 104.934 32.9902C104.75 33.0566 104.596 33.1543 104.471 33.2832C104.35 33.4082 104.256 33.5605 104.189 33.7402C104.123 33.9199 104.084 34.1211 104.072 34.3438L103.75 34.3672C103.75 33.9688 103.789 33.5996 103.867 33.2598C103.945 32.9199 104.062 32.6211 104.219 32.3633C104.379 32.1055 104.578 31.9043 104.816 31.7598C105.059 31.6152 105.338 31.543 105.654 31.543C105.74 31.543 105.832 31.5508 105.93 31.5664C106.031 31.582 106.107 31.5996 106.158 31.6191ZM110.857 36.5059V31.6602H112.275V38H110.939L110.857 36.5059ZM111.057 35.1875L111.531 35.1758C111.531 35.6016 111.484 35.9941 111.391 36.3535C111.297 36.709 111.152 37.0195 110.957 37.2852C110.762 37.5469 110.512 37.752 110.207 37.9004C109.902 38.0449 109.537 38.1172 109.111 38.1172C108.803 38.1172 108.52 38.0723 108.262 37.9824C108.004 37.8926 107.781 37.7539 107.594 37.5664C107.41 37.3789 107.268 37.1348 107.166 36.834C107.064 36.5332 107.014 36.1738 107.014 35.7559V31.6602H108.426V35.7676C108.426 35.998 108.453 36.1914 108.508 36.3477C108.562 36.5 108.637 36.623 108.73 36.7168C108.824 36.8105 108.934 36.877 109.059 36.916C109.184 36.9551 109.316 36.9746 109.457 36.9746C109.859 36.9746 110.176 36.8965 110.406 36.7402C110.641 36.5801 110.807 36.3652 110.904 36.0957C111.006 35.8262 111.057 35.5234 111.057 35.1875ZM116.312 36.9922C116.543 36.9922 116.75 36.9473 116.934 36.8574C117.121 36.7637 117.271 36.6348 117.385 36.4707C117.502 36.3066 117.566 36.1172 117.578 35.9023H118.908C118.9 36.3125 118.779 36.6855 118.545 37.0215C118.311 37.3574 118 37.625 117.613 37.8242C117.227 38.0195 116.799 38.1172 116.33 38.1172C115.846 38.1172 115.424 38.0352 115.064 37.8711C114.705 37.7031 114.406 37.4727 114.168 37.1797C113.93 36.8867 113.75 36.5488 113.629 36.166C113.512 35.7832 113.453 35.373 113.453 34.9355V34.7305C113.453 34.293 113.512 33.8828 113.629 33.5C113.75 33.1133 113.93 32.7734 114.168 32.4805C114.406 32.1875 114.705 31.959 115.064 31.7949C115.424 31.627 115.844 31.543 116.324 31.543C116.832 31.543 117.277 31.6445 117.66 31.8477C118.043 32.0469 118.344 32.3262 118.562 32.6855C118.785 33.041 118.9 33.4551 118.908 33.9277H117.578C117.566 33.6934 117.508 33.4824 117.402 33.2949C117.301 33.1035 117.156 32.9512 116.969 32.8379C116.785 32.7246 116.564 32.668 116.307 32.668C116.021 32.668 115.785 32.7266 115.598 32.8438C115.41 32.957 115.264 33.1133 115.158 33.3125C115.053 33.5078 114.977 33.7285 114.93 33.9746C114.887 34.2168 114.865 34.4688 114.865 34.7305V34.9355C114.865 35.1973 114.887 35.4512 114.93 35.6973C114.973 35.9434 115.047 36.1641 115.152 36.3594C115.262 36.5508 115.41 36.7051 115.598 36.8223C115.785 36.9355 116.023 36.9922 116.312 36.9922ZM122.898 31.6602V32.6914H119.324V31.6602H122.898ZM120.355 30.1074H121.768V36.248C121.768 36.4434 121.795 36.5938 121.85 36.6992C121.908 36.8008 121.988 36.8691 122.09 36.9043C122.191 36.9395 122.311 36.957 122.447 36.957C122.545 36.957 122.639 36.9512 122.729 36.9395C122.818 36.9277 122.891 36.916 122.945 36.9043L122.951 37.9824C122.834 38.0176 122.697 38.0488 122.541 38.0762C122.389 38.1035 122.213 38.1172 122.014 38.1172C121.689 38.1172 121.402 38.0605 121.152 37.9473C120.902 37.8301 120.707 37.6406 120.566 37.3789C120.426 37.1172 120.355 36.7695 120.355 36.3359V30.1074ZM127.803 36.5059V31.6602H129.221V38H127.885L127.803 36.5059ZM128.002 35.1875L128.477 35.1758C128.477 35.6016 128.43 35.9941 128.336 36.3535C128.242 36.709 128.098 37.0195 127.902 37.2852C127.707 37.5469 127.457 37.752 127.152 37.9004C126.848 38.0449 126.482 38.1172 126.057 38.1172C125.748 38.1172 125.465 38.0723 125.207 37.9824C124.949 37.8926 124.727 37.7539 124.539 37.5664C124.355 37.3789 124.213 37.1348 124.111 36.834C124.01 36.5332 123.959 36.1738 123.959 35.7559V31.6602H125.371V35.7676C125.371 35.998 125.398 36.1914 125.453 36.3477C125.508 36.5 125.582 36.623 125.676 36.7168C125.77 36.8105 125.879 36.877 126.004 36.916C126.129 36.9551 126.262 36.9746 126.402 36.9746C126.805 36.9746 127.121 36.8965 127.352 36.7402C127.586 36.5801 127.752 36.3652 127.85 36.0957C127.951 35.8262 128.002 35.5234 128.002 35.1875ZM132.086 32.8672V38H130.674V31.6602H132.021L132.086 32.8672ZM134.025 31.6191L134.014 32.9316C133.928 32.916 133.834 32.9043 133.732 32.8965C133.635 32.8887 133.537 32.8848 133.439 32.8848C133.197 32.8848 132.984 32.9199 132.801 32.9902C132.617 33.0566 132.463 33.1543 132.338 33.2832C132.217 33.4082 132.123 33.5605 132.057 33.7402C131.99 33.9199 131.951 34.1211 131.939 34.3438L131.617 34.3672C131.617 33.9688 131.656 33.5996 131.734 33.2598C131.812 32.9199 131.93 32.6211 132.086 32.3633C132.246 32.1055 132.445 31.9043 132.684 31.7598C132.926 31.6152 133.205 31.543 133.521 31.543C133.607 31.543 133.699 31.5508 133.797 31.5664C133.898 31.582 133.975 31.5996 134.025 31.6191ZM137.588 38.1172C137.119 38.1172 136.695 38.041 136.316 37.8887C135.941 37.7324 135.621 37.5156 135.355 37.2383C135.094 36.9609 134.893 36.6348 134.752 36.2598C134.611 35.8848 134.541 35.4805 134.541 35.0469V34.8125C134.541 34.3164 134.613 33.8672 134.758 33.4648C134.902 33.0625 135.104 32.7188 135.361 32.4336C135.619 32.1445 135.924 31.9238 136.275 31.7715C136.627 31.6191 137.008 31.543 137.418 31.543C137.871 31.543 138.268 31.6191 138.607 31.7715C138.947 31.9238 139.229 32.1387 139.451 32.416C139.678 32.6895 139.846 33.0156 139.955 33.3945C140.068 33.7734 140.125 34.1914 140.125 34.6484V35.252H135.227V34.2383H138.73V34.127C138.723 33.873 138.672 33.6348 138.578 33.4121C138.488 33.1895 138.35 33.0098 138.162 32.873C137.975 32.7363 137.725 32.668 137.412 32.668C137.178 32.668 136.969 32.7188 136.785 32.8203C136.605 32.918 136.455 33.0605 136.334 33.248C136.213 33.4355 136.119 33.6621 136.053 33.9277C135.99 34.1895 135.959 34.4844 135.959 34.8125V35.0469C135.959 35.3242 135.996 35.582 136.07 35.8203C136.148 36.0547 136.262 36.2598 136.41 36.4355C136.559 36.6113 136.738 36.75 136.949 36.8516C137.16 36.9492 137.4 36.998 137.67 36.998C138.01 36.998 138.312 36.9297 138.578 36.793C138.844 36.6562 139.074 36.4629 139.27 36.2129L140.014 36.9336C139.877 37.1328 139.699 37.3242 139.48 37.5078C139.262 37.6875 138.994 37.834 138.678 37.9473C138.365 38.0605 138.002 38.1172 137.588 38.1172Z" fill="#1B1464"/>
<mask id="path-3-inside-1_2058_464" fill="white">
<path d="M97.4165 95.2785H73.1288C72.9918 95.2785 72.8889 95.2785 72.8112 95.2696C72.7517 95.2688 72.6942 95.2477 72.6484 95.2097C72.6104 95.1638 72.5892 95.1063 72.5884 95.0468C72.5795 94.9728 72.5795 94.8669 72.5795 94.7292L72.5662 53.8468C72.5598 53.4801 72.6123 53.1147 72.7216 52.7646C72.8133 52.4739 72.972 52.2089 73.1851 51.991C73.4024 51.7777 73.6669 51.6187 73.9572 51.5268C74.307 51.4171 74.6721 51.3643 75.0387 51.3706H95.0098C95.2955 51.368 95.5803 51.4018 95.8574 51.4713C96.0988 51.5324 96.3285 51.6325 96.5378 51.7674C96.7322 51.8937 96.9016 52.0548 97.0374 52.2427C97.1764 52.4373 97.2801 52.6548 97.3439 52.8852C97.3667 52.9435 97.3843 53.0037 97.3965 53.0651C97.4091 53.1287 97.418 53.193 97.4231 53.2576C97.429 53.3235 97.4313 53.3908 97.4327 53.4589C97.4342 53.527 97.4327 53.5959 97.4327 53.664L97.4142 95.2785"/>
</mask>
<path d="M97.4165 95.2785H73.1288C72.9918 95.2785 72.8889 95.2785 72.8112 95.2696C72.7517 95.2688 72.6942 95.2477 72.6484 95.2097C72.6104 95.1638 72.5892 95.1063 72.5884 95.0468C72.5795 94.9728 72.5795 94.8669 72.5795 94.7292L72.5662 53.8468C72.5598 53.4801 72.6123 53.1147 72.7216 52.7646C72.8133 52.4739 72.972 52.2089 73.1851 51.991C73.4024 51.7777 73.6669 51.6187 73.9572 51.5268C74.307 51.4171 74.6721 51.3643 75.0387 51.3706H95.0098C95.2955 51.368 95.5803 51.4018 95.8574 51.4713C96.0988 51.5324 96.3285 51.6325 96.5378 51.7674C96.7322 51.8937 96.9016 52.0548 97.0374 52.2427C97.1764 52.4373 97.2801 52.6548 97.3439 52.8852C97.3667 52.9435 97.3843 53.0037 97.3965 53.0651C97.4091 53.1287 97.418 53.193 97.4231 53.2576C97.429 53.3235 97.4313 53.3908 97.4327 53.4589C97.4342 53.527 97.4327 53.5959 97.4327 53.664L97.4142 95.2785" fill="#1DC39F"/>
<path d="M72.8112 95.2696L72.9248 94.2761L72.8748 94.2704L72.8245 94.2697L72.8112 95.2696ZM72.6484 95.2097L71.8779 95.8472L71.9378 95.9195L72.0101 95.9795L72.6484 95.2097ZM72.5884 95.0468L73.5883 95.0325L73.5875 94.9799L73.5813 94.9277L72.5884 95.0468ZM72.5795 94.7292H73.5795L73.5795 94.7289L72.5795 94.7292ZM72.5662 53.8468L73.5662 53.8465L73.5662 53.838L73.566 53.8296L72.5662 53.8468ZM72.7216 52.7646L71.7679 52.4639L71.7671 52.4665L72.7216 52.7646ZM73.1851 51.991L72.4847 51.2772L72.4773 51.2845L72.47 51.2919L73.1851 51.991ZM73.9572 51.5268L73.6578 50.5727L73.6553 50.5735L73.9572 51.5268ZM75.0387 51.3706L75.0216 52.3705L75.0301 52.3706H75.0387V51.3706ZM95.0098 51.3706V52.3707L95.0191 52.3706L95.0098 51.3706ZM95.8574 51.4713L96.1031 50.5019L96.1007 50.5013L95.8574 51.4713ZM96.5378 51.7674L97.0824 50.9287L97.0798 50.9271L96.5378 51.7674ZM97.0374 52.2427L97.8513 51.6616L97.8478 51.6567L97.0374 52.2427ZM97.3439 52.8852L96.3802 53.152L96.3938 53.2013L96.4124 53.2488L97.3439 52.8852ZM97.3965 53.0651L98.3774 52.8706L98.3773 52.87L97.3965 53.0651ZM97.4231 53.2576L96.4262 53.3369L96.4271 53.3471L97.4231 53.2576ZM97.4327 53.664L98.4327 53.6644V53.664H97.4327ZM97.4165 95.2785V94.2785H73.1288V95.2785V96.2785H97.4165V95.2785ZM73.1288 95.2785V94.2785C73.0572 94.2785 73.0087 94.2785 72.9689 94.2776C72.9283 94.2768 72.9186 94.2754 72.9248 94.2761L72.8112 95.2696L72.6977 96.2632C72.8456 96.2801 73.0167 96.2785 73.1288 96.2785V95.2785ZM72.8112 95.2696L72.8245 94.2697C72.9934 94.272 73.1565 94.332 73.2866 94.4399L72.6484 95.2097L72.0101 95.9795C72.2318 96.1634 72.5099 96.2657 72.7979 96.2695L72.8112 95.2696ZM72.6484 95.2097L73.4188 94.5721C73.5261 94.7018 73.5859 94.8642 73.5883 95.0325L72.5884 95.0468L71.5885 95.0611C71.5926 95.3484 71.6947 95.6258 71.8779 95.8472L72.6484 95.2097ZM72.5884 95.0468L73.5813 94.9277C73.5827 94.9398 73.5813 94.9336 73.5804 94.8909C73.5796 94.8506 73.5795 94.8012 73.5795 94.7292H72.5795H71.5795C71.5795 94.8382 71.5777 95.0177 71.5955 95.166L72.5884 95.0468ZM72.5795 94.7292L73.5795 94.7289L73.5662 53.8465L72.5662 53.8468L71.5662 53.8472L71.5795 94.7296L72.5795 94.7292ZM72.5662 53.8468L73.566 53.8296C73.5615 53.5696 73.5987 53.3107 73.6762 53.0626L72.7216 52.7646L71.7671 52.4665C71.6259 52.9187 71.5582 53.3905 71.5663 53.8641L72.5662 53.8468ZM72.7216 52.7646L73.6754 53.0652C73.7198 52.9242 73.7968 52.7957 73.9001 52.69L73.1851 51.991L72.47 51.2919C72.1472 51.6221 71.9067 52.0236 71.7679 52.4639L72.7216 52.7646ZM73.1851 51.991L73.8854 52.7047C73.9906 52.6016 74.1186 52.5246 74.259 52.4802L73.9572 51.5268L73.6553 50.5735C73.2152 50.7128 72.8142 50.9539 72.4847 51.2772L73.1851 51.991ZM73.9572 51.5268L74.2565 52.481C74.5039 52.4033 74.7623 52.366 75.0216 52.3705L75.0387 51.3706L75.0558 50.3708C74.582 50.3627 74.11 50.4308 73.6578 50.5727L73.9572 51.5268ZM75.0387 51.3706V52.3706H95.0098V51.3706V50.3706H75.0387V51.3706ZM95.0098 51.3706L95.0191 52.3706C95.2197 52.3687 95.4196 52.3925 95.6142 52.4413L95.8574 51.4713L96.1007 50.5013C95.741 50.4111 95.3713 50.3672 95.0006 50.3707L95.0098 51.3706ZM95.8574 51.4713L95.6118 52.4407C95.748 52.4752 95.8776 52.5316 95.9957 52.6077L96.5378 51.7674L97.0798 50.9271C96.7794 50.7333 96.4495 50.5897 96.1031 50.5019L95.8574 51.4713ZM96.5378 51.7674L95.9931 52.6061C96.0842 52.6652 96.1635 52.7406 96.2271 52.8286L97.0374 52.2427L97.8478 51.6567C97.6397 51.3689 97.3802 51.1221 97.0824 50.9287L96.5378 51.7674ZM97.0374 52.2427L96.2236 52.8237C96.2946 52.9232 96.3476 53.0343 96.3802 53.152L97.3439 52.8852L98.3077 52.6184C98.2127 52.2753 98.0582 51.9514 97.8513 51.6616L97.0374 52.2427ZM97.3439 52.8852L96.4124 53.2488C96.4138 53.2525 96.4149 53.2563 96.4157 53.2602L97.3965 53.0651L98.3773 52.87C98.3536 52.7511 98.3195 52.6345 98.2755 52.5216L97.3439 52.8852ZM97.3965 53.0651L96.4156 53.2596C96.4206 53.2851 96.4242 53.311 96.4263 53.3369L97.4231 53.2576L98.42 53.1783C98.4118 53.075 98.3975 52.9722 98.3774 52.8706L97.3965 53.0651ZM97.4231 53.2576L96.4271 53.3471C96.4299 53.3776 96.4316 53.417 96.433 53.4807L97.4327 53.4589L98.4325 53.4372C98.4309 53.3646 98.4282 53.2693 98.4191 53.1681L97.4231 53.2576ZM97.4327 53.4589L96.433 53.4807C96.4342 53.5361 96.4327 53.5652 96.4327 53.664H97.4327H98.4327C98.4327 53.6266 98.4343 53.518 98.4325 53.4372L97.4327 53.4589ZM97.4327 53.664L96.4327 53.6635L96.4142 95.2781L97.4142 95.2785L98.4142 95.279L98.4327 53.6644L97.4327 53.664Z" fill="#13856C" mask="url(#path-3-inside-1_2058_464)"/>
<path d="M75.553 57.5352H94.504V60.2001H75.553V57.5352Z" fill="white"/>
<path d="M75.5586 78.9915H94.5007V81.6564H75.5586V78.9915Z" fill="white"/>
<path d="M75.5615 84.5549H94.5007V87.2199H75.5615V84.5549Z" fill="white"/>
<path d="M66.435 105.469V112.649H65.505V107.539C65.505 107.462 65.5067 107.38 65.51 107.294C65.5167 107.207 65.5233 107.119 65.53 107.029L63.14 111.414C63.0567 111.577 62.9283 111.659 62.755 111.659H62.605C62.4317 111.659 62.305 111.577 62.225 111.414L59.79 107.014C59.81 107.2 59.82 107.375 59.82 107.539V112.649H58.885V105.469H59.675C59.7683 105.469 59.84 105.479 59.89 105.499C59.9433 105.515 59.9933 105.565 60.04 105.649L62.44 109.949C62.4867 110.035 62.53 110.127 62.57 110.224C62.61 110.32 62.6483 110.417 62.685 110.514C62.755 110.317 62.8367 110.127 62.93 109.944L65.285 105.649C65.3283 105.565 65.375 105.515 65.425 105.499C65.4783 105.479 65.5517 105.469 65.645 105.469H66.435ZM70.5947 110.394C70.198 110.407 69.8614 110.439 69.5847 110.489C69.308 110.535 69.083 110.599 68.9097 110.679C68.7364 110.759 68.6114 110.854 68.5347 110.964C68.458 111.07 68.4197 111.19 68.4197 111.324C68.4197 111.45 68.4397 111.56 68.4797 111.654C68.523 111.744 68.5797 111.819 68.6497 111.879C68.723 111.935 68.808 111.977 68.9047 112.004C69.0014 112.03 69.1064 112.044 69.2197 112.044C69.3697 112.044 69.5064 112.029 69.6297 111.999C69.7564 111.969 69.8747 111.927 69.9847 111.874C70.0947 111.817 70.1997 111.749 70.2997 111.669C70.3997 111.589 70.498 111.497 70.5947 111.394V110.394ZM67.7347 108.279C68.018 108.009 68.3247 107.807 68.6547 107.674C68.988 107.54 69.353 107.474 69.7497 107.474C70.0397 107.474 70.2964 107.522 70.5197 107.619C70.743 107.712 70.9314 107.844 71.0847 108.014C71.238 108.184 71.353 108.387 71.4297 108.624C71.5097 108.86 71.5497 109.122 71.5497 109.409V112.649H71.1147C71.018 112.649 70.9447 112.634 70.8947 112.604C70.8447 112.57 70.8047 112.51 70.7747 112.424L70.6697 111.979C70.5397 112.099 70.4114 112.205 70.2847 112.299C70.158 112.389 70.0247 112.467 69.8847 112.534C69.748 112.597 69.6014 112.645 69.4447 112.679C69.288 112.712 69.1147 112.729 68.9247 112.729C68.7247 112.729 68.5364 112.702 68.3597 112.649C68.1864 112.592 68.0347 112.507 67.9047 112.394C67.7747 112.28 67.6714 112.139 67.5947 111.969C67.5214 111.799 67.4847 111.6 67.4847 111.374C67.4847 111.174 67.538 110.982 67.6447 110.799C67.7547 110.612 67.9314 110.445 68.1747 110.299C68.4214 110.152 68.7414 110.032 69.1347 109.939C69.5314 109.845 70.018 109.792 70.5947 109.779V109.409C70.5947 109.025 70.513 108.739 70.3497 108.549C70.1864 108.359 69.9464 108.264 69.6297 108.264C69.4164 108.264 69.2364 108.29 69.0897 108.344C68.9464 108.397 68.8214 108.457 68.7147 108.524C68.6114 108.587 68.5197 108.645 68.4397 108.699C68.363 108.752 68.283 108.779 68.1997 108.779C68.133 108.779 68.0747 108.76 68.0247 108.724C67.978 108.687 67.9397 108.644 67.9097 108.594L67.7347 108.279ZM73.8749 107.569V112.649H72.8999V107.569H73.8749ZM74.0599 105.999C74.0599 106.089 74.0416 106.175 74.0049 106.259C73.9683 106.339 73.9183 106.41 73.8549 106.474C73.7949 106.534 73.7233 106.582 73.6399 106.619C73.5566 106.652 73.4699 106.669 73.3799 106.669C73.2899 106.669 73.2049 106.652 73.1249 106.619C73.0449 106.582 72.9733 106.534 72.9099 106.474C72.8499 106.41 72.8016 106.339 72.7649 106.259C72.7316 106.175 72.7149 106.089 72.7149 105.999C72.7149 105.905 72.7316 105.819 72.7649 105.739C72.8016 105.655 72.8499 105.584 72.9099 105.524C72.9733 105.46 73.0449 105.412 73.1249 105.379C73.2049 105.342 73.2899 105.324 73.3799 105.324C73.4699 105.324 73.5566 105.342 73.6399 105.379C73.7233 105.412 73.7949 105.46 73.8549 105.524C73.9183 105.584 73.9683 105.655 74.0049 105.739C74.0416 105.819 74.0599 105.905 74.0599 105.999ZM76.2016 108.274C76.3116 108.157 76.4266 108.05 76.5466 107.954C76.6666 107.857 76.7932 107.775 76.9266 107.709C77.0632 107.639 77.2082 107.585 77.3616 107.549C77.5182 107.509 77.6849 107.489 77.8616 107.489C78.1416 107.489 78.3866 107.535 78.5966 107.629C78.8099 107.722 78.9882 107.854 79.1316 108.024C79.2749 108.19 79.3832 108.392 79.4566 108.629C79.5299 108.865 79.5666 109.127 79.5666 109.414V112.649H78.5866V109.414C78.5866 109.05 78.5032 108.769 78.3366 108.569C78.1699 108.365 77.9149 108.264 77.5716 108.264C77.3216 108.264 77.0866 108.324 76.8666 108.444C76.6499 108.56 76.4482 108.72 76.2616 108.924V112.649H75.2866V107.569H75.8716C76.0082 107.569 76.0932 107.634 76.1266 107.764L76.2016 108.274ZM87.3266 106.639C87.2932 106.695 87.2582 106.737 87.2216 106.764C87.1849 106.79 87.1382 106.804 87.0816 106.804C87.0216 106.804 86.9532 106.777 86.8766 106.724C86.7999 106.667 86.7032 106.605 86.5866 106.539C86.4732 106.469 86.3366 106.407 86.1766 106.354C86.0166 106.297 85.8249 106.269 85.6016 106.269C85.3916 106.269 85.2066 106.297 85.0466 106.354C84.8899 106.407 84.7582 106.482 84.6516 106.579C84.5449 106.672 84.4632 106.784 84.4066 106.914C84.3532 107.04 84.3266 107.179 84.3266 107.329C84.3266 107.522 84.3749 107.682 84.4716 107.809C84.5716 107.935 84.7016 108.044 84.8616 108.134C85.0216 108.224 85.2032 108.302 85.4066 108.369C85.6099 108.435 85.8182 108.505 86.0316 108.579C86.2449 108.649 86.4532 108.73 86.6566 108.824C86.8599 108.917 87.0416 109.035 87.2016 109.179C87.3616 109.319 87.4899 109.492 87.5866 109.699C87.6866 109.902 87.7366 110.152 87.7366 110.449C87.7366 110.765 87.6816 111.062 87.5716 111.339C87.4649 111.615 87.3082 111.857 87.1016 112.064C86.8949 112.27 86.6399 112.434 86.3366 112.554C86.0366 112.67 85.6949 112.729 85.3116 112.729C85.0816 112.729 84.8582 112.705 84.6416 112.659C84.4249 112.615 84.2199 112.554 84.0266 112.474C83.8332 112.39 83.6516 112.292 83.4816 112.179C83.3149 112.062 83.1649 111.932 83.0316 111.789L83.3366 111.279C83.3666 111.239 83.4016 111.205 83.4416 111.179C83.4849 111.152 83.5332 111.139 83.5866 111.139C83.6566 111.139 83.7366 111.175 83.8266 111.249C83.9199 111.322 84.0332 111.404 84.1666 111.494C84.3032 111.58 84.4649 111.66 84.6516 111.734C84.8416 111.807 85.0716 111.844 85.3416 111.844C85.5616 111.844 85.7582 111.815 85.9316 111.759C86.1049 111.699 86.2499 111.615 86.3666 111.509C86.4866 111.399 86.5782 111.267 86.6416 111.114C86.7049 110.96 86.7366 110.79 86.7366 110.604C86.7366 110.394 86.6882 110.222 86.5916 110.089C86.4949 109.955 86.3666 109.844 86.2066 109.754C86.0466 109.664 85.8649 109.587 85.6616 109.524C85.4582 109.46 85.2499 109.395 85.0366 109.329C84.8232 109.259 84.6149 109.179 84.4116 109.089C84.2082 108.999 84.0266 108.882 83.8666 108.739C83.7066 108.592 83.5782 108.41 83.4816 108.194C83.3849 107.974 83.3366 107.704 83.3366 107.384C83.3366 107.127 83.3866 106.879 83.4866 106.639C83.5866 106.399 83.7316 106.187 83.9216 106.004C84.1149 105.817 84.3516 105.669 84.6316 105.559C84.9116 105.445 85.2316 105.389 85.5916 105.389C85.9949 105.389 86.3649 105.454 86.7016 105.584C87.0416 105.71 87.3366 105.894 87.5866 106.134L87.3266 106.639ZM92.1867 109.544C92.1867 109.35 92.1584 109.172 92.1017 109.009C92.0484 108.845 91.9684 108.704 91.8617 108.584C91.7551 108.464 91.6251 108.37 91.4717 108.304C91.3184 108.237 91.1417 108.204 90.9417 108.204C90.5317 108.204 90.2084 108.322 89.9717 108.559C89.7384 108.795 89.5901 109.124 89.5267 109.544H92.1867ZM92.9917 111.924C92.8717 112.064 92.7334 112.185 92.5767 112.289C92.4201 112.389 92.2534 112.47 92.0767 112.534C91.9001 112.597 91.7167 112.644 91.5267 112.674C91.3401 112.704 91.1551 112.719 90.9717 112.719C90.6217 112.719 90.2967 112.66 89.9967 112.544C89.7001 112.424 89.4417 112.25 89.2217 112.024C89.0051 111.794 88.8351 111.51 88.7117 111.174C88.5917 110.834 88.5317 110.444 88.5317 110.004C88.5317 109.65 88.5867 109.322 88.6967 109.019C88.8067 108.712 88.9634 108.445 89.1667 108.219C89.3734 107.992 89.6251 107.814 89.9217 107.684C90.2184 107.554 90.5517 107.489 90.9217 107.489C91.2317 107.489 91.5167 107.54 91.7767 107.644C92.0401 107.744 92.2667 107.89 92.4567 108.084C92.6467 108.277 92.7951 108.515 92.9017 108.799C93.0117 109.082 93.0667 109.405 93.0667 109.769C93.0667 109.919 93.0501 110.02 93.0167 110.074C92.9834 110.124 92.9217 110.149 92.8317 110.149H89.5017C89.5117 110.452 89.5551 110.717 89.6317 110.944C89.7084 111.167 89.8134 111.354 89.9467 111.504C90.0834 111.654 90.2451 111.765 90.4317 111.839C90.6184 111.912 90.8267 111.949 91.0567 111.949C91.2734 111.949 91.4601 111.924 91.6167 111.874C91.7767 111.824 91.9134 111.77 92.0267 111.714C92.1434 111.654 92.2401 111.599 92.3167 111.549C92.3967 111.499 92.4667 111.474 92.5267 111.474C92.6067 111.474 92.6684 111.504 92.7117 111.564L92.9917 111.924ZM95.0347 108.544C95.198 108.21 95.3947 107.949 95.6247 107.759C95.8547 107.569 96.1314 107.474 96.4547 107.474C96.5647 107.474 96.668 107.487 96.7647 107.514C96.8647 107.537 96.9514 107.574 97.0247 107.624L96.9597 108.359C96.9364 108.449 96.8814 108.494 96.7947 108.494C96.748 108.494 96.678 108.485 96.5847 108.469C96.4914 108.449 96.3914 108.439 96.2847 108.439C96.128 108.439 95.9897 108.462 95.8697 108.509C95.7497 108.552 95.6414 108.619 95.5447 108.709C95.4514 108.795 95.368 108.904 95.2947 109.034C95.2214 109.16 95.153 109.305 95.0897 109.469V112.649H94.1147V107.569H94.6747C94.7814 107.569 94.853 107.589 94.8897 107.629C94.9297 107.665 94.958 107.732 94.9747 107.829L95.0347 108.544ZM102.187 107.569L100.127 112.649H99.2468L97.1868 107.569H97.9918C98.0685 107.569 98.1318 107.587 98.1818 107.624C98.2318 107.66 98.2651 107.707 98.2818 107.764L99.4968 110.884C99.5401 111.014 99.5768 111.144 99.6068 111.274C99.6401 111.4 99.6701 111.527 99.6968 111.654C99.7235 111.527 99.7535 111.4 99.7868 111.274C99.8201 111.147 99.8601 111.017 99.9068 110.884L101.137 107.764C101.157 107.707 101.192 107.66 101.242 107.624C101.292 107.587 101.352 107.569 101.422 107.569H102.187ZM106.181 109.544C106.181 109.35 106.153 109.172 106.096 109.009C106.043 108.845 105.963 108.704 105.856 108.584C105.749 108.464 105.619 108.37 105.466 108.304C105.313 108.237 105.136 108.204 104.936 108.204C104.526 108.204 104.203 108.322 103.966 108.559C103.733 108.795 103.584 109.124 103.521 109.544H106.181ZM106.986 111.924C106.866 112.064 106.728 112.185 106.571 112.289C106.414 112.389 106.248 112.47 106.071 112.534C105.894 112.597 105.711 112.644 105.521 112.674C105.334 112.704 105.149 112.719 104.966 112.719C104.616 112.719 104.291 112.66 103.991 112.544C103.694 112.424 103.436 112.25 103.216 112.024C102.999 111.794 102.829 111.51 102.706 111.174C102.586 110.834 102.526 110.444 102.526 110.004C102.526 109.65 102.581 109.322 102.691 109.019C102.801 108.712 102.958 108.445 103.161 108.219C103.368 107.992 103.619 107.814 103.916 107.684C104.213 107.554 104.546 107.489 104.916 107.489C105.226 107.489 105.511 107.54 105.771 107.644C106.034 107.744 106.261 107.89 106.451 108.084C106.641 108.277 106.789 108.515 106.896 108.799C107.006 109.082 107.061 109.405 107.061 109.769C107.061 109.919 107.044 110.02 107.011 110.074C106.978 110.124 106.916 110.149 106.826 110.149H103.496C103.506 110.452 103.549 110.717 103.626 110.944C103.703 111.167 103.808 111.354 103.941 111.504C104.078 111.654 104.239 111.765 104.426 111.839C104.613 111.912 104.821 111.949 105.051 111.949C105.268 111.949 105.454 111.924 105.611 111.874C105.771 111.824 105.908 111.77 106.021 111.714C106.138 111.654 106.234 111.599 106.311 111.549C106.391 111.499 106.461 111.474 106.521 111.474C106.601 111.474 106.663 111.504 106.706 111.564L106.986 111.924ZM109.029 108.544C109.192 108.21 109.389 107.949 109.619 107.759C109.849 107.569 110.125 107.474 110.449 107.474C110.559 107.474 110.662 107.487 110.759 107.514C110.859 107.537 110.945 107.574 111.019 107.624L110.954 108.359C110.93 108.449 110.875 108.494 110.789 108.494C110.742 108.494 110.672 108.485 110.579 108.469C110.485 108.449 110.385 108.439 110.279 108.439C110.122 108.439 109.984 108.462 109.864 108.509C109.744 108.552 109.635 108.619 109.539 108.709C109.445 108.795 109.362 108.904 109.289 109.034C109.215 109.16 109.147 109.305 109.084 109.469V112.649H108.109V107.569H108.669C108.775 107.569 108.847 107.589 108.884 107.629C108.924 107.665 108.952 107.732 108.969 107.829L109.029 108.544Z" fill="black"/>
</svg>
