<svg width="110" height="69" viewBox="0 0 110 69" fill="none" xmlns="http://www.w3.org/2000/svg">
<path d="M60.7831 33.5479C60.7831 33.5479 58.3772 34.2734 58.0382 34.3882C57.6992 34.5029 56.4392 35.4297 56.4096 36.509C56.38 37.5884 54.8513 40.9581 57.195 40.0017C58.1804 40.1474 59.1819 40.1474 60.1672 40.0017C61.5863 39.7477 64.0233 40.4103 64.3935 40.0017C64.7636 39.593 64.8695 40.1031 64.6466 38.7217C64.4238 37.3404 64.6822 36.7859 64.5837 35.4593C64.4853 34.1328 64.7022 33.7634 63.9004 33.5472C62.8643 33.4352 61.8192 33.4354 60.7831 33.5479Z" fill="white"/>
<path d="M78.2418 12.0342C78.2418 11.6435 78.0866 11.2688 77.8103 10.9925C77.5341 10.7162 77.1594 10.561 76.7687 10.561H44.3994C44.0087 10.561 43.634 10.7162 43.3577 10.9925C43.0815 11.2688 42.9263 11.6435 42.9263 12.0342V30.1902H78.2418V12.0342Z" fill="#4C9DE1"/>
<path d="M78.6401 30.59H42.5273V12.3422C42.5275 11.7639 42.7574 11.2094 43.1664 10.8006C43.5753 10.3918 44.1299 10.1621 44.7082 10.1621H76.46C77.0382 10.1621 77.5927 10.3918 78.0016 10.8006C78.4104 11.2095 78.6401 11.764 78.6401 12.3422V30.59ZM43.3291 29.7912H77.8458V12.3422C77.8459 12.1606 77.8102 11.9807 77.7408 11.8129C77.6713 11.6451 77.5695 11.4926 77.441 11.3642C77.3126 11.2358 77.1601 11.1339 76.9923 11.0644C76.8245 10.995 76.6446 10.9593 76.463 10.9594H44.7082C44.5266 10.9593 44.3467 10.995 44.1789 11.0644C44.0111 11.1339 43.8586 11.2358 43.7302 11.3642C43.6017 11.4926 43.4999 11.6451 43.4304 11.8129C43.361 11.9807 43.3253 12.1606 43.3254 12.3422L43.3291 29.7912Z" fill="#577D9E"/>
<path d="M45.8955 35.967H75.2711C75.6611 35.9671 76.0473 35.8904 76.4076 35.7412C76.7679 35.5921 77.0953 35.3734 77.3711 35.0976C77.6469 34.8219 77.8657 34.4945 78.015 34.1342C78.1642 33.774 78.2411 33.3878 78.2411 32.9978V30.1899H42.9263V32.9978C42.9263 33.7853 43.2391 34.5405 43.7959 35.0974C44.3528 35.6542 45.108 35.967 45.8955 35.967Z" fill="white"/>
<path d="M75.2712 36.3676H45.8963C45.0031 36.3666 44.1468 36.0114 43.5152 35.3798C42.8836 34.7482 42.5283 33.8918 42.5273 32.9986V29.791H78.6401V32.9986C78.6392 33.8918 78.2839 34.7482 77.6523 35.3798C77.0207 36.0114 76.1644 36.3666 75.2712 36.3676ZM43.3254 30.5935V33.0023C43.3261 33.6838 43.5972 34.3372 44.079 34.8192C44.5608 35.3011 45.2141 35.5723 45.8956 35.5733H75.2712C75.9528 35.5725 76.6063 35.3014 77.0882 34.8194C77.5702 34.3374 77.8413 33.6839 77.8421 33.0023V30.5935H43.3254Z" fill="#577D9E"/>
<path d="M55.5155 40.3763L55.2505 39.6234C55.8227 39.4213 55.9863 38.527 56.0085 38.3842V35.748H56.8058V38.4597C56.7962 38.5219 56.6074 39.9906 55.5155 40.3763Z" fill="#577D9E"/>
<path d="M65.4726 40.377C64.3807 39.9913 64.1927 38.5219 64.186 38.4604V38.413V35.748H64.9841V38.3856C65.027 38.6892 65.2372 39.4457 65.7421 39.6234L65.4726 40.377Z" fill="#577D9E"/>
<path d="M66.3146 39.5996H54.6753V40.3976H66.3146V39.5996Z" fill="#577D9E"/>
<path d="M28.2705 17.686H58.4974C58.8508 17.686 59.1897 17.8264 59.4396 18.0763C59.6895 18.3262 59.8299 18.6651 59.8299 19.0185V36.1833C59.8299 36.5367 59.6895 36.8756 59.4396 37.1255C59.1897 37.3754 58.8508 37.5158 58.4974 37.5158H28.2705C27.9171 37.5158 27.5782 37.3754 27.3283 37.1255C27.0784 36.8756 26.938 36.5367 26.938 36.1833V19.0185C26.938 18.6651 27.0784 18.3262 27.3283 18.0763C27.5782 17.8264 27.9171 17.686 28.2705 17.686Z" fill="#9AC3E6" stroke="#577D9E" stroke-width="0.740274"/>
<path d="M60.6251 40.4009H25.7915C24.5856 40.4009 23.6077 39.2165 23.6069 37.7508V37.5176H62.8052V37.7508C62.8037 39.2121 61.8295 40.3972 60.6251 40.4009Z" fill="#F8FBFD" stroke="#577D9E" stroke-width="0.740274" stroke-miterlimit="10"/>
<path d="M46.2101 39.2511H40.4915C40.3369 39.2506 40.1885 39.1907 40.077 39.0838C39.9655 38.9768 39.8994 38.831 39.8926 38.6766V38.6685H46.8104V38.6744C46.804 38.8293 46.7379 38.9758 46.626 39.0833C46.5142 39.1907 46.3652 39.2508 46.2101 39.2511Z" fill="#577D9E"/>
<path d="M82.1774 21.8389H73.3311C72.8209 21.8389 72.4072 22.2525 72.4072 22.7627V39.165C72.4072 39.6752 72.8209 40.0889 73.3311 40.0889H82.1774C82.6876 40.0889 83.1012 39.6752 83.1012 39.165V22.7627C83.1012 22.2525 82.6876 21.8389 82.1774 21.8389Z" fill="white"/>
<path d="M83.4166 37.0515H72.4072V23.0196C72.4071 22.8227 72.4458 22.6278 72.5211 22.446C72.5963 22.2641 72.7067 22.0988 72.8458 21.9596C72.9849 21.8204 73.1502 21.71 73.332 21.6346C73.5138 21.5593 73.7087 21.5205 73.9055 21.5205H81.8213C82.2444 21.5205 82.6502 21.6886 82.9493 21.9878C83.2485 22.2869 83.4166 22.6927 83.4166 23.1158V37.0515Z" fill="#C4E4FF"/>
<path d="M77.7552 39.1573C78.2016 39.1573 78.5635 38.7954 78.5635 38.3489C78.5635 37.9025 78.2016 37.5405 77.7552 37.5405C77.3087 37.5405 76.9468 37.9025 76.9468 38.3489C76.9468 38.7954 77.3087 39.1573 77.7552 39.1573Z" fill="#577D9E"/>
<path d="M78.9115 22.7524H76.5959C76.5149 22.7524 76.4372 22.7846 76.38 22.8419C76.3227 22.8991 76.2905 22.9768 76.2905 23.0578C76.2905 23.1388 76.3227 23.2165 76.38 23.2737C76.4372 23.331 76.5149 23.3632 76.5959 23.3632H78.9115C78.9925 23.3632 79.0701 23.331 79.1274 23.2737C79.1847 23.2165 79.2168 23.1388 79.2168 23.0578C79.2168 22.9768 79.1847 22.8991 79.1274 22.8419C79.0701 22.7846 78.9925 22.7524 78.9115 22.7524Z" fill="#577D9E"/>
<path d="M81.9634 40.3997H73.5435C73.1586 40.3993 72.7896 40.2463 72.5174 39.9741C72.2453 39.702 72.0922 39.3329 72.0918 38.9481V22.9722C72.0922 22.5873 72.2453 22.2183 72.5174 21.9461C72.7896 21.674 73.1586 21.5209 73.5435 21.5205H81.9634C82.3484 21.5207 82.7177 21.6737 82.9902 21.9458C83.2626 22.218 83.4159 22.5871 83.4165 22.9722V38.9481C83.4159 39.3331 83.2626 39.7022 82.9902 39.9744C82.7177 40.2466 82.3484 40.3995 81.9634 40.3997ZM73.5442 21.8359C73.2428 21.8361 72.9538 21.9558 72.7407 22.1689C72.5275 22.3819 72.4075 22.6708 72.4072 22.9722V38.9481C72.4075 39.2496 72.5274 39.5386 72.7406 39.7519C72.9537 39.9652 73.2427 40.0853 73.5442 40.0858H81.9634C82.2649 40.0855 82.554 39.9654 82.7672 39.7521C82.9804 39.5388 83.1002 39.2496 83.1004 38.9481V22.9722C83.1 22.6708 82.9801 22.3819 82.7669 22.1689C82.5537 21.9558 82.2647 21.8361 81.9634 21.8359H73.5442Z" fill="#577D9E" stroke="#577D9E" stroke-width="0.4" stroke-miterlimit="10"/>
<path d="M86.393 11.7189L84.6511 11.9491L85.7564 10.4982L84.8755 10L84.1656 11.6286L83.443 10.0133L82.5547 10.5241L83.6474 11.9388L81.9551 11.7167V12.7168L83.6577 12.4984L82.5562 13.9101L83.3956 14.4394L84.1552 12.796L84.8547 14.4246L85.7742 13.9005L84.6585 12.5095L86.393 12.7168V11.7189Z" fill="#E85E15"/>
<path d="M10.7422 56.4009V49.2427H12.168L13.8623 54.311C14.0186 54.783 14.1325 55.1362 14.2041 55.3706C14.2855 55.1102 14.4124 54.7277 14.585 54.2231L16.2988 49.2427H17.5732V56.4009H16.6602V50.4097L14.5801 56.4009H13.7256L11.6553 50.3071V56.4009H10.7422ZM22.373 55.7612C22.0475 56.0379 21.7334 56.2332 21.4307 56.3472C21.1312 56.4611 20.8089 56.5181 20.4639 56.5181C19.8942 56.5181 19.4564 56.3797 19.1504 56.103C18.8444 55.8231 18.6914 55.4666 18.6914 55.0337C18.6914 54.7798 18.7484 54.5487 18.8623 54.3403C18.9795 54.1287 19.1309 53.9595 19.3164 53.8325C19.5052 53.7056 19.7168 53.6095 19.9512 53.5444C20.1237 53.4989 20.3841 53.4549 20.7324 53.4126C21.4421 53.328 21.9645 53.2271 22.2998 53.1099C22.3031 52.9894 22.3047 52.9129 22.3047 52.8804C22.3047 52.5223 22.2217 52.27 22.0557 52.1235C21.8311 51.925 21.4974 51.8257 21.0547 51.8257C20.6413 51.8257 20.3353 51.8989 20.1367 52.0454C19.9414 52.1886 19.7965 52.4442 19.7021 52.812L18.8428 52.6948C18.9209 52.327 19.0495 52.0308 19.2285 51.8062C19.4076 51.5783 19.6663 51.4041 20.0049 51.2837C20.3434 51.16 20.7357 51.0981 21.1816 51.0981C21.6243 51.0981 21.984 51.1502 22.2607 51.2544C22.5374 51.3586 22.7409 51.4904 22.8711 51.6499C23.0013 51.8062 23.0924 52.0047 23.1445 52.2456C23.1738 52.3953 23.1885 52.6655 23.1885 53.0562V54.228C23.1885 55.0451 23.2064 55.5627 23.2422 55.7808C23.2812 55.9956 23.3561 56.2023 23.4668 56.4009H22.5488C22.4577 56.2186 22.3991 56.0054 22.373 55.7612ZM22.2998 53.7983C21.9808 53.9285 21.5023 54.0392 20.8643 54.1304C20.5029 54.1825 20.2474 54.241 20.0977 54.3062C19.9479 54.3713 19.8324 54.4673 19.751 54.5942C19.6696 54.7179 19.6289 54.8563 19.6289 55.0093C19.6289 55.2437 19.7168 55.439 19.8926 55.5952C20.0716 55.7515 20.332 55.8296 20.6738 55.8296C21.0124 55.8296 21.3135 55.7563 21.5771 55.6099C21.8408 55.4601 22.0345 55.2567 22.1582 54.9995C22.2526 54.8009 22.2998 54.508 22.2998 54.1206V53.7983ZM24.5557 56.4009V51.2153H25.3467V51.9526C25.7275 51.383 26.2777 51.0981 26.9971 51.0981C27.3096 51.0981 27.596 51.1551 27.8564 51.269C28.1201 51.3797 28.3171 51.5262 28.4473 51.7085C28.5775 51.8908 28.6686 52.1073 28.7207 52.3579C28.7533 52.5207 28.7695 52.8055 28.7695 53.2124V56.4009H27.8906V53.2466C27.8906 52.8885 27.8564 52.6216 27.7881 52.4458C27.7197 52.2668 27.5977 52.1252 27.4219 52.021C27.2493 51.9136 27.0459 51.8599 26.8115 51.8599C26.4372 51.8599 26.1133 51.9787 25.8398 52.2163C25.5697 52.4539 25.4346 52.9048 25.4346 53.5688V56.4009H24.5557ZM33.5059 55.7612C33.1803 56.0379 32.8662 56.2332 32.5635 56.3472C32.264 56.4611 31.9417 56.5181 31.5967 56.5181C31.027 56.5181 30.5892 56.3797 30.2832 56.103C29.9772 55.8231 29.8242 55.4666 29.8242 55.0337C29.8242 54.7798 29.8812 54.5487 29.9951 54.3403C30.1123 54.1287 30.2637 53.9595 30.4492 53.8325C30.638 53.7056 30.8496 53.6095 31.084 53.5444C31.2565 53.4989 31.5169 53.4549 31.8652 53.4126C32.5749 53.328 33.0973 53.2271 33.4326 53.1099C33.4359 52.9894 33.4375 52.9129 33.4375 52.8804C33.4375 52.5223 33.3545 52.27 33.1885 52.1235C32.9639 51.925 32.6302 51.8257 32.1875 51.8257C31.7741 51.8257 31.4681 51.8989 31.2695 52.0454C31.0742 52.1886 30.9294 52.4442 30.835 52.812L29.9756 52.6948C30.0537 52.327 30.1823 52.0308 30.3613 51.8062C30.5404 51.5783 30.7992 51.4041 31.1377 51.2837C31.4762 51.16 31.8685 51.0981 32.3145 51.0981C32.7572 51.0981 33.1169 51.1502 33.3936 51.2544C33.6702 51.3586 33.8737 51.4904 34.0039 51.6499C34.1341 51.8062 34.2253 52.0047 34.2773 52.2456C34.3066 52.3953 34.3213 52.6655 34.3213 53.0562V54.228C34.3213 55.0451 34.3392 55.5627 34.375 55.7808C34.4141 55.9956 34.4889 56.2023 34.5996 56.4009H33.6816C33.5905 56.2186 33.5319 56.0054 33.5059 55.7612ZM33.4326 53.7983C33.1136 53.9285 32.6351 54.0392 31.9971 54.1304C31.6357 54.1825 31.3802 54.241 31.2305 54.3062C31.0807 54.3713 30.9652 54.4673 30.8838 54.5942C30.8024 54.7179 30.7617 54.8563 30.7617 55.0093C30.7617 55.2437 30.8496 55.439 31.0254 55.5952C31.2044 55.7515 31.4648 55.8296 31.8066 55.8296C32.1452 55.8296 32.4463 55.7563 32.71 55.6099C32.9736 55.4601 33.1673 55.2567 33.291 54.9995C33.3854 54.8009 33.4326 54.508 33.4326 54.1206V53.7983ZM35.5273 56.8306L36.3818 56.9575C36.4176 57.2212 36.5169 57.4132 36.6797 57.5337C36.8978 57.6965 37.1956 57.7778 37.5732 57.7778C37.9801 57.7778 38.2943 57.6965 38.5156 57.5337C38.737 57.3709 38.8867 57.1431 38.9648 56.8501C39.0104 56.6711 39.0316 56.2951 39.0283 55.7222C38.6442 56.1746 38.1657 56.4009 37.5928 56.4009C36.8799 56.4009 36.3281 56.1437 35.9375 55.6294C35.5469 55.1151 35.3516 54.4982 35.3516 53.7788C35.3516 53.284 35.4411 52.8283 35.6201 52.4116C35.7992 51.9917 36.0579 51.6678 36.3965 51.4399C36.7383 51.2121 37.1387 51.0981 37.5977 51.0981C38.2096 51.0981 38.7142 51.3455 39.1113 51.8403V51.2153H39.9219V55.6978C39.9219 56.505 39.8389 57.0763 39.6729 57.4116C39.5101 57.7502 39.2497 58.0171 38.8916 58.2124C38.5368 58.4077 38.099 58.5054 37.5781 58.5054C36.9596 58.5054 36.46 58.3654 36.0791 58.0854C35.6982 57.8088 35.5143 57.3905 35.5273 56.8306ZM36.2549 53.7153C36.2549 54.3957 36.39 54.8921 36.6602 55.2046C36.9303 55.5171 37.2689 55.6733 37.6758 55.6733C38.0794 55.6733 38.418 55.5187 38.6914 55.2095C38.9648 54.897 39.1016 54.4087 39.1016 53.7446C39.1016 53.1099 38.96 52.6313 38.6768 52.3091C38.3968 51.9868 38.0583 51.8257 37.6611 51.8257C37.2705 51.8257 36.9385 51.9852 36.665 52.3042C36.3916 52.62 36.2549 53.0903 36.2549 53.7153ZM44.8047 54.731L45.7129 54.8433C45.5697 55.3739 45.3044 55.7856 44.917 56.0786C44.5296 56.3716 44.0348 56.5181 43.4326 56.5181C42.6742 56.5181 42.0719 56.2853 41.626 55.8198C41.1833 55.3511 40.9619 54.6951 40.9619 53.8521C40.9619 52.9797 41.1865 52.3026 41.6357 51.8208C42.085 51.339 42.6676 51.0981 43.3838 51.0981C44.0771 51.0981 44.6436 51.3341 45.083 51.8062C45.5225 52.2782 45.7422 52.9422 45.7422 53.7983C45.7422 53.8504 45.7406 53.9285 45.7373 54.0327H41.8701C41.9027 54.6024 42.0638 55.0386 42.3535 55.3413C42.6432 55.644 43.0046 55.7954 43.4375 55.7954C43.7598 55.7954 44.0348 55.7108 44.2627 55.5415C44.4906 55.3722 44.6712 55.1021 44.8047 54.731ZM41.9189 53.3101H44.8145C44.7754 52.8739 44.6647 52.5467 44.4824 52.3286C44.2025 51.9901 43.8395 51.8208 43.3936 51.8208C42.9899 51.8208 42.6497 51.9559 42.373 52.2261C42.0996 52.4963 41.9482 52.8576 41.9189 53.3101ZM50.1855 56.4009V55.7466C49.8568 56.2609 49.3734 56.5181 48.7354 56.5181C48.3219 56.5181 47.9411 56.4041 47.5928 56.1763C47.2477 55.9484 46.9792 55.631 46.7871 55.2241C46.5983 54.814 46.5039 54.3436 46.5039 53.813C46.5039 53.2954 46.5902 52.8267 46.7627 52.4067C46.9352 51.9836 47.194 51.6597 47.5391 51.4351C47.8841 51.2104 48.2699 51.0981 48.6963 51.0981C49.0088 51.0981 49.2871 51.1649 49.5312 51.2983C49.7754 51.4285 49.974 51.5994 50.127 51.811V49.2427H51.001V56.4009H50.1855ZM47.4072 53.813C47.4072 54.4771 47.5472 54.9735 47.8271 55.3022C48.1071 55.631 48.4375 55.7954 48.8184 55.7954C49.2025 55.7954 49.528 55.6392 49.7949 55.3267C50.0651 55.0109 50.2002 54.5308 50.2002 53.8862C50.2002 53.1766 50.0635 52.6558 49.79 52.3237C49.5166 51.9917 49.1797 51.8257 48.7793 51.8257C48.3887 51.8257 48.0615 51.9852 47.7979 52.3042C47.5374 52.6232 47.4072 53.1261 47.4072 53.813ZM55.3027 56.4009V49.2427H60.4785V50.0874H56.25V52.2798H60.21V53.1196H56.25V55.5562H60.6445V56.4009H55.3027ZM61.8408 56.4009V51.2153H62.6318V51.9526C63.0127 51.383 63.5628 51.0981 64.2822 51.0981C64.5947 51.0981 64.8812 51.1551 65.1416 51.269C65.4053 51.3797 65.6022 51.5262 65.7324 51.7085C65.8626 51.8908 65.9538 52.1073 66.0059 52.3579C66.0384 52.5207 66.0547 52.8055 66.0547 53.2124V56.4009H65.1758V53.2466C65.1758 52.8885 65.1416 52.6216 65.0732 52.4458C65.0049 52.2668 64.8828 52.1252 64.707 52.021C64.5345 51.9136 64.3311 51.8599 64.0967 51.8599C63.7223 51.8599 63.3984 51.9787 63.125 52.2163C62.8548 52.4539 62.7197 52.9048 62.7197 53.5688V56.4009H61.8408ZM70.7715 56.4009V55.7466C70.4427 56.2609 69.9593 56.5181 69.3213 56.5181C68.9079 56.5181 68.527 56.4041 68.1787 56.1763C67.8337 55.9484 67.5651 55.631 67.373 55.2241C67.1842 54.814 67.0898 54.3436 67.0898 53.813C67.0898 53.2954 67.1761 52.8267 67.3486 52.4067C67.5212 51.9836 67.7799 51.6597 68.125 51.4351C68.4701 51.2104 68.8558 51.0981 69.2822 51.0981C69.5947 51.0981 69.873 51.1649 70.1172 51.2983C70.3613 51.4285 70.5599 51.5994 70.7129 51.811V49.2427H71.5869V56.4009H70.7715ZM67.9932 53.813C67.9932 54.4771 68.1331 54.9735 68.4131 55.3022C68.693 55.631 69.0234 55.7954 69.4043 55.7954C69.7884 55.7954 70.1139 55.6392 70.3809 55.3267C70.651 55.0109 70.7861 54.5308 70.7861 53.8862C70.7861 53.1766 70.6494 52.6558 70.376 52.3237C70.1025 51.9917 69.7656 51.8257 69.3652 51.8257C68.9746 51.8257 68.6475 51.9852 68.3838 52.3042C68.1234 52.6232 67.9932 53.1261 67.9932 53.813ZM72.9736 58.3882V51.2153H73.7744V51.8892C73.9632 51.6255 74.1764 51.4285 74.4141 51.2983C74.6517 51.1649 74.9398 51.0981 75.2783 51.0981C75.721 51.0981 76.1117 51.2121 76.4502 51.4399C76.7887 51.6678 77.0443 51.9901 77.2168 52.4067C77.3893 52.8201 77.4756 53.2743 77.4756 53.769C77.4756 54.2996 77.3796 54.7782 77.1875 55.2046C76.9987 55.6278 76.722 55.9533 76.3574 56.1812C75.9961 56.4058 75.6152 56.5181 75.2148 56.5181C74.9219 56.5181 74.6582 56.4562 74.4238 56.3325C74.1927 56.2088 74.0023 56.0526 73.8525 55.8638V58.3882H72.9736ZM73.7695 53.8374C73.7695 54.5047 73.9046 54.9979 74.1748 55.3169C74.445 55.6359 74.7721 55.7954 75.1562 55.7954C75.5469 55.7954 75.8805 55.631 76.1572 55.3022C76.4372 54.9702 76.5771 54.4575 76.5771 53.7642C76.5771 53.1034 76.4404 52.6086 76.167 52.2798C75.8968 51.951 75.5729 51.7866 75.1953 51.7866C74.821 51.7866 74.4889 51.9624 74.1992 52.314C73.9128 52.6623 73.7695 53.1701 73.7695 53.8374ZM78.2129 53.8081C78.2129 52.8478 78.4798 52.1366 79.0137 51.6743C79.4596 51.2902 80.0033 51.0981 80.6445 51.0981C81.3574 51.0981 81.9401 51.3325 82.3926 51.8013C82.8451 52.2668 83.0713 52.9113 83.0713 53.7349C83.0713 54.4022 82.9704 54.9279 82.7686 55.312C82.57 55.6929 82.2786 55.9891 81.8945 56.2007C81.5137 56.4123 81.097 56.5181 80.6445 56.5181C79.9186 56.5181 79.3311 56.2853 78.8818 55.8198C78.4359 55.3543 78.2129 54.6838 78.2129 53.8081ZM79.1162 53.8081C79.1162 54.4722 79.2611 54.9702 79.5508 55.3022C79.8405 55.631 80.2051 55.7954 80.6445 55.7954C81.0807 55.7954 81.4437 55.6294 81.7334 55.2974C82.0231 54.9653 82.168 54.4591 82.168 53.7788C82.168 53.1375 82.0215 52.6525 81.7285 52.3237C81.4388 51.9917 81.0775 51.8257 80.6445 51.8257C80.2051 51.8257 79.8405 51.9901 79.5508 52.3188C79.2611 52.6476 79.1162 53.144 79.1162 53.8081ZM84.1113 50.2534V49.2427H84.9902V50.2534H84.1113ZM84.1113 56.4009V51.2153H84.9902V56.4009H84.1113ZM86.333 56.4009V51.2153H87.124V51.9526C87.5049 51.383 88.055 51.0981 88.7744 51.0981C89.0869 51.0981 89.3734 51.1551 89.6338 51.269C89.8975 51.3797 90.0944 51.5262 90.2246 51.7085C90.3548 51.8908 90.446 52.1073 90.498 52.3579C90.5306 52.5207 90.5469 52.8055 90.5469 53.2124V56.4009H89.668V53.2466C89.668 52.8885 89.6338 52.6216 89.5654 52.4458C89.4971 52.2668 89.375 52.1252 89.1992 52.021C89.0267 51.9136 88.8232 51.8599 88.5889 51.8599C88.2145 51.8599 87.8906 51.9787 87.6172 52.2163C87.347 52.4539 87.2119 52.9048 87.2119 53.5688V56.4009H86.333ZM93.8184 55.6147L93.9453 56.3911C93.6979 56.4432 93.4766 56.4692 93.2812 56.4692C92.9622 56.4692 92.7148 56.4188 92.5391 56.3179C92.3633 56.217 92.2396 56.0851 92.168 55.9224C92.0964 55.7563 92.0605 55.4097 92.0605 54.8823V51.8989H91.416V51.2153H92.0605V49.9312L92.9346 49.4038V51.2153H93.8184V51.8989H92.9346V54.9312C92.9346 55.1818 92.9492 55.3429 92.9785 55.4146C93.0111 55.4862 93.0615 55.5431 93.1299 55.5854C93.2015 55.6278 93.3024 55.6489 93.4326 55.6489C93.5303 55.6489 93.6589 55.6375 93.8184 55.6147ZM94.3311 54.853L95.2002 54.7163C95.249 55.0646 95.3841 55.3315 95.6055 55.5171C95.8301 55.7026 96.1426 55.7954 96.543 55.7954C96.9466 55.7954 97.2461 55.714 97.4414 55.5513C97.6367 55.3853 97.7344 55.1916 97.7344 54.9702C97.7344 54.7716 97.6481 54.6154 97.4756 54.5015C97.3551 54.4233 97.0557 54.3241 96.5771 54.2036C95.9326 54.0409 95.485 53.9009 95.2344 53.7837C94.987 53.6632 94.7982 53.4989 94.668 53.2905C94.541 53.0789 94.4775 52.8462 94.4775 52.5923C94.4775 52.3612 94.5296 52.1479 94.6338 51.9526C94.7412 51.7541 94.8861 51.5897 95.0684 51.4595C95.2051 51.3586 95.3906 51.2739 95.625 51.2056C95.8626 51.134 96.1165 51.0981 96.3867 51.0981C96.7936 51.0981 97.1501 51.1567 97.4561 51.2739C97.7653 51.3911 97.9932 51.5506 98.1396 51.7524C98.2861 51.951 98.387 52.2179 98.4424 52.5532L97.583 52.6704C97.5439 52.4035 97.43 52.1951 97.2412 52.0454C97.0557 51.8957 96.792 51.8208 96.4502 51.8208C96.0465 51.8208 95.7585 51.8875 95.5859 52.021C95.4134 52.1545 95.3271 52.3107 95.3271 52.4897C95.3271 52.6037 95.363 52.7062 95.4346 52.7974C95.5062 52.8918 95.6185 52.9699 95.7715 53.0317C95.8594 53.0643 96.1182 53.1392 96.5479 53.2563C97.1696 53.4224 97.6025 53.5591 97.8467 53.6665C98.0941 53.7707 98.2878 53.9237 98.4277 54.1255C98.5677 54.3273 98.6377 54.578 98.6377 54.8774C98.6377 55.1704 98.5514 55.4471 98.3789 55.7075C98.2096 55.9647 97.9639 56.1649 97.6416 56.3081C97.3193 56.4481 96.9548 56.5181 96.5479 56.5181C95.874 56.5181 95.3597 56.3781 95.0049 56.0981C94.6533 55.8182 94.4287 55.4032 94.3311 54.853Z" fill="black"/>
</svg>
