<svg width="136" height="87" viewBox="0 0 136 87" fill="none" xmlns="http://www.w3.org/2000/svg">
<path d="M75.4096 39.4629L75.4192 39.4459C75.5578 39.2125 75.6211 38.9422 75.6005 38.6716L75.5909 37.5086V35.8615C75.5978 35.7414 75.5845 35.6211 75.5517 35.5054C75.5237 35.4195 75.4697 35.3443 75.3972 35.2903C75.3246 35.2364 75.2371 35.2062 75.1468 35.2041C75.0533 35.205 74.9631 35.238 74.8911 35.2976C74.8191 35.3572 74.7698 35.4397 74.7515 35.5313C74.7383 35.6227 74.7058 35.7103 74.656 35.788C74.6062 35.8658 74.5403 35.932 74.4628 35.9821C74.1348 36.2137 73.7716 36.3907 73.3871 36.5062C72.6752 36.7372 71.9441 36.9045 71.2026 37.0059C70.8028 37.0686 70.4014 37.116 69.9982 37.1481C69.574 37.1806 69.1483 37.2095 68.7241 37.2221C68.0786 37.2369 67.4324 37.2443 66.7854 37.1969C66.1983 37.154 65.6105 37.1229 65.0257 37.0489C64.6682 37.003 64.3128 36.9489 63.959 36.8838C63.5588 36.811 63.1633 36.7143 62.7746 36.5944C62.3505 36.4863 61.945 36.3154 61.5716 36.0873C61.4592 36.0338 61.3612 35.9542 61.2857 35.8552C61.2103 35.7562 61.1596 35.6406 61.1378 35.518C61.1179 35.4285 61.0675 35.3487 60.9953 35.2922C60.923 35.2358 60.8334 35.2062 60.7418 35.2086C60.6513 35.2117 60.5641 35.243 60.4924 35.2983C60.4207 35.3535 60.3681 35.4298 60.342 35.5165C60.3122 35.6163 60.2995 35.7204 60.3043 35.8245C60.3043 36.2375 60.3043 36.6506 60.3043 37.0637L60.2983 38.3377C60.2983 38.3547 60.2983 38.3717 60.2983 38.3895V38.5694H60.3035C60.3035 38.6679 60.3035 38.7663 60.3102 38.8655C60.3133 39.0184 60.346 39.1692 60.4064 39.3097C60.6057 39.7039 60.9345 40.0175 61.3377 40.198C61.896 40.4799 62.4867 40.6925 63.0966 40.8309C63.5844 40.9553 64.0819 41.0419 64.5771 41.1174C64.9917 41.1803 65.4099 41.2262 65.8282 41.2655C66.2598 41.3032 66.6943 41.3239 67.1259 41.3336C67.804 41.3491 68.4821 41.3558 69.1616 41.3099C69.7539 41.2692 70.3513 41.2359 70.9435 41.1618C71.3876 41.1041 71.8318 41.0345 72.2701 40.9472C72.8083 40.8428 73.3377 40.697 73.8535 40.5111C74.3333 40.3612 74.7768 40.1131 75.1556 39.7827C75.2505 39.6949 75.3338 39.5954 75.4036 39.4866L75.4096 39.4629Z" fill="#A6B1B7"/>
<path d="M60.3761 32.4864C60.4818 32.7619 60.6674 32.9996 60.9091 33.1689C61.2571 33.4211 61.6412 33.6192 62.0484 33.7567C62.2705 33.8366 62.3083 33.9047 62.2616 34.1313C62.258 34.151 62.2563 34.1711 62.2564 34.1912C62.2564 34.5206 62.252 34.8501 62.2564 35.1795C62.2586 35.2644 62.2878 35.3464 62.3397 35.4136C62.3916 35.4808 62.4635 35.5298 62.5451 35.5533C63.1683 35.7323 63.8023 35.871 64.4432 35.9686C64.8456 36.0383 65.2513 36.0877 65.6587 36.1167C66.1429 36.1478 66.6255 36.2055 67.1126 36.1981C67.1526 36.1981 67.1926 36.2048 67.2326 36.2077C67.4972 36.2267 67.7627 36.2294 68.0276 36.2159C68.1169 36.2106 68.2009 36.1719 68.2628 36.1074C68.3247 36.0429 68.3599 35.9573 68.3615 35.8679C68.3665 35.8218 68.3623 35.7752 68.3491 35.7308C68.3359 35.6863 68.314 35.6449 68.2846 35.609C68.2553 35.5731 68.219 35.5434 68.1781 35.5217C68.1372 35.4999 68.0923 35.4865 68.0461 35.4823C67.8265 35.4606 67.6058 35.4512 67.3851 35.4541C66.8965 35.4356 66.4079 35.4252 65.9201 35.3801C65.4937 35.3406 65.0685 35.2927 64.6446 35.2365C64.1789 35.1743 63.7237 35.0692 63.2639 34.9796C63.0663 34.9411 63.0278 34.89 63.0285 34.6835C63.0285 34.5628 63.0285 34.4422 63.0285 34.3215C63.033 34.1572 63.1166 34.0868 63.2758 34.1179C63.5023 34.1616 63.7281 34.209 63.9539 34.2549C64.3936 34.3459 64.8422 34.4029 65.2864 34.4488C65.7757 34.5014 66.268 34.5473 66.7617 34.5584C67.1778 34.5673 67.5945 34.6043 68.0106 34.5947C68.4399 34.585 68.8686 34.5628 69.2979 34.5547C69.4827 34.554 69.6672 34.5436 69.8509 34.5236C70.3632 34.4592 70.8791 34.437 71.3892 34.3459C71.7734 34.2771 72.1598 34.2201 72.5403 34.1298C72.7017 34.0913 72.815 34.1475 72.8194 34.2778C72.8246 34.4548 72.8194 34.6317 72.8194 34.8086C72.8218 34.8452 72.8113 34.8815 72.7899 34.9112C72.7684 34.9409 72.7372 34.9622 72.7017 34.9715C72.5981 35.0026 72.4929 35.0285 72.3871 35.0499C72.128 35.1018 71.8689 35.1484 71.6098 35.198C71.5407 35.2141 71.4782 35.2512 71.431 35.3042C71.3838 35.3572 71.3542 35.4236 71.3463 35.4941C71.3354 35.5583 71.3413 35.6243 71.3635 35.6856C71.3857 35.7469 71.4234 35.8014 71.4728 35.8438C71.5223 35.8862 71.5819 35.9151 71.6459 35.9276C71.7099 35.9401 71.776 35.9359 71.8378 35.9153C72.2864 35.8354 72.7335 35.7443 73.1747 35.6266C73.4938 35.5415 73.5915 35.4267 73.5915 35.0914C73.5915 34.7338 73.5915 34.3763 73.5915 34.0187C73.5849 33.9693 73.5962 33.9192 73.6233 33.8773C73.6505 33.8355 73.6917 33.8048 73.7396 33.7907C74.1296 33.6573 74.5024 33.4779 74.85 33.2563C75.086 33.1211 75.28 32.9233 75.4106 32.6847C75.5413 32.4462 75.6034 32.1762 75.5903 31.9045C75.5754 31.447 75.5903 30.9888 75.5903 30.5306C75.5903 30.0316 75.5903 29.5332 75.5903 29.0352C75.5912 28.9471 75.5795 28.8594 75.5555 28.7746C75.5433 28.7215 75.5207 28.6714 75.489 28.6271C75.4572 28.5828 75.417 28.5452 75.3707 28.5166C75.3244 28.4879 75.2728 28.4688 75.219 28.4602C75.1652 28.4516 75.1102 28.4538 75.0573 28.4667C74.9638 28.4857 74.8805 28.5382 74.823 28.6142C74.7655 28.6902 74.7377 28.7847 74.7449 28.8797C74.7496 28.9481 74.7393 29.0168 74.7146 29.0807C74.6899 29.1447 74.6515 29.2024 74.602 29.2499C74.4732 29.3767 74.3268 29.4844 74.1674 29.5697C73.7758 29.7725 73.3629 29.9314 72.9364 30.0435C72.4698 30.1732 71.9959 30.275 71.5173 30.3484C71.2522 30.3899 70.9867 30.4269 70.7207 30.4595C70.5068 30.4861 70.2928 30.5084 70.0789 30.5283C69.9827 30.5446 69.8317 30.5572 69.6481 30.5676C69.2987 30.5883 66.7033 30.5905 66.7033 30.5905C66.3183 30.572 65.9349 30.5417 65.5521 30.5032C65.2091 30.4686 64.8681 30.425 64.5291 30.3721C64.3107 30.3381 64.0916 30.3129 63.8769 30.2655C63.4177 30.1726 62.9642 30.0537 62.5185 29.9095C62.15 29.7979 61.8006 29.6312 61.4821 29.415C61.3833 29.3645 61.3002 29.2879 61.2419 29.1936C61.1836 29.0992 61.1522 28.9907 61.1512 28.8797C61.1581 28.7947 61.137 28.7098 61.0912 28.6379C61.0454 28.566 60.9773 28.5111 60.8973 28.4815C60.8113 28.45 60.7173 28.4474 60.6297 28.4741C60.542 28.5009 60.4655 28.5554 60.4117 28.6295C60.3412 28.723 60.3044 28.8375 60.3073 28.9545C60.3073 29.2084 60.3073 29.4616 60.3073 29.7148V31.0761C60.3073 31.4137 60.3073 31.7513 60.3073 32.0888C60.3083 32.2242 60.3315 32.3585 60.3761 32.4864Z" fill="#A6B1B7"/>
<path d="M60.3011 24.3523C60.3019 24.3654 60.3019 24.3785 60.3011 24.3915C60.2966 24.7254 60.3011 25.0578 60.3011 25.3924C60.3007 25.5364 60.3113 25.6801 60.3329 25.8225C60.3984 26.1612 60.5923 26.4614 60.8741 26.6605C61.2472 26.9398 61.6642 27.1549 62.1081 27.2971C62.1557 27.3095 62.1971 27.339 62.2244 27.3799C62.2517 27.4209 62.263 27.4705 62.2562 27.5192C62.248 27.8686 62.2495 28.2188 62.2502 28.5689C62.2478 28.654 62.2732 28.7376 62.3224 28.807C62.3717 28.8765 62.4423 28.928 62.5234 28.9538C62.6914 29.0057 62.8602 29.0575 63.032 29.1019C63.5065 29.2144 63.9854 29.3106 64.4666 29.3862C64.8819 29.4513 65.3002 29.5053 65.7192 29.5342C66.2551 29.5675 66.7896 29.6341 67.3278 29.6156C67.4282 29.6143 67.5285 29.6192 67.6283 29.6305C67.7485 29.6419 67.8694 29.6419 67.9896 29.6305C68.0909 29.6276 68.1869 29.5846 68.2565 29.511C68.3262 29.4373 68.3637 29.339 68.3608 29.2377C68.358 29.1364 68.315 29.0404 68.2414 28.9708C68.1677 28.9012 68.0694 28.8636 67.9681 28.8665C67.2974 28.862 66.6275 28.8606 65.959 28.7925C65.6681 28.7643 65.3764 28.7406 65.0862 28.7051C64.6539 28.6518 64.2216 28.5911 63.7952 28.4971C63.5842 28.4505 63.371 28.4164 63.1637 28.349C63.0897 28.3253 63.0283 28.2876 63.0253 28.201C63.0216 28.0529 63.0201 27.9115 63.0253 27.7672C63.0281 27.7432 63.0359 27.72 63.048 27.6991C63.0601 27.6782 63.0764 27.66 63.0958 27.6456C63.1152 27.6311 63.1373 27.6208 63.1608 27.6153C63.1844 27.6097 63.2088 27.609 63.2326 27.6132C63.465 27.6732 63.7019 27.7124 63.9366 27.7613C64.2889 27.8353 64.6458 27.879 65.0011 27.9323C65.3016 27.9782 65.6074 27.9863 65.9109 28.0152C66.5224 28.0729 67.1368 28.0892 67.7505 28.1025C68.1206 28.1122 68.4974 28.0899 68.8705 28.0833C69.0149 28.0833 69.1585 28.0729 69.3036 28.0625C69.8906 28.0189 70.4769 27.9826 71.0617 27.9004C71.4022 27.8531 71.7405 27.7938 72.0803 27.7383C72.2663 27.69 72.4564 27.6593 72.6481 27.6465C72.7562 27.6465 72.8132 27.6983 72.8132 27.8086C72.8132 27.9412 72.8132 28.0737 72.8132 28.2062C72.8154 28.2469 72.8031 28.2872 72.7784 28.3197C72.7537 28.3522 72.7183 28.375 72.6785 28.3838C72.5637 28.4179 72.4453 28.4408 72.3276 28.4645C72.0966 28.5119 71.8627 28.5474 71.6354 28.6067C71.55 28.6309 71.4764 28.6855 71.4284 28.7602C71.3804 28.8349 71.3614 28.9246 71.3748 29.0123C71.3914 29.1109 71.4463 29.199 71.5276 29.2571C71.6089 29.3153 71.71 29.3388 71.8087 29.3225C72.2669 29.2485 72.7192 29.1478 73.1685 29.0331C73.4832 28.9531 73.5838 28.8339 73.5846 28.5097C73.5853 28.1854 73.5846 27.8582 73.5846 27.5325C73.5785 27.4806 73.5917 27.4283 73.6218 27.3856C73.6518 27.3428 73.6965 27.3127 73.7474 27.3008C74.2072 27.155 74.6396 26.9336 75.0266 26.6457C75.1869 26.5334 75.3198 26.3864 75.4154 26.2157C75.511 26.045 75.5669 25.8549 75.5789 25.6596C75.6007 25.3931 75.6029 25.1254 75.5855 24.8586V23.424C75.5922 23.3004 75.5855 23.1745 75.5855 23.0494V22.9399C75.5855 22.7733 75.5922 22.6067 75.5855 22.4402C75.5794 22.2841 75.5468 22.1301 75.4893 21.9849C75.364 21.7136 75.1653 21.4828 74.9156 21.3187C74.5439 21.0653 74.1371 20.8678 73.7082 20.7323C73.5424 20.6724 73.3721 20.625 73.2026 20.5761C73.0331 20.5273 72.8724 20.477 72.7036 20.4459C72.5349 20.4148 72.3875 20.3578 72.221 20.3363C71.9589 20.3023 71.6976 20.2489 71.437 20.2031C70.9788 20.1224 70.5154 20.0876 70.0549 20.0328C69.6374 19.9825 69.214 19.9765 68.7965 19.9588C68.1709 19.938 67.5432 19.9306 66.9162 19.9706C66.2647 20.0121 65.6133 20.0446 64.9648 20.1298C64.5947 20.1816 64.2186 20.2312 63.8485 20.3C63.4598 20.3741 63.0742 20.4599 62.6929 20.5688C62.1287 20.7119 61.5884 20.9364 61.0887 21.235C60.8413 21.3639 60.6356 21.5605 60.4959 21.802C60.3561 22.0435 60.288 22.3198 60.2996 22.5986C60.304 22.6867 60.304 22.7755 60.3033 22.8636L60.3011 24.3523ZM61.2523 22.2055C61.3964 22.0482 61.568 21.9185 61.7587 21.8228C62.2551 21.5853 62.7765 21.4043 63.3133 21.2831C63.7249 21.1795 64.1409 21.0995 64.5591 21.0359C64.8826 20.987 65.2106 20.953 65.5363 20.9167C65.8916 20.8767 66.2477 20.8723 66.6023 20.8323C67.0509 20.7819 67.5017 20.819 67.9511 20.8027C68.5381 20.7908 69.1237 20.8116 69.7092 20.856C70.0794 20.8834 70.4495 20.9071 70.81 20.9589C71.36 21.0366 71.9115 21.1143 72.4519 21.2468C72.9728 21.3593 73.4808 21.5248 73.968 21.7406C74.2243 21.8479 74.4549 22.0084 74.6446 22.2114C74.7742 22.3595 74.7742 22.4283 74.6446 22.5764C74.4079 22.8237 74.1163 23.0119 73.7933 23.1257C73.3667 23.2994 72.9261 23.4368 72.4764 23.5365C72.1536 23.6105 71.8272 23.6787 71.4977 23.7253C71.2016 23.7668 70.9122 23.8156 70.6176 23.8437C70.4058 23.8644 70.1949 23.8918 69.9831 23.9118C69.9379 23.9233 69.8919 23.9317 69.8454 23.937C69.0464 24.0009 68.2441 24.0155 67.4433 23.9807C67.4282 23.9842 67.4128 23.9859 67.3974 23.9859C66.9673 23.9977 66.5401 23.9429 66.1115 23.9237C65.8065 23.9103 65.5045 23.8704 65.2017 23.8371C64.8123 23.7934 64.4244 23.7371 64.0387 23.6624C63.7522 23.6061 63.4643 23.5521 63.183 23.4758C62.5814 23.3493 62.0068 23.1177 61.4855 22.7918C61.397 22.7281 61.3169 22.6535 61.2472 22.5697C61.122 22.4298 61.1221 22.3476 61.2509 22.2063L61.2523 22.2055Z" fill="#A6B1B7"/>
<path d="M83.1361 18.9819C81.7965 17.678 80.0697 16.8443 78.2155 16.6063C77.8671 16.571 77.5348 16.4413 77.2546 16.2312C76.9744 16.021 76.7569 15.7384 76.6254 15.4137C76.0696 14.1763 75.2476 13.0768 74.218 12.1935C72.4009 10.6749 70.0787 9.89581 67.7132 10.0112C67.7086 10.0105 67.7038 10.0105 67.6992 10.0112C67.6067 10.0075 67.5134 10.0053 67.4201 10.0053C65.9018 10.0404 64.4195 10.4745 63.1221 11.2638C61.4603 12.2475 60.1511 13.7303 59.3807 15.5011C59.2539 15.8102 59.0446 16.0785 58.7757 16.2766C58.5068 16.4748 58.1885 16.5953 57.8558 16.6248C56.7012 16.7569 55.5846 17.1178 54.5712 17.6864C52.8151 18.7239 51.4531 20.3151 50.6988 22.2102C50.1349 23.4562 49.9714 24.8464 50.2309 26.1892C50.4772 27.2809 50.8905 28.3281 51.4561 29.2939C52.0584 30.4492 52.9198 31.4496 53.9728 32.2169C55.0258 32.9842 56.242 33.4976 57.5263 33.717C57.794 33.7764 58.0736 33.7468 58.3229 33.6326C58.4733 33.5722 58.6006 33.4656 58.6866 33.3282C58.7725 33.1908 58.8126 33.0296 58.8011 32.8679C58.812 32.7227 58.7719 32.5781 58.6877 32.4592C58.6035 32.3403 58.4805 32.2545 58.3399 32.2165C58.1553 32.1371 57.9631 32.0768 57.7662 32.0366C56.2483 31.807 54.8557 31.0618 53.8227 29.9261C53.1592 29.228 52.6481 28.3995 52.3218 27.4934C51.9955 26.5872 51.8612 25.6231 51.9274 24.6622C51.9936 23.7014 52.2589 22.7648 52.7064 21.9119C53.1538 21.0591 53.7738 20.3086 54.5267 19.7081C55.9132 18.668 57.6147 18.1354 59.3467 18.1994C60.161 18.1868 60.161 18.1868 60.4304 17.4517L60.4586 17.3777C60.8904 16.1826 61.5255 15.0711 62.3359 14.0923C62.962 13.3466 63.7345 12.7375 64.6056 12.3025C65.4767 11.8675 66.4279 11.616 67.4001 11.5636C68.5434 11.4218 69.7039 11.5728 70.7728 12.0024C71.8418 12.432 72.784 13.1262 73.5111 14.0198C74.4875 15.2404 75.267 16.6062 75.8215 18.0676C75.8955 18.2519 75.9444 18.2816 76.1405 18.269C76.5723 18.2428 77.0052 18.2441 77.4368 18.2727C78.8505 18.3133 80.2186 18.7821 81.3602 19.617C82.2437 20.2739 82.9537 21.1364 83.4285 22.1297C83.9033 23.1229 84.1287 24.217 84.0852 25.3171C84.0596 26.9248 83.4748 28.4734 82.4313 29.6967C81.3879 30.92 79.9508 31.7416 78.3673 32.0203C78.0898 32.0556 77.8189 32.1304 77.5626 32.2424C77.4681 32.2809 77.3876 32.3473 77.3317 32.4327C77.2759 32.5182 77.2475 32.6186 77.2502 32.7206C77.2405 32.8609 77.2621 33.0015 77.3133 33.1325C77.3645 33.2634 77.4441 33.3814 77.5463 33.4779C77.664 33.5805 77.8031 33.6557 77.9533 33.698C78.1036 33.7404 78.2614 33.7489 78.4154 33.7229C79.1025 33.6054 79.7718 33.4012 80.4075 33.1152L80.7036 32.9975C82.2913 32.2706 83.6297 31.092 84.5513 29.6088C85.4729 28.1256 85.937 26.4037 85.8855 24.6583C85.7037 22.4909 84.7239 20.4682 83.1361 18.9819Z" fill="#A6B1B7"/>
<path d="M24.2305 58.3452V51.187H25.6562L27.3506 56.2554C27.5068 56.7274 27.6208 57.0806 27.6924 57.3149C27.7738 57.0545 27.9007 56.672 28.0732 56.1675L29.7871 51.187H31.0615V58.3452H30.1484V52.354L28.0684 58.3452H27.2139L25.1436 52.2515V58.3452H24.2305ZM35.8613 57.7056C35.5358 57.9823 35.2217 58.1776 34.9189 58.2915C34.6195 58.4054 34.2972 58.4624 33.9521 58.4624C33.3825 58.4624 32.9447 58.3241 32.6387 58.0474C32.3327 57.7674 32.1797 57.411 32.1797 56.978C32.1797 56.7241 32.2367 56.493 32.3506 56.2847C32.4678 56.0731 32.6191 55.9038 32.8047 55.7769C32.9935 55.6499 33.2051 55.5539 33.4395 55.4888C33.612 55.4432 33.8724 55.3993 34.2207 55.3569C34.9303 55.2723 35.4528 55.1714 35.7881 55.0542C35.7913 54.9338 35.793 54.8573 35.793 54.8247C35.793 54.4666 35.71 54.2144 35.5439 54.0679C35.3193 53.8693 34.9857 53.77 34.543 53.77C34.1296 53.77 33.8236 53.8433 33.625 53.9897C33.4297 54.133 33.2848 54.3885 33.1904 54.7563L32.3311 54.6392C32.4092 54.2713 32.5378 53.9751 32.7168 53.7505C32.8958 53.5226 33.1546 53.3485 33.4932 53.228C33.8317 53.1043 34.224 53.0425 34.6699 53.0425C35.1126 53.0425 35.4723 53.0946 35.749 53.1987C36.0257 53.3029 36.2292 53.4347 36.3594 53.5942C36.4896 53.7505 36.5807 53.9491 36.6328 54.1899C36.6621 54.3397 36.6768 54.6099 36.6768 55.0005V56.1724C36.6768 56.9894 36.6947 57.507 36.7305 57.7251C36.7695 57.9399 36.8444 58.1466 36.9551 58.3452H36.0371C35.946 58.1629 35.8874 57.9497 35.8613 57.7056ZM35.7881 55.7427C35.4691 55.8729 34.9906 55.9836 34.3525 56.0747C33.9912 56.1268 33.7357 56.1854 33.5859 56.2505C33.4362 56.3156 33.3206 56.4116 33.2393 56.5386C33.1579 56.6623 33.1172 56.8006 33.1172 56.9536C33.1172 57.188 33.2051 57.3833 33.3809 57.5396C33.5599 57.6958 33.8203 57.7739 34.1621 57.7739C34.5007 57.7739 34.8018 57.7007 35.0654 57.5542C35.3291 57.4045 35.5228 57.201 35.6465 56.9438C35.7409 56.7453 35.7881 56.4523 35.7881 56.0649V55.7427ZM38.0439 58.3452V53.1597H38.835V53.897C39.2158 53.3273 39.766 53.0425 40.4854 53.0425C40.7979 53.0425 41.0843 53.0994 41.3447 53.2134C41.6084 53.3241 41.8053 53.4705 41.9355 53.6528C42.0658 53.8351 42.1569 54.0516 42.209 54.3022C42.2415 54.465 42.2578 54.7498 42.2578 55.1567V58.3452H41.3789V55.1909C41.3789 54.8328 41.3447 54.5659 41.2764 54.3901C41.208 54.2111 41.0859 54.0695 40.9102 53.9653C40.7376 53.8579 40.5342 53.8042 40.2998 53.8042C39.9255 53.8042 39.6016 53.923 39.3281 54.1606C39.0579 54.3983 38.9229 54.8491 38.9229 55.5132V58.3452H38.0439ZM46.9941 57.7056C46.6686 57.9823 46.3545 58.1776 46.0518 58.2915C45.7523 58.4054 45.43 58.4624 45.085 58.4624C44.5153 58.4624 44.0775 58.3241 43.7715 58.0474C43.4655 57.7674 43.3125 57.411 43.3125 56.978C43.3125 56.7241 43.3695 56.493 43.4834 56.2847C43.6006 56.0731 43.752 55.9038 43.9375 55.7769C44.1263 55.6499 44.3379 55.5539 44.5723 55.4888C44.7448 55.4432 45.0052 55.3993 45.3535 55.3569C46.0632 55.2723 46.5856 55.1714 46.9209 55.0542C46.9242 54.9338 46.9258 54.8573 46.9258 54.8247C46.9258 54.4666 46.8428 54.2144 46.6768 54.0679C46.4521 53.8693 46.1185 53.77 45.6758 53.77C45.2624 53.77 44.9564 53.8433 44.7578 53.9897C44.5625 54.133 44.4176 54.3885 44.3232 54.7563L43.4639 54.6392C43.542 54.2713 43.6706 53.9751 43.8496 53.7505C44.0286 53.5226 44.2874 53.3485 44.626 53.228C44.9645 53.1043 45.3568 53.0425 45.8027 53.0425C46.2454 53.0425 46.6051 53.0946 46.8818 53.1987C47.1585 53.3029 47.362 53.4347 47.4922 53.5942C47.6224 53.7505 47.7135 53.9491 47.7656 54.1899C47.7949 54.3397 47.8096 54.6099 47.8096 55.0005V56.1724C47.8096 56.9894 47.8275 57.507 47.8633 57.7251C47.9023 57.9399 47.9772 58.1466 48.0879 58.3452H47.1699C47.0788 58.1629 47.0202 57.9497 46.9941 57.7056ZM46.9209 55.7427C46.6019 55.8729 46.1234 55.9836 45.4854 56.0747C45.124 56.1268 44.8685 56.1854 44.7188 56.2505C44.569 56.3156 44.4535 56.4116 44.3721 56.5386C44.2907 56.6623 44.25 56.8006 44.25 56.9536C44.25 57.188 44.3379 57.3833 44.5137 57.5396C44.6927 57.6958 44.9531 57.7739 45.2949 57.7739C45.6335 57.7739 45.9346 57.7007 46.1982 57.5542C46.4619 57.4045 46.6556 57.201 46.7793 56.9438C46.8737 56.7453 46.9209 56.4523 46.9209 56.0649V55.7427ZM49.0156 58.7749L49.8701 58.9019C49.9059 59.1655 50.0052 59.3576 50.168 59.478C50.3861 59.6408 50.6839 59.7222 51.0615 59.7222C51.4684 59.7222 51.7826 59.6408 52.0039 59.478C52.2253 59.3153 52.375 59.0874 52.4531 58.7944C52.4987 58.6154 52.5199 58.2394 52.5166 57.6665C52.1325 58.119 51.654 58.3452 51.0811 58.3452C50.3682 58.3452 49.8164 58.0881 49.4258 57.5737C49.0352 57.0594 48.8398 56.4425 48.8398 55.7231C48.8398 55.2284 48.9294 54.7726 49.1084 54.356C49.2874 53.936 49.5462 53.6121 49.8848 53.3843C50.2266 53.1564 50.627 53.0425 51.0859 53.0425C51.6979 53.0425 52.2025 53.2899 52.5996 53.7847V53.1597H53.4102V57.6421C53.4102 58.4494 53.3271 59.0207 53.1611 59.356C52.9984 59.6945 52.738 59.9614 52.3799 60.1567C52.0251 60.3521 51.5872 60.4497 51.0664 60.4497C50.4479 60.4497 49.9482 60.3097 49.5674 60.0298C49.1865 59.7531 49.0026 59.3348 49.0156 58.7749ZM49.7432 55.6597C49.7432 56.34 49.8783 56.8364 50.1484 57.1489C50.4186 57.4614 50.7572 57.6177 51.1641 57.6177C51.5677 57.6177 51.9062 57.4631 52.1797 57.1538C52.4531 56.8413 52.5898 56.353 52.5898 55.689C52.5898 55.0542 52.4482 54.5757 52.165 54.2534C51.8851 53.9312 51.5465 53.77 51.1494 53.77C50.7588 53.77 50.4268 53.9295 50.1533 54.2485C49.8799 54.5643 49.7432 55.0347 49.7432 55.6597ZM58.293 56.6753L59.2012 56.7876C59.0579 57.3182 58.7926 57.73 58.4053 58.0229C58.0179 58.3159 57.5231 58.4624 56.9209 58.4624C56.1624 58.4624 55.5602 58.2297 55.1143 57.7642C54.6715 57.2954 54.4502 56.6395 54.4502 55.7964C54.4502 54.924 54.6748 54.2469 55.124 53.7651C55.5732 53.2834 56.1559 53.0425 56.8721 53.0425C57.5654 53.0425 58.1318 53.2785 58.5713 53.7505C59.0107 54.2225 59.2305 54.8866 59.2305 55.7427C59.2305 55.7948 59.2288 55.8729 59.2256 55.9771H55.3584C55.391 56.5467 55.5521 56.9829 55.8418 57.2856C56.1315 57.5884 56.4928 57.7397 56.9258 57.7397C57.248 57.7397 57.5231 57.6551 57.751 57.4858C57.9788 57.3166 58.1595 57.0464 58.293 56.6753ZM55.4072 55.2544H58.3027C58.2637 54.8182 58.153 54.491 57.9707 54.2729C57.6908 53.9344 57.3278 53.7651 56.8818 53.7651C56.4782 53.7651 56.138 53.9002 55.8613 54.1704C55.5879 54.4406 55.4365 54.8019 55.4072 55.2544ZM63.6738 58.3452V57.6909C63.3451 58.2052 62.8617 58.4624 62.2236 58.4624C61.8102 58.4624 61.4294 58.3485 61.0811 58.1206C60.736 57.8927 60.4674 57.5754 60.2754 57.1685C60.0866 56.7583 59.9922 56.2879 59.9922 55.7573C59.9922 55.2397 60.0785 54.771 60.251 54.3511C60.4235 53.9279 60.6823 53.604 61.0273 53.3794C61.3724 53.1548 61.7581 53.0425 62.1846 53.0425C62.4971 53.0425 62.7754 53.1092 63.0195 53.2427C63.2637 53.3729 63.4622 53.5438 63.6152 53.7554V51.187H64.4893V58.3452H63.6738ZM60.8955 55.7573C60.8955 56.4214 61.0355 56.9178 61.3154 57.2466C61.5954 57.5754 61.9258 57.7397 62.3066 57.7397C62.6908 57.7397 63.0163 57.5835 63.2832 57.271C63.5534 56.9552 63.6885 56.4751 63.6885 55.8306C63.6885 55.1209 63.5518 54.6001 63.2783 54.2681C63.0049 53.936 62.668 53.77 62.2676 53.77C61.877 53.77 61.5498 53.9295 61.2861 54.2485C61.0257 54.5675 60.8955 55.0705 60.8955 55.7573ZM68.791 58.3452V51.187H73.9668V52.0317H69.7383V54.2241H73.6982V55.064H69.7383V57.5005H74.1328V58.3452H68.791ZM75.3291 58.3452V53.1597H76.1201V53.897C76.501 53.3273 77.0511 53.0425 77.7705 53.0425C78.083 53.0425 78.3695 53.0994 78.6299 53.2134C78.8936 53.3241 79.0905 53.4705 79.2207 53.6528C79.3509 53.8351 79.4421 54.0516 79.4941 54.3022C79.5267 54.465 79.543 54.7498 79.543 55.1567V58.3452H78.6641V55.1909C78.6641 54.8328 78.6299 54.5659 78.5615 54.3901C78.4932 54.2111 78.3711 54.0695 78.1953 53.9653C78.0228 53.8579 77.8193 53.8042 77.585 53.8042C77.2106 53.8042 76.8867 53.923 76.6133 54.1606C76.3431 54.3983 76.208 54.8491 76.208 55.5132V58.3452H75.3291ZM84.2598 58.3452V57.6909C83.931 58.2052 83.4476 58.4624 82.8096 58.4624C82.3962 58.4624 82.0153 58.3485 81.667 58.1206C81.3219 57.8927 81.0534 57.5754 80.8613 57.1685C80.6725 56.7583 80.5781 56.2879 80.5781 55.7573C80.5781 55.2397 80.6644 54.771 80.8369 54.3511C81.0094 53.9279 81.2682 53.604 81.6133 53.3794C81.9583 53.1548 82.3441 53.0425 82.7705 53.0425C83.083 53.0425 83.3613 53.1092 83.6055 53.2427C83.8496 53.3729 84.0482 53.5438 84.2012 53.7554V51.187H85.0752V58.3452H84.2598ZM81.4814 55.7573C81.4814 56.4214 81.6214 56.9178 81.9014 57.2466C82.1813 57.5754 82.5117 57.7397 82.8926 57.7397C83.2767 57.7397 83.6022 57.5835 83.8691 57.271C84.1393 56.9552 84.2744 56.4751 84.2744 55.8306C84.2744 55.1209 84.1377 54.6001 83.8643 54.2681C83.5908 53.936 83.2539 53.77 82.8535 53.77C82.4629 53.77 82.1357 53.9295 81.8721 54.2485C81.6117 54.5675 81.4814 55.0705 81.4814 55.7573ZM86.4619 60.3325V53.1597H87.2627V53.8335C87.4515 53.5698 87.6647 53.3729 87.9023 53.2427C88.14 53.1092 88.4281 53.0425 88.7666 53.0425C89.2093 53.0425 89.5999 53.1564 89.9385 53.3843C90.277 53.6121 90.5326 53.9344 90.7051 54.3511C90.8776 54.7645 90.9639 55.2186 90.9639 55.7134C90.9639 56.244 90.8678 56.7225 90.6758 57.1489C90.487 57.5721 90.2103 57.8976 89.8457 58.1255C89.4844 58.3501 89.1035 58.4624 88.7031 58.4624C88.4102 58.4624 88.1465 58.4006 87.9121 58.2769C87.681 58.1532 87.4906 57.9969 87.3408 57.8081V60.3325H86.4619ZM87.2578 55.7817C87.2578 56.4491 87.3929 56.9422 87.6631 57.2612C87.9333 57.5802 88.2604 57.7397 88.6445 57.7397C89.0352 57.7397 89.3688 57.5754 89.6455 57.2466C89.9255 56.9146 90.0654 56.4019 90.0654 55.7085C90.0654 55.0477 89.9287 54.5529 89.6553 54.2241C89.3851 53.8953 89.0612 53.731 88.6836 53.731C88.3092 53.731 87.9772 53.9067 87.6875 54.2583C87.401 54.6066 87.2578 55.1144 87.2578 55.7817ZM91.7012 55.7524C91.7012 54.7922 91.9681 54.0809 92.502 53.6187C92.9479 53.2345 93.4915 53.0425 94.1328 53.0425C94.8457 53.0425 95.4284 53.2769 95.8809 53.7456C96.3333 54.2111 96.5596 54.8556 96.5596 55.6792C96.5596 56.3465 96.4587 56.8722 96.2568 57.2563C96.0583 57.6372 95.7669 57.9334 95.3828 58.145C95.002 58.3566 94.5853 58.4624 94.1328 58.4624C93.4069 58.4624 92.8193 58.2297 92.3701 57.7642C91.9242 57.2987 91.7012 56.6281 91.7012 55.7524ZM92.6045 55.7524C92.6045 56.4165 92.7493 56.9146 93.0391 57.2466C93.3288 57.5754 93.6934 57.7397 94.1328 57.7397C94.569 57.7397 94.932 57.5737 95.2217 57.2417C95.5114 56.9097 95.6562 56.4035 95.6562 55.7231C95.6562 55.0819 95.5098 54.5968 95.2168 54.2681C94.9271 53.936 94.5658 53.77 94.1328 53.77C93.6934 53.77 93.3288 53.9344 93.0391 54.2632C92.7493 54.592 92.6045 55.0884 92.6045 55.7524ZM97.5996 52.1978V51.187H98.4785V52.1978H97.5996ZM97.5996 58.3452V53.1597H98.4785V58.3452H97.5996ZM99.8213 58.3452V53.1597H100.612V53.897C100.993 53.3273 101.543 53.0425 102.263 53.0425C102.575 53.0425 102.862 53.0994 103.122 53.2134C103.386 53.3241 103.583 53.4705 103.713 53.6528C103.843 53.8351 103.934 54.0516 103.986 54.3022C104.019 54.465 104.035 54.7498 104.035 55.1567V58.3452H103.156V55.1909C103.156 54.8328 103.122 54.5659 103.054 54.3901C102.985 54.2111 102.863 54.0695 102.688 53.9653C102.515 53.8579 102.312 53.8042 102.077 53.8042C101.703 53.8042 101.379 53.923 101.105 54.1606C100.835 54.3983 100.7 54.8491 100.7 55.5132V58.3452H99.8213ZM107.307 57.5591L107.434 58.3354C107.186 58.3875 106.965 58.4136 106.77 58.4136C106.451 58.4136 106.203 58.3631 106.027 58.2622C105.852 58.1613 105.728 58.0295 105.656 57.8667C105.585 57.7007 105.549 57.354 105.549 56.8267V53.8433H104.904V53.1597H105.549V51.8755L106.423 51.3481V53.1597H107.307V53.8433H106.423V56.8755C106.423 57.1261 106.438 57.2873 106.467 57.3589C106.499 57.4305 106.55 57.4875 106.618 57.5298C106.69 57.5721 106.791 57.5933 106.921 57.5933C107.019 57.5933 107.147 57.5819 107.307 57.5591ZM107.819 56.7974L108.688 56.6606C108.737 57.009 108.872 57.2759 109.094 57.4614C109.318 57.647 109.631 57.7397 110.031 57.7397C110.435 57.7397 110.734 57.6584 110.93 57.4956C111.125 57.3296 111.223 57.1359 111.223 56.9146C111.223 56.716 111.136 56.5597 110.964 56.4458C110.843 56.3677 110.544 56.2684 110.065 56.1479C109.421 55.9852 108.973 55.8452 108.723 55.728C108.475 55.6076 108.286 55.4432 108.156 55.2349C108.029 55.0233 107.966 54.7905 107.966 54.5366C107.966 54.3055 108.018 54.0923 108.122 53.897C108.229 53.6984 108.374 53.534 108.557 53.4038C108.693 53.3029 108.879 53.2183 109.113 53.1499C109.351 53.0783 109.605 53.0425 109.875 53.0425C110.282 53.0425 110.638 53.1011 110.944 53.2183C111.254 53.3354 111.481 53.495 111.628 53.6968C111.774 53.8953 111.875 54.1623 111.931 54.4976L111.071 54.6147C111.032 54.3478 110.918 54.1395 110.729 53.9897C110.544 53.84 110.28 53.7651 109.938 53.7651C109.535 53.7651 109.247 53.8319 109.074 53.9653C108.902 54.0988 108.815 54.255 108.815 54.4341C108.815 54.548 108.851 54.6506 108.923 54.7417C108.994 54.8361 109.107 54.9142 109.26 54.9761C109.348 55.0086 109.606 55.0835 110.036 55.2007C110.658 55.3667 111.091 55.5034 111.335 55.6108C111.582 55.715 111.776 55.868 111.916 56.0698C112.056 56.2716 112.126 56.5223 112.126 56.8218C112.126 57.1147 112.04 57.3914 111.867 57.6519C111.698 57.909 111.452 58.1092 111.13 58.2524C110.808 58.3924 110.443 58.4624 110.036 58.4624C109.362 58.4624 108.848 58.3224 108.493 58.0425C108.142 57.7625 107.917 57.3475 107.819 56.7974ZM16.3154 69.8354L17.2627 70.0747C17.0641 70.8527 16.7061 71.4468 16.1885 71.8569C15.6742 72.2638 15.0443 72.4673 14.2988 72.4673C13.5273 72.4673 12.8991 72.311 12.4141 71.9985C11.9323 71.6828 11.5645 71.2271 11.3105 70.6313C11.0599 70.0356 10.9346 69.396 10.9346 68.7124C10.9346 67.967 11.0762 67.3175 11.3594 66.7642C11.6458 66.2075 12.0511 65.786 12.5752 65.4995C13.1025 65.2098 13.682 65.0649 14.3135 65.0649C15.0296 65.0649 15.6318 65.2472 16.1201 65.6118C16.6084 65.9764 16.9486 66.4891 17.1406 67.1499L16.208 67.3696C16.042 66.8488 15.8011 66.4696 15.4854 66.2319C15.1696 65.9943 14.7725 65.8755 14.2939 65.8755C13.7438 65.8755 13.2832 66.0073 12.9121 66.271C12.5443 66.5347 12.2855 66.8895 12.1357 67.3354C11.986 67.7782 11.9111 68.2355 11.9111 68.7075C11.9111 69.3162 11.999 69.8485 12.1748 70.3042C12.3538 70.7567 12.6305 71.0952 13.0049 71.3198C13.3792 71.5444 13.7845 71.6567 14.2207 71.6567C14.7513 71.6567 15.2005 71.5037 15.5684 71.1978C15.9362 70.8918 16.1852 70.4377 16.3154 69.8354ZM21.8721 70.6753L22.7803 70.7876C22.637 71.3182 22.3717 71.73 21.9844 72.0229C21.597 72.3159 21.1022 72.4624 20.5 72.4624C19.7415 72.4624 19.1393 72.2297 18.6934 71.7642C18.2507 71.2954 18.0293 70.6395 18.0293 69.7964C18.0293 68.924 18.2539 68.2469 18.7031 67.7651C19.1523 67.2834 19.735 67.0425 20.4512 67.0425C21.1445 67.0425 21.7109 67.2785 22.1504 67.7505C22.5898 68.2225 22.8096 68.8866 22.8096 69.7427C22.8096 69.7948 22.8079 69.8729 22.8047 69.9771H18.9375C18.9701 70.5467 19.1312 70.9829 19.4209 71.2856C19.7106 71.5884 20.0719 71.7397 20.5049 71.7397C20.8271 71.7397 21.1022 71.6551 21.3301 71.4858C21.5579 71.3166 21.7386 71.0464 21.8721 70.6753ZM18.9863 69.2544H21.8818C21.8428 68.8182 21.7321 68.491 21.5498 68.2729C21.2699 67.9344 20.9069 67.7651 20.4609 67.7651C20.0573 67.7651 19.7171 67.9002 19.4404 68.1704C19.167 68.4406 19.0156 68.8019 18.9863 69.2544ZM23.8887 72.3452V67.1597H24.6797V67.897C25.0605 67.3273 25.6107 67.0425 26.3301 67.0425C26.6426 67.0425 26.929 67.0994 27.1895 67.2134C27.4531 67.3241 27.6501 67.4705 27.7803 67.6528C27.9105 67.8351 28.0016 68.0516 28.0537 68.3022C28.0863 68.465 28.1025 68.7498 28.1025 69.1567V72.3452H27.2236V69.1909C27.2236 68.8328 27.1895 68.5659 27.1211 68.3901C27.0527 68.2111 26.9307 68.0695 26.7549 67.9653C26.5824 67.8579 26.3789 67.8042 26.1445 67.8042C25.7702 67.8042 25.4463 67.923 25.1729 68.1606C24.9027 68.3983 24.7676 68.8491 24.7676 69.5132V72.3452H23.8887ZM31.374 71.5591L31.501 72.3354C31.2536 72.3875 31.0322 72.4136 30.8369 72.4136C30.5179 72.4136 30.2705 72.3631 30.0947 72.2622C29.9189 72.1613 29.7952 72.0295 29.7236 71.8667C29.652 71.7007 29.6162 71.354 29.6162 70.8267V67.8433H28.9717V67.1597H29.6162V65.8755L30.4902 65.3481V67.1597H31.374V67.8433H30.4902V70.8755C30.4902 71.1261 30.5049 71.2873 30.5342 71.3589C30.5667 71.4305 30.6172 71.4875 30.6855 71.5298C30.7572 71.5721 30.8581 71.5933 30.9883 71.5933C31.0859 71.5933 31.2145 71.5819 31.374 71.5591ZM32.2285 72.3452V67.1597H33.0195V67.9458C33.2214 67.578 33.4069 67.3354 33.5762 67.2183C33.7487 67.1011 33.9375 67.0425 34.1426 67.0425C34.4388 67.0425 34.7399 67.1369 35.0459 67.3257L34.7432 68.1411C34.5283 68.0142 34.3135 67.9507 34.0986 67.9507C33.9066 67.9507 33.734 68.0093 33.5811 68.1265C33.4281 68.2404 33.319 68.3999 33.2539 68.605C33.1562 68.9175 33.1074 69.2593 33.1074 69.6304V72.3452H32.2285ZM38.9521 71.7056C38.6266 71.9823 38.3125 72.1776 38.0098 72.2915C37.7103 72.4054 37.388 72.4624 37.043 72.4624C36.4733 72.4624 36.0355 72.3241 35.7295 72.0474C35.4235 71.7674 35.2705 71.411 35.2705 70.978C35.2705 70.7241 35.3275 70.493 35.4414 70.2847C35.5586 70.0731 35.71 69.9038 35.8955 69.7769C36.0843 69.6499 36.2959 69.5539 36.5303 69.4888C36.7028 69.4432 36.9632 69.3993 37.3115 69.3569C38.0212 69.2723 38.5436 69.1714 38.8789 69.0542C38.8822 68.9338 38.8838 68.8573 38.8838 68.8247C38.8838 68.4666 38.8008 68.2144 38.6348 68.0679C38.4102 67.8693 38.0765 67.77 37.6338 67.77C37.2204 67.77 36.9144 67.8433 36.7158 67.9897C36.5205 68.133 36.3757 68.3885 36.2812 68.7563L35.4219 68.6392C35.5 68.2713 35.6286 67.9751 35.8076 67.7505C35.9867 67.5226 36.2454 67.3485 36.584 67.228C36.9225 67.1043 37.3148 67.0425 37.7607 67.0425C38.2035 67.0425 38.5632 67.0946 38.8398 67.1987C39.1165 67.3029 39.32 67.4347 39.4502 67.5942C39.5804 67.7505 39.6715 67.9491 39.7236 68.1899C39.7529 68.3397 39.7676 68.6099 39.7676 69.0005V70.1724C39.7676 70.9894 39.7855 71.507 39.8213 71.7251C39.8604 71.9399 39.9352 72.1466 40.0459 72.3452H39.1279C39.0368 72.1629 38.9782 71.9497 38.9521 71.7056ZM38.8789 69.7427C38.5599 69.8729 38.0814 69.9836 37.4434 70.0747C37.082 70.1268 36.8265 70.1854 36.6768 70.2505C36.527 70.3156 36.4115 70.4116 36.3301 70.5386C36.2487 70.6623 36.208 70.8006 36.208 70.9536C36.208 71.188 36.2959 71.3833 36.4717 71.5396C36.6507 71.6958 36.9111 71.7739 37.2529 71.7739C37.5915 71.7739 37.8926 71.7007 38.1562 71.5542C38.4199 71.4045 38.6136 71.201 38.7373 70.9438C38.8317 70.7453 38.8789 70.4523 38.8789 70.0649V69.7427ZM41.1152 72.3452V65.187H41.9941V72.3452H41.1152ZM46.2715 72.3452V65.187H49.4453C50.0833 65.187 50.5684 65.2521 50.9004 65.3823C51.2324 65.5093 51.4977 65.7355 51.6963 66.061C51.8949 66.3866 51.9941 66.7463 51.9941 67.1401C51.9941 67.6479 51.8298 68.076 51.501 68.4243C51.1722 68.7726 50.6644 68.994 49.9775 69.0884C50.2282 69.2088 50.4186 69.3276 50.5488 69.4448C50.8255 69.6987 51.0876 70.0161 51.335 70.397L52.5801 72.3452H51.3887L50.4414 70.856C50.1647 70.4263 49.9368 70.0975 49.7578 69.8696C49.5788 69.6418 49.4176 69.4823 49.2744 69.3911C49.1344 69.3 48.9912 69.2365 48.8447 69.2007C48.7373 69.1779 48.5615 69.1665 48.3174 69.1665H47.2188V72.3452H46.2715ZM47.2188 68.3462H49.2549C49.6878 68.3462 50.0264 68.3022 50.2705 68.2144C50.5146 68.1232 50.7002 67.98 50.8271 67.7847C50.9541 67.5861 51.0176 67.3713 51.0176 67.1401C51.0176 66.8016 50.8939 66.5233 50.6465 66.3052C50.4023 66.0871 50.015 65.978 49.4844 65.978H47.2188V68.3462ZM56.9209 70.6753L57.8291 70.7876C57.6859 71.3182 57.4206 71.73 57.0332 72.0229C56.6458 72.3159 56.151 72.4624 55.5488 72.4624C54.7904 72.4624 54.1882 72.2297 53.7422 71.7642C53.2995 71.2954 53.0781 70.6395 53.0781 69.7964C53.0781 68.924 53.3027 68.2469 53.752 67.7651C54.2012 67.2834 54.7839 67.0425 55.5 67.0425C56.1934 67.0425 56.7598 67.2785 57.1992 67.7505C57.6387 68.2225 57.8584 68.8866 57.8584 69.7427C57.8584 69.7948 57.8568 69.8729 57.8535 69.9771H53.9863C54.0189 70.5467 54.18 70.9829 54.4697 71.2856C54.7594 71.5884 55.1208 71.7397 55.5537 71.7397C55.876 71.7397 56.151 71.6551 56.3789 71.4858C56.6068 71.3166 56.7874 71.0464 56.9209 70.6753ZM54.0352 69.2544H56.9307C56.8916 68.8182 56.7809 68.491 56.5986 68.2729C56.3187 67.9344 55.9557 67.7651 55.5098 67.7651C55.1061 67.7651 54.766 67.9002 54.4893 68.1704C54.2158 68.4406 54.0645 68.8019 54.0352 69.2544ZM58.9375 74.3325V67.1597H59.7383V67.8335C59.9271 67.5698 60.1403 67.3729 60.3779 67.2427C60.6156 67.1092 60.9036 67.0425 61.2422 67.0425C61.6849 67.0425 62.0755 67.1564 62.4141 67.3843C62.7526 67.6121 63.0081 67.9344 63.1807 68.3511C63.3532 68.7645 63.4395 69.2186 63.4395 69.7134C63.4395 70.244 63.3434 70.7225 63.1514 71.1489C62.9626 71.5721 62.6859 71.8976 62.3213 72.1255C61.96 72.3501 61.5791 72.4624 61.1787 72.4624C60.8857 72.4624 60.6221 72.4006 60.3877 72.2769C60.1566 72.1532 59.9661 71.9969 59.8164 71.8081V74.3325H58.9375ZM59.7334 69.7817C59.7334 70.4491 59.8685 70.9422 60.1387 71.2612C60.4089 71.5802 60.736 71.7397 61.1201 71.7397C61.5107 71.7397 61.8444 71.5754 62.1211 71.2466C62.401 70.9146 62.541 70.4019 62.541 69.7085C62.541 69.0477 62.4043 68.5529 62.1309 68.2241C61.8607 67.8953 61.5368 67.731 61.1592 67.731C60.7848 67.731 60.4528 67.9067 60.1631 68.2583C59.8766 68.6066 59.7334 69.1144 59.7334 69.7817ZM64.1768 69.7524C64.1768 68.7922 64.4437 68.0809 64.9775 67.6187C65.4235 67.2345 65.9671 67.0425 66.6084 67.0425C67.3213 67.0425 67.904 67.2769 68.3564 67.7456C68.8089 68.2111 69.0352 68.8556 69.0352 69.6792C69.0352 70.3465 68.9342 70.8722 68.7324 71.2563C68.5339 71.6372 68.2425 71.9334 67.8584 72.145C67.4775 72.3566 67.0609 72.4624 66.6084 72.4624C65.8825 72.4624 65.2949 72.2297 64.8457 71.7642C64.3997 71.2987 64.1768 70.6281 64.1768 69.7524ZM65.0801 69.7524C65.0801 70.4165 65.2249 70.9146 65.5146 71.2466C65.8044 71.5754 66.1689 71.7397 66.6084 71.7397C67.0446 71.7397 67.4076 71.5737 67.6973 71.2417C67.987 70.9097 68.1318 70.4035 68.1318 69.7231C68.1318 69.0819 67.9854 68.5968 67.6924 68.2681C67.4027 67.936 67.0413 67.77 66.6084 67.77C66.1689 67.77 65.8044 67.9344 65.5146 68.2632C65.2249 68.592 65.0801 69.0884 65.0801 69.7524ZM69.7188 70.7974L70.5879 70.6606C70.6367 71.009 70.7718 71.2759 70.9932 71.4614C71.2178 71.647 71.5303 71.7397 71.9307 71.7397C72.3343 71.7397 72.6338 71.6584 72.8291 71.4956C73.0244 71.3296 73.1221 71.1359 73.1221 70.9146C73.1221 70.716 73.0358 70.5597 72.8633 70.4458C72.7428 70.3677 72.4434 70.2684 71.9648 70.1479C71.3203 69.9852 70.8727 69.8452 70.6221 69.728C70.3747 69.6076 70.1859 69.4432 70.0557 69.2349C69.9287 69.0233 69.8652 68.7905 69.8652 68.5366C69.8652 68.3055 69.9173 68.0923 70.0215 67.897C70.1289 67.6984 70.2738 67.534 70.4561 67.4038C70.5928 67.3029 70.7783 67.2183 71.0127 67.1499C71.2503 67.0783 71.5042 67.0425 71.7744 67.0425C72.1813 67.0425 72.5378 67.1011 72.8438 67.2183C73.153 67.3354 73.3809 67.495 73.5273 67.6968C73.6738 67.8953 73.7747 68.1623 73.8301 68.4976L72.9707 68.6147C72.9316 68.3478 72.8177 68.1395 72.6289 67.9897C72.4434 67.84 72.1797 67.7651 71.8379 67.7651C71.4342 67.7651 71.1462 67.8319 70.9736 67.9653C70.8011 68.0988 70.7148 68.255 70.7148 68.4341C70.7148 68.548 70.7507 68.6506 70.8223 68.7417C70.8939 68.8361 71.0062 68.9142 71.1592 68.9761C71.2471 69.0086 71.5059 69.0835 71.9355 69.2007C72.5573 69.3667 72.9902 69.5034 73.2344 69.6108C73.4818 69.715 73.6755 69.868 73.8154 70.0698C73.9554 70.2716 74.0254 70.5223 74.0254 70.8218C74.0254 71.1147 73.9391 71.3914 73.7666 71.6519C73.5973 71.909 73.3516 72.1092 73.0293 72.2524C72.707 72.3924 72.3424 72.4624 71.9355 72.4624C71.2617 72.4624 70.7474 72.3224 70.3926 72.0425C70.041 71.7625 69.8164 71.3475 69.7188 70.7974ZM75.0752 66.1978V65.187H75.9541V66.1978H75.0752ZM75.0752 72.3452V67.1597H75.9541V72.3452H75.0752ZM79.2158 71.5591L79.3428 72.3354C79.0954 72.3875 78.874 72.4136 78.6787 72.4136C78.3597 72.4136 78.1123 72.3631 77.9365 72.2622C77.7607 72.1613 77.637 72.0295 77.5654 71.8667C77.4938 71.7007 77.458 71.354 77.458 70.8267V67.8433H76.8135V67.1597H77.458V65.8755L78.332 65.3481V67.1597H79.2158V67.8433H78.332V70.8755C78.332 71.1261 78.3467 71.2873 78.376 71.3589C78.4085 71.4305 78.459 71.4875 78.5273 71.5298C78.599 71.5721 78.6999 71.5933 78.8301 71.5933C78.9277 71.5933 79.0563 71.5819 79.2158 71.5591ZM79.7529 69.7524C79.7529 68.7922 80.0199 68.0809 80.5537 67.6187C80.9997 67.2345 81.5433 67.0425 82.1846 67.0425C82.8975 67.0425 83.4801 67.2769 83.9326 67.7456C84.3851 68.2111 84.6113 68.8556 84.6113 69.6792C84.6113 70.3465 84.5104 70.8722 84.3086 71.2563C84.11 71.6372 83.8187 71.9334 83.4346 72.145C83.0537 72.3566 82.637 72.4624 82.1846 72.4624C81.4587 72.4624 80.8711 72.2297 80.4219 71.7642C79.9759 71.2987 79.7529 70.6281 79.7529 69.7524ZM80.6562 69.7524C80.6562 70.4165 80.8011 70.9146 81.0908 71.2466C81.3805 71.5754 81.7451 71.7397 82.1846 71.7397C82.6208 71.7397 82.9837 71.5737 83.2734 71.2417C83.5632 70.9097 83.708 70.4035 83.708 69.7231C83.708 69.0819 83.5615 68.5968 83.2686 68.2681C82.9788 67.936 82.6175 67.77 82.1846 67.77C81.7451 67.77 81.3805 67.9344 81.0908 68.2632C80.8011 68.592 80.6562 69.0884 80.6562 69.7524ZM85.6367 72.3452V67.1597H86.4277V67.9458C86.6296 67.578 86.8151 67.3354 86.9844 67.2183C87.1569 67.1011 87.3457 67.0425 87.5508 67.0425C87.847 67.0425 88.1481 67.1369 88.4541 67.3257L88.1514 68.1411C87.9365 68.0142 87.7217 67.9507 87.5068 67.9507C87.3148 67.9507 87.1423 68.0093 86.9893 68.1265C86.8363 68.2404 86.7272 68.3999 86.6621 68.605C86.5645 68.9175 86.5156 69.2593 86.5156 69.6304V72.3452H85.6367ZM88.9375 74.3423L88.8398 73.5171C89.0319 73.5692 89.1995 73.5952 89.3428 73.5952C89.5381 73.5952 89.6943 73.5627 89.8115 73.4976C89.9287 73.4325 90.0247 73.3413 90.0996 73.2241C90.1549 73.1362 90.2445 72.9181 90.3682 72.5698C90.3844 72.521 90.4105 72.4494 90.4463 72.355L88.4785 67.1597H89.4258L90.5049 70.1626C90.6449 70.5435 90.7702 70.9438 90.8809 71.3638C90.9818 70.9601 91.1022 70.5662 91.2422 70.1821L92.3506 67.1597H93.2295L91.2568 72.4331C91.0452 73.0028 90.8809 73.395 90.7637 73.6099C90.6074 73.8996 90.4284 74.1112 90.2266 74.2446C90.0247 74.3813 89.7839 74.4497 89.5039 74.4497C89.3346 74.4497 89.1458 74.4139 88.9375 74.3423ZM96.5498 70.0454L97.4434 69.9673C97.4857 70.3254 97.5833 70.62 97.7363 70.8511C97.8926 71.0789 98.1335 71.2645 98.459 71.4077C98.7845 71.5477 99.1507 71.6177 99.5576 71.6177C99.9189 71.6177 100.238 71.564 100.515 71.4565C100.791 71.3491 100.996 71.2026 101.13 71.0171C101.267 70.8283 101.335 70.6232 101.335 70.4019C101.335 70.1772 101.27 69.9819 101.14 69.8159C101.009 69.6466 100.795 69.505 100.495 69.3911C100.303 69.3162 99.8783 69.2007 99.2207 69.0444C98.5632 68.8849 98.1025 68.7352 97.8389 68.5952C97.4971 68.4162 97.2415 68.1948 97.0723 67.9312C96.9062 67.6642 96.8232 67.3664 96.8232 67.0376C96.8232 66.6763 96.9258 66.3394 97.1309 66.0269C97.3359 65.7111 97.6354 65.4718 98.0293 65.3091C98.4232 65.1463 98.861 65.0649 99.3428 65.0649C99.8734 65.0649 100.34 65.1512 100.744 65.3237C101.151 65.493 101.464 65.7437 101.682 66.0757C101.9 66.4077 102.017 66.7837 102.033 67.2036L101.125 67.272C101.076 66.8195 100.91 66.4777 100.627 66.2466C100.347 66.0155 99.932 65.8999 99.3818 65.8999C98.8089 65.8999 98.3906 66.0057 98.127 66.2173C97.8665 66.4256 97.7363 66.6779 97.7363 66.9741C97.7363 67.2313 97.8291 67.4429 98.0146 67.6089C98.1969 67.7749 98.6722 67.9458 99.4404 68.1216C100.212 68.2941 100.741 68.4455 101.027 68.5757C101.444 68.7677 101.752 69.0119 101.95 69.3081C102.149 69.6011 102.248 69.9396 102.248 70.3237C102.248 70.7046 102.139 71.0643 101.921 71.4028C101.703 71.7381 101.389 72.0002 100.979 72.189C100.572 72.3745 100.113 72.4673 99.6016 72.4673C98.9538 72.4673 98.4102 72.3729 97.9707 72.1841C97.5345 71.9953 97.1911 71.7121 96.9404 71.3345C96.693 70.9536 96.5628 70.5239 96.5498 70.0454ZM106.979 70.6753L107.888 70.7876C107.744 71.3182 107.479 71.73 107.092 72.0229C106.704 72.3159 106.21 72.4624 105.607 72.4624C104.849 72.4624 104.247 72.2297 103.801 71.7642C103.358 71.2954 103.137 70.6395 103.137 69.7964C103.137 68.924 103.361 68.2469 103.811 67.7651C104.26 67.2834 104.842 67.0425 105.559 67.0425C106.252 67.0425 106.818 67.2785 107.258 67.7505C107.697 68.2225 107.917 68.8866 107.917 69.7427C107.917 69.7948 107.915 69.8729 107.912 69.9771H104.045C104.077 70.5467 104.239 70.9829 104.528 71.2856C104.818 71.5884 105.179 71.7397 105.612 71.7397C105.935 71.7397 106.21 71.6551 106.438 71.4858C106.665 71.3166 106.846 71.0464 106.979 70.6753ZM104.094 69.2544H106.989C106.95 68.8182 106.84 68.491 106.657 68.2729C106.377 67.9344 106.014 67.7651 105.568 67.7651C105.165 67.7651 104.825 67.9002 104.548 68.1704C104.274 68.4406 104.123 68.8019 104.094 69.2544ZM108.986 72.3452V67.1597H109.777V67.9458C109.979 67.578 110.165 67.3354 110.334 67.2183C110.507 67.1011 110.695 67.0425 110.9 67.0425C111.197 67.0425 111.498 67.1369 111.804 67.3257L111.501 68.1411C111.286 68.0142 111.071 67.9507 110.856 67.9507C110.664 67.9507 110.492 68.0093 110.339 68.1265C110.186 68.2404 110.077 68.3999 110.012 68.605C109.914 68.9175 109.865 69.2593 109.865 69.6304V72.3452H108.986ZM113.767 72.3452L111.794 67.1597H112.722L113.835 70.2651C113.955 70.6004 114.066 70.9487 114.167 71.3101C114.245 71.0366 114.354 70.7078 114.494 70.3237L115.646 67.1597H116.55L114.587 72.3452H113.767ZM120.876 70.6753L121.784 70.7876C121.641 71.3182 121.376 71.73 120.988 72.0229C120.601 72.3159 120.106 72.4624 119.504 72.4624C118.745 72.4624 118.143 72.2297 117.697 71.7642C117.255 71.2954 117.033 70.6395 117.033 69.7964C117.033 68.924 117.258 68.2469 117.707 67.7651C118.156 67.2834 118.739 67.0425 119.455 67.0425C120.148 67.0425 120.715 67.2785 121.154 67.7505C121.594 68.2225 121.813 68.8866 121.813 69.7427C121.813 69.7948 121.812 69.8729 121.809 69.9771H117.941C117.974 70.5467 118.135 70.9829 118.425 71.2856C118.715 71.5884 119.076 71.7397 119.509 71.7397C119.831 71.7397 120.106 71.6551 120.334 71.4858C120.562 71.3166 120.743 71.0464 120.876 70.6753ZM117.99 69.2544H120.886C120.847 68.8182 120.736 68.491 120.554 68.2729C120.274 67.9344 119.911 67.7651 119.465 67.7651C119.061 67.7651 118.721 67.9002 118.444 68.1704C118.171 68.4406 118.02 68.8019 117.99 69.2544ZM122.883 72.3452V67.1597H123.674V67.9458C123.876 67.578 124.061 67.3354 124.23 67.2183C124.403 67.1011 124.592 67.0425 124.797 67.0425C125.093 67.0425 125.394 67.1369 125.7 67.3257L125.397 68.1411C125.183 68.0142 124.968 67.9507 124.753 67.9507C124.561 67.9507 124.388 68.0093 124.235 68.1265C124.082 68.2404 123.973 68.3999 123.908 68.605C123.811 68.9175 123.762 69.2593 123.762 69.6304V72.3452H122.883Z" fill="black"/>
</svg>
