<svg width="130" height="103" viewBox="0 0 130 103" fill="none" xmlns="http://www.w3.org/2000/svg">
<rect x="0.5" y="0.5" width="129" height="101.609" rx="9.5" fill="#FFF0FA"/>
<rect x="0.5" y="0.5" width="129" height="101.609" rx="9.5" stroke="#D392CD" stroke-dasharray="4 4"/>
<path d="M62.9442 33.1159C60.3675 33.1159 57.7906 33.1159 55.2135 33.1159C54.9683 33.1341 54.722 33.0991 54.4916 33.0134C54.2611 32.9277 54.0518 32.7932 53.8781 32.6192C53.7044 32.4452 53.5702 32.2357 53.4849 32.0051C53.3995 31.7745 53.365 31.5282 53.3835 31.283C53.3835 30.444 53.3835 29.6068 53.3835 28.7713C53.3764 28.5378 53.417 28.3053 53.5029 28.0881C53.5888 27.8708 53.7182 27.6734 53.8831 27.508C54.048 27.3425 54.2449 27.2125 54.4619 27.1259C54.6788 27.0393 54.9112 26.9978 55.1447 27.0042C60.3365 27.0042 65.5275 27.0042 70.7178 27.0042C70.9567 26.9874 71.1965 27.0213 71.4214 27.1037C71.6462 27.1861 71.8512 27.3152 72.0226 27.4824C72.194 27.6496 72.3281 27.8513 72.4161 28.0741C72.5041 28.2968 72.5439 28.5357 72.5329 28.7749C72.5839 29.704 72.5767 30.6354 72.5115 31.5636C72.487 31.9927 72.296 32.3953 71.9791 32.6856C71.6621 32.976 71.2444 33.1312 70.8148 33.1181C68.8612 33.1255 66.9076 33.1181 64.954 33.1218H62.9449L62.9442 33.1159Z" fill="#C677C2"/>
<path d="M63.866 56.6085H60.8376C60.5104 56.6085 60.4985 56.5959 60.4978 56.262C60.4978 55.7024 60.5037 55.1427 60.4978 54.5838C60.4978 54.3862 60.5622 54.3151 60.7628 54.3196C61.2492 54.3314 61.7363 54.3196 62.2227 54.3262C62.4003 54.3262 62.4699 54.2714 62.4655 54.0893C62.4566 53.6896 62.4692 53.2899 62.4603 52.8908C62.4603 52.6999 62.5121 52.6184 62.7201 52.6206C63.4967 52.631 64.2747 52.6295 65.0512 52.6206C65.2452 52.6206 65.3059 52.6947 65.3015 52.8775C65.2926 53.2625 65.3074 53.6474 65.2955 54.0323C65.2896 54.2367 65.3695 54.2974 65.5642 54.2937C66.0432 54.2848 66.5229 54.2937 67.0026 54.2885C67.201 54.2885 67.2743 54.3692 67.2735 54.5609C67.2691 55.142 67.2735 55.7231 67.2735 56.3042C67.2735 56.5589 67.2225 56.6085 66.9634 56.6092C65.9319 56.6092 64.9005 56.6092 63.869 56.6092L63.866 56.6085Z" fill="#C677C2"/>
<path d="M71.5977 56.5241H68.5262C68.2198 56.5241 68.2168 56.5241 68.2161 56.228C68.2161 55.7194 68.2205 55.2116 68.2161 54.703C68.2161 54.5268 68.276 54.4595 68.4567 54.4595C70.5294 54.4639 72.6096 54.4595 74.6868 54.4647C74.8244 54.4621 74.961 54.4871 75.0887 54.5382C75.2164 54.5893 75.3327 54.6654 75.4305 54.7621C75.5283 54.8588 75.6058 54.9742 75.6583 55.1013C75.7109 55.2284 75.7375 55.3648 75.7365 55.5023C75.7355 55.6399 75.7069 55.7759 75.6526 55.9022C75.5982 56.0286 75.5191 56.1428 75.4199 56.2381C75.3207 56.3334 75.2034 56.4078 75.0749 56.4571C74.9465 56.5063 74.8095 56.5294 74.672 56.5248C73.6452 56.5263 72.6215 56.5234 71.5977 56.5241Z" fill="#C677C2"/>
<path d="M56.1379 56.5234C55.1059 56.5234 54.0747 56.5234 53.0435 56.5234C52.8313 56.5285 52.6229 56.467 52.4474 56.3475C52.272 56.228 52.1385 56.0565 52.0656 55.8571C51.9866 55.6557 51.9748 55.4341 52.0321 55.2255C52.0893 55.0168 52.2125 54.8322 52.3832 54.6993C52.5684 54.5409 52.8059 54.457 53.0495 54.4639C55.1222 54.4639 57.1891 54.4639 59.2589 54.4595C59.4476 54.4595 59.5157 54.5209 59.512 54.7112C59.5022 55.2348 59.5022 55.7577 59.512 56.2798C59.5157 56.4745 59.4425 56.53 59.2567 56.5293C58.2144 56.5182 57.1757 56.5241 56.1379 56.5234Z" fill="#C677C2"/>
<path d="M64.9695 41.4747C64.9517 41.2689 64.9443 41.072 64.9369 40.8825C64.9302 40.7063 64.9243 40.5397 64.9102 40.3806C64.8848 40.1115 64.9135 39.8401 64.9948 39.5824C65.076 39.3247 65.2081 39.0858 65.3832 38.88C65.579 38.659 65.817 38.4793 66.0832 38.3515C66.3494 38.2238 66.6385 38.1505 66.9334 38.136C68.2828 38.0958 69.5902 37.658 70.6918 36.8776C71.0664 36.5979 71.5205 36.4452 71.988 36.4416H72.0102C72.1055 36.4423 72.2005 36.4505 72.2944 36.466C72.1638 36.2289 71.9759 36.0283 71.7478 35.8826C71.5197 35.7368 71.2587 35.6506 70.9886 35.6317L70.9398 35.6258C70.9079 35.6258 70.8753 35.6213 70.8428 35.6199C70.8102 35.6184 70.7606 35.6125 70.7177 35.6125C65.5269 35.6125 60.3358 35.6125 55.1445 35.6125C54.911 35.6061 54.6787 35.6475 54.4617 35.7341C54.2448 35.8208 54.0479 35.9508 53.883 36.1162C53.7181 36.2817 53.5887 36.4791 53.5028 36.6963C53.4169 36.9135 53.3763 37.146 53.3834 37.3795C53.3834 37.8 53.3834 38.2204 53.3834 38.638C53.3834 39.0555 53.3834 39.4693 53.3834 39.8853C53.3651 40.1305 53.3998 40.3767 53.4853 40.6072C53.5708 40.8378 53.705 41.0471 53.8788 41.221C54.0526 41.3949 54.2618 41.5293 54.4923 41.615C54.7227 41.7007 54.9689 41.7356 55.2141 41.7175C57.7912 41.7175 60.3681 41.7175 62.9448 41.7175C63.615 41.7175 64.2847 41.7175 64.9539 41.7175H64.9946C64.9865 41.645 64.9783 41.5613 64.9695 41.4747Z" fill="#C677C2"/>
<path d="M65.8112 45.3535C65.672 44.9833 65.5514 44.6058 65.4455 44.2179C62.0121 44.2179 58.5785 44.2179 55.1446 44.2179C54.911 44.2116 54.6787 44.2531 54.4617 44.3398C54.2448 44.4266 54.0479 44.5567 53.883 44.7222C53.7181 44.8877 53.5887 45.0851 53.5029 45.3024C53.417 45.5196 53.3763 45.7522 53.3835 45.9857V45.9909C53.3835 46.4136 53.3835 46.8355 53.3835 47.2582C53.3835 47.6809 53.3835 48.0844 53.3835 48.4974V48.5026C53.365 48.7478 53.3997 48.9942 53.4851 49.2248C53.5706 49.4554 53.7048 49.6648 53.8786 49.8388C54.0523 50.0128 54.2616 50.1473 54.4921 50.233C54.7226 50.3187 54.9689 50.3537 55.2142 50.3355C57.7913 50.3355 60.3682 50.3355 62.9448 50.3355H64.954C66.4765 50.3355 67.999 50.3355 69.5215 50.3355C67.8382 49.0594 66.5516 47.3318 65.8112 45.3535Z" fill="#C677C2"/>
<path d="M56.7577 31.1732C57.3767 31.1732 57.8785 30.6714 57.8785 30.0524C57.8785 29.4334 57.3767 28.9316 56.7577 28.9316C56.1388 28.9316 55.637 29.4334 55.637 30.0524C55.637 30.6714 56.1388 31.1732 56.7577 31.1732Z" fill="#FFF8FC"/>
<path d="M56.7577 39.7909C57.3767 39.7909 57.8785 39.2891 57.8785 38.6701C57.8785 38.0511 57.3767 37.5493 56.7577 37.5493C56.1388 37.5493 55.637 38.0511 55.637 38.6701C55.637 39.2891 56.1388 39.7909 56.7577 39.7909Z" fill="#FFF8FC"/>
<path d="M56.7577 48.4076C57.3767 48.4076 57.8785 47.9058 57.8785 47.2868C57.8785 46.6678 57.3767 46.166 56.7577 46.166C56.1388 46.166 55.637 46.6678 55.637 47.2868C55.637 47.9058 56.1388 48.4076 56.7577 48.4076Z" fill="#FFF8FC"/>
<path d="M71.9986 37.4854C72.2261 37.4947 72.4449 37.5752 72.6241 37.7156C73.5456 38.3682 74.5958 38.8167 75.7044 39.031C76.1105 39.1044 76.5206 39.1538 76.9325 39.1791C77.0865 39.1764 77.2391 39.2075 77.3798 39.2702C77.5204 39.3329 77.6455 39.4257 77.7464 39.542C77.8473 39.6583 77.9214 39.7953 77.9636 39.9434C78.0057 40.0915 78.0149 40.2471 77.9904 40.3991C77.9626 41.3693 77.8506 42.3353 77.6558 43.2861C77.2809 45.1649 76.3972 46.9047 75.1011 48.3156C74.3383 49.1263 73.4588 49.8187 72.4916 50.3698C72.3251 50.4702 72.1333 50.5207 71.939 50.5154C71.7446 50.51 71.5559 50.4489 71.3953 50.3395C69.2774 49.1515 67.6465 47.2547 66.7893 44.9828C66.3641 43.8253 66.1022 42.6142 66.0113 41.3844C65.9802 41.0194 65.9831 40.6537 65.952 40.2888C65.9409 40.1451 65.9601 40.0008 66.0082 39.865C66.0563 39.7292 66.1323 39.605 66.2313 39.5004C66.3304 39.3958 66.4502 39.313 66.5832 39.2576C66.7161 39.2021 66.8592 39.1751 67.0032 39.1783C68.5452 39.1257 70.0379 38.6223 71.2968 37.7304C71.4974 37.5737 71.7441 37.4876 71.9986 37.4854ZM71.9327 41.374C71.9327 40.6021 71.9327 39.83 71.9327 39.0577C71.9327 38.9837 71.9675 38.8889 71.9068 38.8504C71.8461 38.8119 71.778 38.8948 71.721 38.9333C70.4179 39.8007 68.9102 40.3112 67.3482 40.4139C67.1565 40.4272 67.0973 40.4879 67.1047 40.6767C67.1351 41.7284 67.3038 42.7715 67.6065 43.7792C67.6532 43.9316 67.7413 43.9665 67.8856 43.9657C69.1564 43.9618 70.4275 43.9618 71.6988 43.9657C71.8809 43.9657 71.9416 43.9094 71.9401 43.7259C71.9283 42.9441 71.9357 42.1565 71.9357 41.374H71.9327ZM71.972 46.5989H71.9646V48.9951C71.9646 49.0477 71.949 49.1136 71.9949 49.1432C72.0564 49.1854 72.1059 49.1202 72.1526 49.0914C72.7373 48.7326 73.2848 48.3165 73.7871 47.8492C74.8529 46.8259 75.6677 45.57 76.1678 44.1797C76.233 44.0116 76.1915 43.9746 76.0198 43.9753C74.749 43.9798 73.4777 43.9798 72.2059 43.9753C72.0178 43.9753 71.966 44.0442 71.9675 44.2211C71.9756 45.0139 71.972 45.8068 71.972 46.5981V46.5989Z" fill="#268CC9"/>
<path d="M18.6 67.5991C18.5667 67.6558 18.5317 67.6975 18.495 67.7241C18.4583 67.7508 18.4117 67.7641 18.355 67.7641C18.295 67.7641 18.2267 67.7375 18.15 67.6841C18.0733 67.6275 17.9767 67.5658 17.86 67.4991C17.7467 67.4291 17.61 67.3675 17.45 67.3141C17.29 67.2575 17.0983 67.2291 16.875 67.2291C16.665 67.2291 16.48 67.2575 16.32 67.3141C16.1633 67.3675 16.0317 67.4425 15.925 67.5391C15.8183 67.6325 15.7367 67.7441 15.68 67.8741C15.6267 68.0008 15.6 68.1391 15.6 68.2891C15.6 68.4825 15.6483 68.6425 15.745 68.7691C15.845 68.8958 15.975 69.0041 16.135 69.0941C16.295 69.1841 16.4767 69.2625 16.68 69.3291C16.8833 69.3958 17.0917 69.4658 17.305 69.5391C17.5183 69.6091 17.7267 69.6908 17.93 69.7841C18.1333 69.8775 18.315 69.9958 18.475 70.1391C18.635 70.2791 18.7633 70.4525 18.86 70.6591C18.96 70.8625 19.01 71.1125 19.01 71.4091C19.01 71.7258 18.955 72.0225 18.845 72.2991C18.7383 72.5758 18.5817 72.8175 18.375 73.0241C18.1683 73.2308 17.9133 73.3941 17.61 73.5141C17.31 73.6308 16.9683 73.6891 16.585 73.6891C16.355 73.6891 16.1317 73.6658 15.915 73.6191C15.6983 73.5758 15.4933 73.5141 15.3 73.4341C15.1067 73.3508 14.925 73.2525 14.755 73.1391C14.5883 73.0225 14.4383 72.8925 14.305 72.7491L14.61 72.2391C14.64 72.1991 14.675 72.1658 14.715 72.1391C14.7583 72.1125 14.8067 72.0991 14.86 72.0991C14.93 72.0991 15.01 72.1358 15.1 72.2091C15.1933 72.2825 15.3067 72.3641 15.44 72.4541C15.5767 72.5408 15.7383 72.6208 15.925 72.6941C16.115 72.7675 16.345 72.8041 16.615 72.8041C16.835 72.8041 17.0317 72.7758 17.205 72.7191C17.3783 72.6591 17.5233 72.5758 17.64 72.4691C17.76 72.3591 17.8517 72.2275 17.915 72.0741C17.9783 71.9208 18.01 71.7508 18.01 71.5641C18.01 71.3541 17.9617 71.1825 17.865 71.0491C17.7683 70.9158 17.64 70.8041 17.48 70.7141C17.32 70.6241 17.1383 70.5475 16.935 70.4841C16.7317 70.4208 16.5233 70.3558 16.31 70.2891C16.0967 70.2191 15.8883 70.1391 15.685 70.0491C15.4817 69.9591 15.3 69.8425 15.14 69.6991C14.98 69.5525 14.8517 69.3708 14.755 69.1541C14.6583 68.9341 14.61 68.6641 14.61 68.3441C14.61 68.0875 14.66 67.8391 14.76 67.5991C14.86 67.3591 15.005 67.1475 15.195 66.9641C15.3883 66.7775 15.625 66.6291 15.905 66.5191C16.185 66.4058 16.505 66.3491 16.865 66.3491C17.2683 66.3491 17.6383 66.4141 17.975 66.5441C18.315 66.6708 18.61 66.8541 18.86 67.0941L18.6 67.5991ZM23.4602 70.5041C23.4602 70.3108 23.4318 70.1325 23.3752 69.9691C23.3218 69.8058 23.2418 69.6641 23.1352 69.5441C23.0285 69.4241 22.8985 69.3308 22.7452 69.2641C22.5918 69.1975 22.4152 69.1641 22.2152 69.1641C21.8052 69.1641 21.4818 69.2825 21.2452 69.5191C21.0118 69.7558 20.8635 70.0841 20.8002 70.5041H23.4602ZM24.2652 72.8841C24.1452 73.0241 24.0068 73.1458 23.8502 73.2491C23.6935 73.3491 23.5268 73.4308 23.3502 73.4941C23.1735 73.5575 22.9902 73.6041 22.8002 73.6341C22.6135 73.6641 22.4285 73.6791 22.2452 73.6791C21.8952 73.6791 21.5702 73.6208 21.2702 73.5041C20.9735 73.3841 20.7152 73.2108 20.4952 72.9841C20.2785 72.7541 20.1085 72.4708 19.9852 72.1341C19.8652 71.7941 19.8052 71.4041 19.8052 70.9641C19.8052 70.6108 19.8602 70.2825 19.9702 69.9791C20.0802 69.6725 20.2368 69.4058 20.4402 69.1791C20.6468 68.9525 20.8985 68.7741 21.1952 68.6441C21.4918 68.5141 21.8252 68.4491 22.1952 68.4491C22.5052 68.4491 22.7902 68.5008 23.0502 68.6041C23.3135 68.7041 23.5402 68.8508 23.7302 69.0441C23.9202 69.2375 24.0685 69.4758 24.1752 69.7591C24.2852 70.0425 24.3402 70.3658 24.3402 70.7291C24.3402 70.8791 24.3235 70.9808 24.2902 71.0341C24.2568 71.0841 24.1952 71.1091 24.1052 71.1091H20.7752C20.7852 71.4125 20.8285 71.6775 20.9052 71.9041C20.9818 72.1275 21.0868 72.3141 21.2202 72.4641C21.3568 72.6141 21.5185 72.7258 21.7052 72.7991C21.8918 72.8725 22.1002 72.9091 22.3302 72.9091C22.5468 72.9091 22.7335 72.8841 22.8902 72.8341C23.0502 72.7841 23.1868 72.7308 23.3002 72.6741C23.4168 72.6141 23.5135 72.5591 23.5902 72.5091C23.6702 72.4591 23.7402 72.4341 23.8002 72.4341C23.8802 72.4341 23.9418 72.4641 23.9852 72.5241L24.2652 72.8841ZM28.9481 69.4791C28.9181 69.5158 28.8881 69.5458 28.8581 69.5691C28.8315 69.5891 28.7915 69.5991 28.7381 69.5991C28.6848 69.5991 28.6281 69.5791 28.5681 69.5391C28.5115 69.4958 28.4381 69.4508 28.3481 69.4041C28.2615 69.3541 28.1548 69.3091 28.0281 69.2691C27.9048 69.2258 27.7515 69.2041 27.5681 69.2041C27.3281 69.2041 27.1165 69.2475 26.9331 69.3341C26.7498 69.4208 26.5965 69.5441 26.4731 69.7041C26.3531 69.8641 26.2615 70.0591 26.1981 70.2891C26.1348 70.5191 26.1031 70.7775 26.1031 71.0641C26.1031 71.3608 26.1365 71.6258 26.2031 71.8591C26.2698 72.0891 26.3648 72.2841 26.4881 72.4441C26.6115 72.6008 26.7615 72.7208 26.9381 72.8041C27.1148 72.8841 27.3115 72.9241 27.5281 72.9241C27.7381 72.9241 27.9115 72.8991 28.0481 72.8491C28.1848 72.7958 28.2981 72.7391 28.3881 72.6791C28.4781 72.6191 28.5531 72.5641 28.6131 72.5141C28.6731 72.4608 28.7348 72.4341 28.7981 72.4341C28.8781 72.4341 28.9398 72.4641 28.9831 72.5241L29.2631 72.8841C29.1465 73.0275 29.0148 73.1491 28.8681 73.2491C28.7248 73.3491 28.5715 73.4308 28.4081 73.4941C28.2448 73.5575 28.0731 73.6041 27.8931 73.6341C27.7165 73.6641 27.5365 73.6791 27.3531 73.6791C27.0365 73.6791 26.7398 73.6208 26.4631 73.5041C26.1898 73.3875 25.9515 73.2175 25.7481 72.9941C25.5481 72.7708 25.3898 72.4975 25.2731 72.1741C25.1565 71.8475 25.0981 71.4775 25.0981 71.0641C25.0981 70.6875 25.1498 70.3391 25.2531 70.0191C25.3598 69.6991 25.5148 69.4241 25.7181 69.1941C25.9248 68.9608 26.1781 68.7791 26.4781 68.6491C26.7781 68.5158 27.1215 68.4491 27.5081 68.4491C27.8715 68.4491 28.1915 68.5075 28.4681 68.6241C28.7448 68.7408 28.9915 68.9058 29.2081 69.1191L28.9481 69.4791ZM34.3983 68.5291V73.6091H33.8133C33.6799 73.6091 33.5933 73.5441 33.5533 73.4141L33.4833 72.9041C33.3733 73.0208 33.2583 73.1275 33.1383 73.2241C33.0183 73.3208 32.8899 73.4041 32.7533 73.4741C32.6166 73.5408 32.4716 73.5925 32.3183 73.6291C32.1649 73.6691 31.9999 73.6891 31.8233 73.6891C31.5433 73.6891 31.2966 73.6425 31.0833 73.5491C30.8733 73.4558 30.6966 73.3258 30.5533 73.1591C30.4099 72.9891 30.3016 72.7858 30.2283 72.5491C30.1549 72.3125 30.1183 72.0508 30.1183 71.7641V68.5291H31.0983V71.7641C31.0983 72.1275 31.1816 72.4108 31.3483 72.6141C31.5149 72.8141 31.7699 72.9141 32.1133 72.9141C32.3633 72.9141 32.5966 72.8558 32.8133 72.7391C33.0299 72.6191 33.2333 72.4558 33.4233 72.2491V68.5291H34.3983ZM36.6792 69.5041C36.8426 69.1708 37.0392 68.9091 37.2692 68.7191C37.4992 68.5291 37.7759 68.4341 38.0992 68.4341C38.2092 68.4341 38.3126 68.4475 38.4092 68.4741C38.5092 68.4975 38.5959 68.5341 38.6692 68.5841L38.6042 69.3191C38.5809 69.4091 38.5259 69.4541 38.4392 69.4541C38.3926 69.4541 38.3226 69.4458 38.2292 69.4291C38.1359 69.4091 38.0359 69.3991 37.9292 69.3991C37.7726 69.3991 37.6342 69.4225 37.5142 69.4691C37.3942 69.5125 37.2859 69.5791 37.1892 69.6691C37.0959 69.7558 37.0126 69.8641 36.9392 69.9941C36.8659 70.1208 36.7976 70.2658 36.7342 70.4291V73.6091H35.7592V68.5291H36.3192C36.4259 68.5291 36.4976 68.5491 36.5342 68.5891C36.5742 68.6258 36.6026 68.6925 36.6192 68.7891L36.6792 69.5041ZM42.6008 70.5041C42.6008 70.3108 42.5724 70.1325 42.5158 69.9691C42.4624 69.8058 42.3824 69.6641 42.2758 69.5441C42.1691 69.4241 42.0391 69.3308 41.8858 69.2641C41.7324 69.1975 41.5558 69.1641 41.3558 69.1641C40.9458 69.1641 40.6224 69.2825 40.3858 69.5191C40.1524 69.7558 40.0041 70.0841 39.9408 70.5041H42.6008ZM43.4058 72.8841C43.2858 73.0241 43.1474 73.1458 42.9908 73.2491C42.8341 73.3491 42.6674 73.4308 42.4908 73.4941C42.3141 73.5575 42.1308 73.6041 41.9408 73.6341C41.7541 73.6641 41.5691 73.6791 41.3858 73.6791C41.0358 73.6791 40.7108 73.6208 40.4108 73.5041C40.1141 73.3841 39.8558 73.2108 39.6358 72.9841C39.4191 72.7541 39.2491 72.4708 39.1258 72.1341C39.0058 71.7941 38.9458 71.4041 38.9458 70.9641C38.9458 70.6108 39.0008 70.2825 39.1108 69.9791C39.2208 69.6725 39.3774 69.4058 39.5808 69.1791C39.7874 68.9525 40.0391 68.7741 40.3358 68.6441C40.6324 68.5141 40.9658 68.4491 41.3358 68.4491C41.6458 68.4491 41.9308 68.5008 42.1908 68.6041C42.4541 68.7041 42.6808 68.8508 42.8708 69.0441C43.0608 69.2375 43.2091 69.4758 43.3158 69.7591C43.4258 70.0425 43.4808 70.3658 43.4808 70.7291C43.4808 70.8791 43.4641 70.9808 43.4308 71.0341C43.3974 71.0841 43.3358 71.1091 43.2458 71.1091H39.9158C39.9258 71.4125 39.9691 71.6775 40.0458 71.9041C40.1224 72.1275 40.2274 72.3141 40.3608 72.4641C40.4974 72.6141 40.6591 72.7258 40.8458 72.7991C41.0324 72.8725 41.2408 72.9091 41.4708 72.9091C41.6874 72.9091 41.8741 72.8841 42.0308 72.8341C42.1908 72.7841 42.3274 72.7308 42.4408 72.6741C42.5574 72.6141 42.6541 72.5591 42.7308 72.5091C42.8108 72.4591 42.8808 72.4341 42.9408 72.4341C43.0208 72.4341 43.0824 72.4641 43.1258 72.5241L43.4058 72.8841ZM53.118 70.1141V72.9141C52.7547 73.1741 52.368 73.3691 51.958 73.4991C51.548 73.6258 51.1014 73.6891 50.618 73.6891C50.038 73.6891 49.513 73.5991 49.043 73.4191C48.5764 73.2391 48.178 72.9875 47.848 72.6641C47.518 72.3408 47.263 71.9541 47.083 71.5041C46.9064 71.0541 46.818 70.5591 46.818 70.0191C46.818 69.4758 46.903 68.9791 47.073 68.5291C47.2464 68.0758 47.493 67.6891 47.813 67.3691C48.133 67.0458 48.5197 66.7958 48.973 66.6191C49.4297 66.4391 49.9414 66.3491 50.508 66.3491C50.7947 66.3491 51.0597 66.3708 51.303 66.4141C51.5497 66.4575 51.778 66.5191 51.988 66.5991C52.198 66.6791 52.3914 66.7758 52.568 66.8891C52.748 66.9991 52.9147 67.1241 53.068 67.2641L52.763 67.7441C52.7164 67.8208 52.6547 67.8691 52.578 67.8891C52.5014 67.9091 52.418 67.8908 52.328 67.8341C52.2414 67.7841 52.1447 67.7258 52.038 67.6591C51.9347 67.5925 51.8097 67.5308 51.663 67.4741C51.5197 67.4175 51.3514 67.3691 51.158 67.3291C50.9647 67.2891 50.7364 67.2691 50.473 67.2691C50.0797 67.2691 49.7247 67.3341 49.408 67.4641C49.0914 67.5908 48.8214 67.7741 48.598 68.0141C48.3747 68.2541 48.203 68.5441 48.083 68.8841C47.963 69.2208 47.903 69.5991 47.903 70.0191C47.903 70.4591 47.9664 70.8541 48.093 71.2041C48.2197 71.5508 48.398 71.8458 48.628 72.0891C48.8614 72.3291 49.143 72.5125 49.473 72.6391C49.8064 72.7658 50.178 72.8291 50.588 72.8291C50.748 72.8291 50.8964 72.8208 51.033 72.8041C51.173 72.7841 51.3064 72.7575 51.433 72.7241C51.5597 72.6908 51.6814 72.6491 51.798 72.5991C51.918 72.5491 52.0364 72.4941 52.153 72.4341V70.9291H51.093C51.0264 70.9291 50.9714 70.9091 50.928 70.8691C50.888 70.8291 50.868 70.7791 50.868 70.7191V70.1141H53.118ZM57.0537 71.3541C56.657 71.3675 56.3203 71.3991 56.0437 71.4491C55.767 71.4958 55.542 71.5591 55.3687 71.6391C55.1953 71.7191 55.0703 71.8141 54.9937 71.9241C54.917 72.0308 54.8787 72.1508 54.8787 72.2841C54.8787 72.4108 54.8987 72.5208 54.9387 72.6141C54.982 72.7041 55.0387 72.7791 55.1087 72.8391C55.182 72.8958 55.267 72.9375 55.3637 72.9641C55.4603 72.9908 55.5653 73.0041 55.6787 73.0041C55.8287 73.0041 55.9653 72.9891 56.0887 72.9591C56.2153 72.9291 56.3337 72.8875 56.4437 72.8341C56.5537 72.7775 56.6587 72.7091 56.7587 72.6291C56.8587 72.5491 56.957 72.4575 57.0537 72.3541V71.3541ZM54.1937 69.2391C54.477 68.9691 54.7837 68.7675 55.1137 68.6341C55.447 68.5008 55.812 68.4341 56.2087 68.4341C56.4987 68.4341 56.7553 68.4825 56.9787 68.5791C57.202 68.6725 57.3903 68.8041 57.5437 68.9741C57.697 69.1441 57.812 69.3475 57.8887 69.5841C57.9687 69.8208 58.0087 70.0825 58.0087 70.3691V73.6091H57.5737C57.477 73.6091 57.4037 73.5941 57.3537 73.5641C57.3037 73.5308 57.2637 73.4708 57.2337 73.3841L57.1287 72.9391C56.9987 73.0591 56.8703 73.1658 56.7437 73.2591C56.617 73.3491 56.4837 73.4275 56.3437 73.4941C56.207 73.5575 56.0603 73.6058 55.9037 73.6391C55.747 73.6725 55.5737 73.6891 55.3837 73.6891C55.1837 73.6891 54.9953 73.6625 54.8187 73.6091C54.6453 73.5525 54.4937 73.4675 54.3637 73.3541C54.2337 73.2408 54.1303 73.0991 54.0537 72.9291C53.9803 72.7591 53.9437 72.5608 53.9437 72.3341C53.9437 72.1341 53.997 71.9425 54.1037 71.7591C54.2137 71.5725 54.3903 71.4058 54.6337 71.2591C54.8803 71.1125 55.2003 70.9925 55.5937 70.8991C55.9903 70.8058 56.477 70.7525 57.0537 70.7391V70.3691C57.0537 69.9858 56.972 69.6991 56.8087 69.5091C56.6453 69.3191 56.4053 69.2241 56.0887 69.2241C55.8753 69.2241 55.6953 69.2508 55.5487 69.3041C55.4053 69.3575 55.2803 69.4175 55.1737 69.4841C55.0703 69.5475 54.9787 69.6058 54.8987 69.6591C54.822 69.7125 54.742 69.7391 54.6587 69.7391C54.592 69.7391 54.5337 69.7208 54.4837 69.6841C54.437 69.6475 54.3987 69.6041 54.3687 69.5541L54.1937 69.2391ZM60.8355 73.6891C60.4255 73.6891 60.1089 73.5741 59.8855 73.3441C59.6655 73.1141 59.5555 72.7858 59.5555 72.3591V69.3191H58.9655C58.9089 69.3191 58.8605 69.3025 58.8205 69.2691C58.7839 69.2325 58.7655 69.1791 58.7655 69.1091V68.7141L59.5905 68.5991L59.8105 67.0841C59.8239 67.0275 59.8489 66.9841 59.8855 66.9541C59.9255 66.9208 59.9755 66.9041 60.0355 66.9041H60.5305V68.6091H61.9705V69.3191H60.5305V72.2941C60.5305 72.4941 60.5789 72.6441 60.6755 72.7441C60.7755 72.8408 60.9022 72.8891 61.0555 72.8891C61.1455 72.8891 61.2222 72.8775 61.2855 72.8541C61.3522 72.8308 61.4089 72.8058 61.4555 72.7791C61.5022 72.7491 61.5422 72.7225 61.5755 72.6991C61.6089 72.6758 61.6389 72.6641 61.6655 72.6641C61.6989 72.6641 61.7239 72.6725 61.7405 72.6891C61.7605 72.7025 61.7805 72.7258 61.8005 72.7591L62.0905 73.2291C61.9305 73.3758 61.7405 73.4891 61.5205 73.5691C61.3005 73.6491 61.0722 73.6891 60.8355 73.6891ZM66.2043 70.5041C66.2043 70.3108 66.176 70.1325 66.1193 69.9691C66.066 69.8058 65.986 69.6641 65.8793 69.5441C65.7726 69.4241 65.6426 69.3308 65.4893 69.2641C65.336 69.1975 65.1593 69.1641 64.9593 69.1641C64.5493 69.1641 64.226 69.2825 63.9893 69.5191C63.756 69.7558 63.6076 70.0841 63.5443 70.5041H66.2043ZM67.0093 72.8841C66.8893 73.0241 66.751 73.1458 66.5943 73.2491C66.4376 73.3491 66.271 73.4308 66.0943 73.4941C65.9176 73.5575 65.7343 73.6041 65.5443 73.6341C65.3576 73.6641 65.1726 73.6791 64.9893 73.6791C64.6393 73.6791 64.3143 73.6208 64.0143 73.5041C63.7176 73.3841 63.4593 73.2108 63.2393 72.9841C63.0226 72.7541 62.8526 72.4708 62.7293 72.1341C62.6093 71.7941 62.5493 71.4041 62.5493 70.9641C62.5493 70.6108 62.6043 70.2825 62.7143 69.9791C62.8243 69.6725 62.981 69.4058 63.1843 69.1791C63.391 68.9525 63.6426 68.7741 63.9393 68.6441C64.236 68.5141 64.5693 68.4491 64.9393 68.4491C65.2493 68.4491 65.5343 68.5008 65.7943 68.6041C66.0576 68.7041 66.2843 68.8508 66.4743 69.0441C66.6643 69.2375 66.8126 69.4758 66.9193 69.7591C67.0293 70.0425 67.0843 70.3658 67.0843 70.7291C67.0843 70.8791 67.0676 70.9808 67.0343 71.0341C67.001 71.0841 66.9393 71.1091 66.8493 71.1091H63.5193C63.5293 71.4125 63.5726 71.6775 63.6493 71.9041C63.726 72.1275 63.831 72.3141 63.9643 72.4641C64.101 72.6141 64.2626 72.7258 64.4493 72.7991C64.636 72.8725 64.8443 72.9091 65.0743 72.9091C65.291 72.9091 65.4776 72.8841 65.6343 72.8341C65.7943 72.7841 65.931 72.7308 66.0443 72.6741C66.161 72.6141 66.2576 72.5591 66.3343 72.5091C66.4143 72.4591 66.4843 72.4341 66.5443 72.4341C66.6243 72.4341 66.686 72.4641 66.7293 72.5241L67.0093 72.8841ZM75.1387 68.5291L73.5037 73.6091H72.7237C72.6303 73.6091 72.567 73.5475 72.5337 73.4241L71.4637 70.1141C71.437 70.0308 71.4137 69.9491 71.3937 69.8691C71.3737 69.7858 71.3553 69.7025 71.3387 69.6191C71.3087 69.7925 71.267 69.9608 71.2137 70.1241L70.1287 73.4241C70.0953 73.5475 70.0237 73.6091 69.9137 73.6091H69.1737L67.5337 68.5291H68.3037C68.3803 68.5291 68.4437 68.5475 68.4937 68.5841C68.547 68.6208 68.582 68.6675 68.5987 68.7241L69.5137 71.8441C69.5437 71.9708 69.5703 72.0941 69.5937 72.2141C69.617 72.3341 69.6387 72.4541 69.6587 72.5741C69.6887 72.4541 69.7203 72.3341 69.7537 72.2141C69.7903 72.0941 69.827 71.9708 69.8637 71.8441L70.8787 68.7041C70.8953 68.6475 70.927 68.6025 70.9737 68.5691C71.0203 68.5325 71.077 68.5141 71.1437 68.5141H71.5687C71.642 68.5141 71.702 68.5325 71.7487 68.5691C71.7987 68.6025 71.832 68.6475 71.8487 68.7041L72.8387 71.8441C72.8753 71.9708 72.9103 72.0958 72.9437 72.2191C72.977 72.3391 73.007 72.4608 73.0337 72.5841C73.0537 72.4641 73.077 72.3441 73.1037 72.2241C73.1303 72.1008 73.1603 71.9741 73.1937 71.8441L74.1237 68.7241C74.1403 68.6675 74.1737 68.6208 74.2237 68.5841C74.277 68.5475 74.337 68.5291 74.4037 68.5291H75.1387ZM78.6357 71.3541C78.239 71.3675 77.9024 71.3991 77.6257 71.4491C77.349 71.4958 77.124 71.5591 76.9507 71.6391C76.7774 71.7191 76.6524 71.8141 76.5757 71.9241C76.499 72.0308 76.4607 72.1508 76.4607 72.2841C76.4607 72.4108 76.4807 72.5208 76.5207 72.6141C76.564 72.7041 76.6207 72.7791 76.6907 72.8391C76.764 72.8958 76.849 72.9375 76.9457 72.9641C77.0424 72.9908 77.1474 73.0041 77.2607 73.0041C77.4107 73.0041 77.5474 72.9891 77.6707 72.9591C77.7974 72.9291 77.9157 72.8875 78.0257 72.8341C78.1357 72.7775 78.2407 72.7091 78.3407 72.6291C78.4407 72.5491 78.539 72.4575 78.6357 72.3541V71.3541ZM75.7757 69.2391C76.059 68.9691 76.3657 68.7675 76.6957 68.6341C77.029 68.5008 77.394 68.4341 77.7907 68.4341C78.0807 68.4341 78.3374 68.4825 78.5607 68.5791C78.784 68.6725 78.9724 68.8041 79.1257 68.9741C79.279 69.1441 79.394 69.3475 79.4707 69.5841C79.5507 69.8208 79.5907 70.0825 79.5907 70.3691V73.6091H79.1557C79.059 73.6091 78.9857 73.5941 78.9357 73.5641C78.8857 73.5308 78.8457 73.4708 78.8157 73.3841L78.7107 72.9391C78.5807 73.0591 78.4524 73.1658 78.3257 73.2591C78.199 73.3491 78.0657 73.4275 77.9257 73.4941C77.789 73.5575 77.6424 73.6058 77.4857 73.6391C77.329 73.6725 77.1557 73.6891 76.9657 73.6891C76.7657 73.6891 76.5774 73.6625 76.4007 73.6091C76.2274 73.5525 76.0757 73.4675 75.9457 73.3541C75.8157 73.2408 75.7124 73.0991 75.6357 72.9291C75.5624 72.7591 75.5257 72.5608 75.5257 72.3341C75.5257 72.1341 75.579 71.9425 75.6857 71.7591C75.7957 71.5725 75.9724 71.4058 76.2157 71.2591C76.4624 71.1125 76.7824 70.9925 77.1757 70.8991C77.5724 70.8058 78.059 70.7525 78.6357 70.7391V70.3691C78.6357 69.9858 78.554 69.6991 78.3907 69.5091C78.2274 69.3191 77.9874 69.2241 77.6707 69.2241C77.4574 69.2241 77.2774 69.2508 77.1307 69.3041C76.9874 69.3575 76.8624 69.4175 76.7557 69.4841C76.6524 69.5475 76.5607 69.6058 76.4807 69.6591C76.404 69.7125 76.324 69.7391 76.2407 69.7391C76.174 69.7391 76.1157 69.7208 76.0657 69.6841C76.019 69.6475 75.9807 69.6041 75.9507 69.5541L75.7757 69.2391ZM85.209 68.5291L82.389 75.0841C82.359 75.1575 82.319 75.2141 82.269 75.2541C82.219 75.2941 82.1457 75.3141 82.049 75.3141H81.324L82.254 73.2891L80.169 68.5291H81.019C81.1023 68.5291 81.1673 68.5491 81.214 68.5891C81.2607 68.6291 81.294 68.6741 81.314 68.7241L82.604 71.7741C82.6307 71.8508 82.6557 71.9291 82.679 72.0091C82.7057 72.0858 82.7273 72.1625 82.744 72.2391C82.7673 72.1591 82.7923 72.0808 82.819 72.0041C82.8457 71.9241 82.874 71.8458 82.904 71.7691L84.149 68.7241C84.1723 68.6675 84.209 68.6208 84.259 68.5841C84.309 68.5475 84.3657 68.5291 84.429 68.5291H85.209ZM92.1547 67.5991C92.1214 67.6558 92.0864 67.6975 92.0497 67.7241C92.013 67.7508 91.9664 67.7641 91.9097 67.7641C91.8497 67.7641 91.7814 67.7375 91.7047 67.6841C91.628 67.6275 91.5314 67.5658 91.4147 67.4991C91.3014 67.4291 91.1647 67.3675 91.0047 67.3141C90.8447 67.2575 90.653 67.2291 90.4297 67.2291C90.2197 67.2291 90.0347 67.2575 89.8747 67.3141C89.718 67.3675 89.5864 67.4425 89.4797 67.5391C89.373 67.6325 89.2914 67.7441 89.2347 67.8741C89.1814 68.0008 89.1547 68.1391 89.1547 68.2891C89.1547 68.4825 89.203 68.6425 89.2997 68.7691C89.3997 68.8958 89.5297 69.0041 89.6897 69.0941C89.8497 69.1841 90.0314 69.2625 90.2347 69.3291C90.438 69.3958 90.6464 69.4658 90.8597 69.5391C91.073 69.6091 91.2814 69.6908 91.4847 69.7841C91.688 69.8775 91.8697 69.9958 92.0297 70.1391C92.1897 70.2791 92.318 70.4525 92.4147 70.6591C92.5147 70.8625 92.5647 71.1125 92.5647 71.4091C92.5647 71.7258 92.5097 72.0225 92.3997 72.2991C92.293 72.5758 92.1364 72.8175 91.9297 73.0241C91.723 73.2308 91.468 73.3941 91.1647 73.5141C90.8647 73.6308 90.523 73.6891 90.1397 73.6891C89.9097 73.6891 89.6864 73.6658 89.4697 73.6191C89.253 73.5758 89.048 73.5141 88.8547 73.4341C88.6614 73.3508 88.4797 73.2525 88.3097 73.1391C88.143 73.0225 87.993 72.8925 87.8597 72.7491L88.1647 72.2391C88.1947 72.1991 88.2297 72.1658 88.2697 72.1391C88.313 72.1125 88.3614 72.0991 88.4147 72.0991C88.4847 72.0991 88.5647 72.1358 88.6547 72.2091C88.748 72.2825 88.8614 72.3641 88.9947 72.4541C89.1314 72.5408 89.293 72.6208 89.4797 72.6941C89.6697 72.7675 89.8997 72.8041 90.1697 72.8041C90.3897 72.8041 90.5864 72.7758 90.7597 72.7191C90.933 72.6591 91.078 72.5758 91.1947 72.4691C91.3147 72.3591 91.4064 72.2275 91.4697 72.0741C91.533 71.9208 91.5647 71.7508 91.5647 71.5641C91.5647 71.3541 91.5164 71.1825 91.4197 71.0491C91.323 70.9158 91.1947 70.8041 91.0347 70.7141C90.8747 70.6241 90.693 70.5475 90.4897 70.4841C90.2864 70.4208 90.078 70.3558 89.8647 70.2891C89.6514 70.2191 89.443 70.1391 89.2397 70.0491C89.0364 69.9591 88.8547 69.8425 88.6947 69.6991C88.5347 69.5525 88.4064 69.3708 88.3097 69.1541C88.213 68.9341 88.1647 68.6641 88.1647 68.3441C88.1647 68.0875 88.2147 67.8391 88.3147 67.5991C88.4147 67.3591 88.5597 67.1475 88.7497 66.9641C88.943 66.7775 89.1797 66.6291 89.4597 66.5191C89.7397 66.4058 90.0597 66.3491 90.4197 66.3491C90.823 66.3491 91.193 66.4141 91.5297 66.5441C91.8697 66.6708 92.1647 66.8541 92.4147 67.0941L92.1547 67.5991ZM97.0148 70.5041C97.0148 70.3108 96.9865 70.1325 96.9298 69.9691C96.8765 69.8058 96.7965 69.6641 96.6898 69.5441C96.5832 69.4241 96.4532 69.3308 96.2998 69.2641C96.1465 69.1975 95.9698 69.1641 95.7698 69.1641C95.3598 69.1641 95.0365 69.2825 94.7998 69.5191C94.5665 69.7558 94.4182 70.0841 94.3548 70.5041H97.0148ZM97.8198 72.8841C97.6998 73.0241 97.5615 73.1458 97.4048 73.2491C97.2482 73.3491 97.0815 73.4308 96.9048 73.4941C96.7282 73.5575 96.5448 73.6041 96.3548 73.6341C96.1682 73.6641 95.9832 73.6791 95.7998 73.6791C95.4498 73.6791 95.1248 73.6208 94.8248 73.5041C94.5282 73.3841 94.2698 73.2108 94.0498 72.9841C93.8332 72.7541 93.6632 72.4708 93.5398 72.1341C93.4198 71.7941 93.3598 71.4041 93.3598 70.9641C93.3598 70.6108 93.4148 70.2825 93.5248 69.9791C93.6348 69.6725 93.7915 69.4058 93.9948 69.1791C94.2015 68.9525 94.4532 68.7741 94.7498 68.6441C95.0465 68.5141 95.3798 68.4491 95.7498 68.4491C96.0598 68.4491 96.3448 68.5008 96.6048 68.6041C96.8682 68.7041 97.0948 68.8508 97.2848 69.0441C97.4748 69.2375 97.6232 69.4758 97.7298 69.7591C97.8398 70.0425 97.8948 70.3658 97.8948 70.7291C97.8948 70.8791 97.8782 70.9808 97.8448 71.0341C97.8115 71.0841 97.7498 71.1091 97.6598 71.1091H94.3298C94.3398 71.4125 94.3832 71.6775 94.4598 71.9041C94.5365 72.1275 94.6415 72.3141 94.7748 72.4641C94.9115 72.6141 95.0732 72.7258 95.2598 72.7991C95.4465 72.8725 95.6548 72.9091 95.8848 72.9091C96.1015 72.9091 96.2882 72.8841 96.4448 72.8341C96.6048 72.7841 96.7415 72.7308 96.8548 72.6741C96.9715 72.6141 97.0682 72.5591 97.1448 72.5091C97.2248 72.4591 97.2948 72.4341 97.3548 72.4341C97.4348 72.4341 97.4965 72.4641 97.5398 72.5241L97.8198 72.8841ZM99.8628 69.5041C100.026 69.1708 100.223 68.9091 100.453 68.7191C100.683 68.5291 100.959 68.4341 101.283 68.4341C101.393 68.4341 101.496 68.4475 101.593 68.4741C101.693 68.4975 101.779 68.5341 101.853 68.5841L101.788 69.3191C101.764 69.4091 101.709 69.4541 101.623 69.4541C101.576 69.4541 101.506 69.4458 101.413 69.4291C101.319 69.4091 101.219 69.3991 101.113 69.3991C100.956 69.3991 100.818 69.4225 100.698 69.4691C100.578 69.5125 100.469 69.5791 100.373 69.6691C100.279 69.7558 100.196 69.8641 100.123 69.9941C100.049 70.1208 99.9811 70.2658 99.9178 70.4291V73.6091H98.9428V68.5291H99.5028C99.6095 68.5291 99.6811 68.5491 99.7178 68.5891C99.7578 68.6258 99.7861 68.6925 99.8028 68.7891L99.8628 69.5041ZM107.015 68.5291L104.955 73.6091H104.075L102.015 68.5291H102.82C102.897 68.5291 102.96 68.5475 103.01 68.5841C103.06 68.6208 103.093 68.6675 103.11 68.7241L104.325 71.8441C104.368 71.9741 104.405 72.1041 104.435 72.2341C104.468 72.3608 104.498 72.4875 104.525 72.6141C104.552 72.4875 104.582 72.3608 104.615 72.2341C104.648 72.1075 104.688 71.9775 104.735 71.8441L105.965 68.7241C105.985 68.6675 106.02 68.6208 106.07 68.5841C106.12 68.5475 106.18 68.5291 106.25 68.5291H107.015ZM111.009 70.5041C111.009 70.3108 110.981 70.1325 110.924 69.9691C110.871 69.8058 110.791 69.6641 110.684 69.5441C110.577 69.4241 110.447 69.3308 110.294 69.2641C110.141 69.1975 109.964 69.1641 109.764 69.1641C109.354 69.1641 109.031 69.2825 108.794 69.5191C108.561 69.7558 108.412 70.0841 108.349 70.5041H111.009ZM111.814 72.8841C111.694 73.0241 111.556 73.1458 111.399 73.2491C111.242 73.3491 111.076 73.4308 110.899 73.4941C110.722 73.5575 110.539 73.6041 110.349 73.6341C110.162 73.6641 109.977 73.6791 109.794 73.6791C109.444 73.6791 109.119 73.6208 108.819 73.5041C108.522 73.3841 108.264 73.2108 108.044 72.9841C107.827 72.7541 107.657 72.4708 107.534 72.1341C107.414 71.7941 107.354 71.4041 107.354 70.9641C107.354 70.6108 107.409 70.2825 107.519 69.9791C107.629 69.6725 107.786 69.4058 107.989 69.1791C108.196 68.9525 108.447 68.7741 108.744 68.6441C109.041 68.5141 109.374 68.4491 109.744 68.4491C110.054 68.4491 110.339 68.5008 110.599 68.6041C110.862 68.7041 111.089 68.8508 111.279 69.0441C111.469 69.2375 111.617 69.4758 111.724 69.7591C111.834 70.0425 111.889 70.3658 111.889 70.7291C111.889 70.8791 111.872 70.9808 111.839 71.0341C111.806 71.0841 111.744 71.1091 111.654 71.1091H108.324C108.334 71.4125 108.377 71.6775 108.454 71.9041C108.531 72.1275 108.636 72.3141 108.769 72.4641C108.906 72.6141 109.067 72.7258 109.254 72.7991C109.441 72.8725 109.649 72.9091 109.879 72.9091C110.096 72.9091 110.282 72.8841 110.439 72.8341C110.599 72.7841 110.736 72.7308 110.849 72.6741C110.966 72.6141 111.062 72.5591 111.139 72.5091C111.219 72.4591 111.289 72.4341 111.349 72.4341C111.429 72.4341 111.491 72.4641 111.534 72.5241L111.814 72.8841ZM113.857 69.5041C114.02 69.1708 114.217 68.9091 114.447 68.7191C114.677 68.5291 114.954 68.4341 115.277 68.4341C115.387 68.4341 115.49 68.4475 115.587 68.4741C115.687 68.4975 115.774 68.5341 115.847 68.5841L115.782 69.3191C115.759 69.4091 115.704 69.4541 115.617 69.4541C115.57 69.4541 115.5 69.4458 115.407 69.4291C115.314 69.4091 115.214 69.3991 115.107 69.3991C114.95 69.3991 114.812 69.4225 114.692 69.4691C114.572 69.5125 114.464 69.5791 114.367 69.6691C114.274 69.7558 114.19 69.8641 114.117 69.9941C114.044 70.1208 113.975 70.2658 113.912 70.4291V73.6091H112.937V68.5291H113.497C113.604 68.5291 113.675 68.5491 113.712 68.5891C113.752 68.6258 113.78 68.6925 113.797 68.7891L113.857 69.5041Z" fill="black"/>
</svg>
